<?xml version="1.0" encoding="UTF-8" standalone="no"?>
<!-- Created with Inkscape (http://www.inkscape.org/) -->

<svg
   width="322.48401mm"
   height="86mm"
   viewBox="0 0 322.48401 86"
   version="1.1"
   id="svg1"
   inkscape:version="1.3.2 (091e20ef0f, 2023-11-25)"
   sodipodi:docname="ascii_logo.svg"
   inkscape:export-filename="ascii_logo.png"
   inkscape:export-xdpi="96"
   inkscape:export-ydpi="96"
   xmlns:inkscape="http://www.inkscape.org/namespaces/inkscape"
   xmlns:sodipodi="http://sodipodi.sourceforge.net/DTD/sodipodi-0.dtd"
   xmlns="http://www.w3.org/2000/svg"
   xmlns:svg="http://www.w3.org/2000/svg">
  <sodipodi:namedview
     id="namedview1"
     pagecolor="#000000"
     bordercolor="#000000"
     borderopacity="0.25"
     inkscape:showpageshadow="2"
     inkscape:pageopacity="0.0"
     inkscape:pagecheckerboard="0"
     inkscape:deskcolor="#d1d1d1"
     inkscape:document-units="mm"
     inkscape:zoom="1"
     inkscape:cx="678"
     inkscape:cy="370.5"
     inkscape:window-width="2268"
     inkscape:window-height="1404"
     inkscape:window-x="0"
     inkscape:window-y="0"
     inkscape:window-maximized="1"
     inkscape:current-layer="layer1"
     inkscape:export-bgcolor="#000000ff" />
  <defs
     id="defs1" />
  <g
     inkscape:label="Layer 1"
     inkscape:groupmode="layer"
     id="layer1">
    <path
       d="M -2.4423003e-5,85.323456 V 25.135582 H 11.513186 v 9.746332 h 0.227985 q 1.652886,-4.95866 5.186644,-7.694472 3.590754,-2.792809 9.347359,-2.792809 1.367906,0 2.507828,0.113992 1.139922,0.113993 1.880871,0.170989 v 11.22823 q -0.683953,-0.170988 -2.450832,-0.341977 -1.766879,-0.227984 -3.875734,-0.227984 -5.072652,0 -8.720402,3.533758 -3.590754,3.533757 -3.590754,10.886253 V 85.323456 Z M 56.483104,86.292389 q -9.005383,0 -14.932977,-4.559687 -5.927593,-4.616683 -5.927593,-13.622066 0,-6.839531 3.362769,-10.487281 3.419766,-3.704746 8.834395,-5.300637 5.471624,-1.59589 11.570206,-2.336839 5.642613,-0.683953 8.948387,-1.139922 3.305773,-0.455969 4.673679,-1.367906 1.424903,-0.911938 1.424903,-3.134785 v -0.512965 q 0,-4.388699 -3.191782,-7.181508 -3.191781,-2.849805 -8.948386,-2.849805 -5.756605,0 -9.404355,2.792809 -3.64775,2.735812 -3.989727,6.896527 H 37.104432 q 0.398973,-8.60641 7.238504,-14.078035 6.839531,-5.471624 18.124757,-5.471624 11.114238,0 17.497801,5.471624 6.383562,5.471625 6.383562,14.647996 V 85.323456 H 74.493869 v -8.549414 h -0.227985 q -1.880871,3.64775 -5.984589,6.611547 -4.046723,2.9068 -11.798191,2.9068 z m 2.450832,-9.689335 q 7.979452,0 11.741195,-4.103719 3.818738,-4.160715 3.818738,-9.689336 v -7.067515 q -1.196918,0.968934 -5.414629,1.766879 -4.217711,0.740949 -9.005383,1.424902 -4.95866,0.740949 -8.720402,2.792809 -3.761742,2.051859 -3.761742,6.611546 0,3.875735 3.020793,6.098582 3.077789,2.165852 8.32143,2.165852 z M 99.91413,85.323456 V 25.135582 h 11.6842 v 10.088309 q 2.79281,-5.585617 7.58048,-8.435422 4.78767,-2.849804 10.37329,-2.849804 6.15558,0 10.77226,3.134785 4.67368,3.134785 6.55455,7.979452 2.45083,-4.901663 7.40949,-7.979452 5.01566,-3.134785 11.6842,-3.134785 5.58562,0 10.1453,2.450831 4.55969,2.450832 7.23851,7.2955 2.67881,4.787672 2.67881,12.026176 V 85.323456 H 173.95205 V 46.737101 q 0,-6.440558 -3.59075,-9.347359 -3.59075,-2.9068 -8.49242,-2.9068 -6.04158,0 -9.51835,3.761742 -3.47676,3.704746 -3.47676,9.461351 v 37.617421 h -11.85518 v -39.3843 q 0,-5.186644 -3.36277,-8.321429 -3.30578,-3.134785 -8.43543,-3.134785 -5.24364,0 -9.29036,3.704746 -3.98972,3.704746 -3.98972,10.829257 v 36.306511 z m 130.23606,1.196918 q -5.8706,0 -10.77226,-2.564824 -4.84467,-2.564825 -7.86546,-7.808465 h -0.11399 v 9.176371 H 199.60029 V 0.39927843 h 12.02617 V 33.855985 h 0.11399 q 2.90681,-5.015657 7.75147,-7.466489 4.84467,-2.450831 10.71527,-2.450831 7.75147,0 13.62206,3.989726 5.8706,3.93273 9.11938,11.000246 3.30577,7.010519 3.30577,16.300882 0,9.290363 -3.24877,16.357879 -3.24878,7.010519 -9.11938,11.000245 -5.8706,3.932731 -13.73606,3.932731 z m -2.45083,-10.373289 q 7.2955,0 11.79819,-5.357633 4.55969,-5.357632 4.55969,-15.559933 0,-10.2023 -4.55969,-15.559933 -4.50269,-5.414629 -11.79819,-5.414629 -7.69447,0 -12.31116,5.756606 -4.55968,5.699609 -4.55968,15.217956 0,9.461351 4.55968,15.217957 4.61669,5.699609 12.31116,5.699609 z m 39.15633,9.176371 V 25.135582 h 12.02617 v 60.187874 z m 5.98459,-70.561162 q -3.19178,0 -5.41463,-2.108856 -2.16585,-2.165851 -2.16585,-5.2436402 0,-3.1347851 2.16585,-5.2436405 2.22285,-2.16585151327 5.41463,-2.16585151327 3.19178,0 5.41463,2.16585151327 2.22284,2.1088554 2.22284,5.2436405 0,3.0777892 -2.22284,5.2436402 -2.22285,2.108856 -5.41463,2.108856 z m 49.64358,10.373288 v 9.91732 h -12.19717 v 34.368644 q 0,3.36277 1.36791,4.67368 1.36791,1.31091 4.95866,1.31091 h 5.8706 v 9.91732 h -7.58048 q -16.69986,0 -16.69986,-14.363015 V 35.052902 h -10.60127 v -9.91732 h 10.60127 V 8.7207079 h 12.08317 V 25.135582 Z"
       id="text1"
       style="font-weight:500;font-size:116.728px;font-family:'Inter Display';-inkscape-font-specification:'Inter Display Medium';fill:#fffffd;stroke-width:4.96324;stroke-linecap:round;stroke-linejoin:round"
       aria-label="rambit" />
  </g>
</svg>
