<?xml version="1.0" encoding="UTF-8" standalone="no"?>
<!DOCTYPE svg PUBLIC "-//W3C//DTD SVG 1.1//EN"
 "http://www.w3.org/Graphics/SVG/1.1/DTD/svg11.dtd">
<!-- Generated by graphviz version 12.1.1 (0)
 -->
<!-- Pages: 1 -->
<svg width="665pt" height="548pt"
 viewBox="0.00 0.00 665.04 548.00" xmlns="http://www.w3.org/2000/svg" xmlns:xlink="http://www.w3.org/1999/xlink">
<g id="graph0" class="graph" transform="scale(1 1) rotate(0) translate(4 544)">
<polygon fill="white" stroke="none" points="-4,4 -4,-544 661.04,-544 661.04,4 -4,4"/>
<!-- 0 -->
<g id="node1" class="node">
<title>0</title>
<polygon fill="none" stroke="black" points="164.25,-540 110.25,-540 110.25,-504 164.25,-504 164.25,-540"/>
<text text-anchor="middle" x="137.25" y="-517.33" font-family="Times,serif" font-size="14.00">api</text>
</g>
<!-- 1 -->
<g id="node2" class="node">
<title>1</title>
<polygon fill="none" stroke="black" points="179,-252 107.5,-252 107.5,-216 179,-216 179,-252"/>
<text text-anchor="middle" x="143.25" y="-229.32" font-family="Times,serif" font-size="14.00">mollusk</text>
</g>
<!-- 0&#45;&gt;1 -->
<g id="edge1" class="edge">
<title>0&#45;&gt;1</title>
<path fill="none" stroke="black" d="M137.62,-503.54C138.62,-455.76 141.41,-322.51 142.65,-263.61"/>
<polygon fill="black" stroke="black" points="146.15,-263.82 142.86,-253.74 139.15,-263.67 146.15,-263.82"/>
</g>
<!-- 5 -->
<g id="node6" class="node">
<title>5</title>
<polygon fill="none" stroke="black" points="434.75,-396 319.75,-396 319.75,-360 434.75,-360 434.75,-396"/>
<text text-anchor="middle" x="377.25" y="-373.32" font-family="Times,serif" font-size="14.00">prime&#45;domain</text>
</g>
<!-- 0&#45;&gt;5 -->
<g id="edge2" class="edge">
<title>0&#45;&gt;5</title>
<path fill="none" stroke="black" d="M155.08,-503.78C175.88,-484.38 211.93,-452.87 247.25,-432 268.08,-419.69 292.3,-408.96 314.15,-400.43"/>
<polygon fill="black" stroke="black" points="315.15,-403.8 323.25,-396.97 312.65,-397.26 315.15,-403.8"/>
</g>
<!-- 15 -->
<g id="node16" class="node">
<title>15</title>
<polygon fill="none" stroke="black" points="109.25,-468 55.25,-468 55.25,-432 109.25,-432 109.25,-468"/>
<text text-anchor="middle" x="82.25" y="-445.32" font-family="Times,serif" font-size="14.00">tasks</text>
</g>
<!-- 0&#45;&gt;15 -->
<g id="edge3" class="edge">
<title>0&#45;&gt;15</title>
<path fill="none" stroke="black" d="M123.65,-503.7C117.33,-495.64 109.67,-485.89 102.66,-476.98"/>
<polygon fill="black" stroke="black" points="105.55,-475 96.62,-469.29 100.05,-479.32 105.55,-475"/>
</g>
<!-- 2 -->
<g id="node3" class="node">
<title>2</title>
<polygon fill="none" stroke="black" points="355.75,-180 288.75,-180 288.75,-144 355.75,-144 355.75,-180"/>
<text text-anchor="middle" x="322.25" y="-157.32" font-family="Times,serif" font-size="14.00">models</text>
</g>
<!-- 1&#45;&gt;2 -->
<g id="edge4" class="edge">
<title>1&#45;&gt;2</title>
<path fill="none" stroke="black" d="M179.47,-218.83C207.86,-207.73 247.49,-192.24 277.8,-180.38"/>
<polygon fill="black" stroke="black" points="279.05,-183.65 287.09,-176.75 276.51,-177.13 279.05,-183.65"/>
</g>
<!-- 3 -->
<g id="node4" class="node">
<title>3</title>
<polygon fill="none" stroke="black" points="387.25,-108 333.25,-108 333.25,-72 387.25,-72 387.25,-108"/>
<text text-anchor="middle" x="360.25" y="-85.33" font-family="Times,serif" font-size="14.00">dvf</text>
</g>
<!-- 2&#45;&gt;3 -->
<g id="edge5" class="edge">
<title>2&#45;&gt;3</title>
<path fill="none" stroke="black" d="M331.64,-143.7C335.83,-135.98 340.86,-126.71 345.53,-118.11"/>
<polygon fill="black" stroke="black" points="348.55,-119.89 350.24,-109.43 342.4,-116.55 348.55,-119.89"/>
</g>
<!-- 4 -->
<g id="node5" class="node">
<title>4</title>
<polygon fill="none" stroke="black" points="477.25,-36 407.25,-36 407.25,0 477.25,0 477.25,-36"/>
<text text-anchor="middle" x="442.25" y="-13.32" font-family="Times,serif" font-size="14.00">slugger</text>
</g>
<!-- 3&#45;&gt;4 -->
<g id="edge6" class="edge">
<title>3&#45;&gt;4</title>
<path fill="none" stroke="black" d="M380.52,-71.7C390.38,-63.28 402.4,-53.02 413.21,-43.79"/>
<polygon fill="black" stroke="black" points="415.44,-46.48 420.78,-37.33 410.9,-41.16 415.44,-46.48"/>
</g>
<!-- 5&#45;&gt;2 -->
<g id="edge9" class="edge">
<title>5&#45;&gt;2</title>
<path fill="none" stroke="black" d="M369.26,-359.63C358.71,-335.87 340.4,-291.66 331.25,-252 326.68,-232.18 324.43,-209.34 323.32,-191.76"/>
<polygon fill="black" stroke="black" points="326.82,-191.58 322.79,-181.78 319.83,-191.95 326.82,-191.58"/>
</g>
<!-- 6 -->
<g id="node7" class="node">
<title>6</title>
<polygon fill="none" stroke="black" points="429.62,-252 364.88,-252 364.88,-216 429.62,-216 429.62,-252"/>
<text text-anchor="middle" x="397.25" y="-229.32" font-family="Times,serif" font-size="14.00">crunch</text>
</g>
<!-- 5&#45;&gt;6 -->
<g id="edge7" class="edge">
<title>5&#45;&gt;6</title>
<path fill="none" stroke="black" d="M379.7,-359.59C383.08,-335.61 389.2,-292.14 393.25,-263.42"/>
<polygon fill="black" stroke="black" points="396.7,-264 394.63,-253.61 389.77,-263.02 396.7,-264"/>
</g>
<!-- 7 -->
<g id="node8" class="node">
<title>7</title>
<polygon fill="none" stroke="black" points="478.88,-180 373.62,-180 373.62,-144 478.88,-144 478.88,-180"/>
<text text-anchor="middle" x="426.25" y="-157.32" font-family="Times,serif" font-size="14.00">stream&#45;tools</text>
</g>
<!-- 5&#45;&gt;7 -->
<g id="edge11" class="edge">
<title>5&#45;&gt;7</title>
<path fill="none" stroke="black" d="M435.14,-371.16C493.67,-363.92 578.28,-349.33 598.25,-324 627.97,-286.31 626.76,-254.62 598.25,-216 594.81,-211.34 537.53,-194.26 490,-180.74"/>
<polygon fill="black" stroke="black" points="491.14,-177.42 480.56,-178.06 489.23,-184.16 491.14,-177.42"/>
</g>
<!-- 8 -->
<g id="node9" class="node">
<title>8</title>
<polygon fill="none" stroke="black" points="644.25,-108 590.25,-108 590.25,-72 644.25,-72 644.25,-108"/>
<text text-anchor="middle" x="617.25" y="-85.33" font-family="Times,serif" font-size="14.00">hex</text>
</g>
<!-- 5&#45;&gt;8 -->
<g id="edge8" class="edge">
<title>5&#45;&gt;8</title>
<path fill="none" stroke="black" d="M435.2,-372.14C499.54,-365.47 597.63,-351.09 622.25,-324 676.29,-264.53 654.96,-222.81 639.25,-144 637.54,-135.4 634.4,-126.45 631.02,-118.41"/>
<polygon fill="black" stroke="black" points="634.31,-117.17 627,-109.5 627.93,-120.05 634.31,-117.17"/>
</g>
<!-- 10 -->
<g id="node11" class="node">
<title>10</title>
<polygon fill="none" stroke="black" points="492.12,-324 436.38,-324 436.38,-288 492.12,-288 492.12,-324"/>
<text text-anchor="middle" x="464.25" y="-301.32" font-family="Times,serif" font-size="14.00">repos</text>
</g>
<!-- 5&#45;&gt;10 -->
<g id="edge10" class="edge">
<title>5&#45;&gt;10</title>
<path fill="none" stroke="black" d="M398.76,-359.7C409.32,-351.2 422.23,-340.81 433.78,-331.51"/>
<polygon fill="black" stroke="black" points="435.91,-334.29 441.51,-325.3 431.53,-328.84 435.91,-334.29"/>
</g>
<!-- 6&#45;&gt;2 -->
<g id="edge12" class="edge">
<title>6&#45;&gt;2</title>
<path fill="none" stroke="black" d="M378.71,-215.7C369.79,-207.37 358.92,-197.22 349.11,-188.07"/>
<polygon fill="black" stroke="black" points="351.64,-185.64 341.94,-181.38 346.86,-190.76 351.64,-185.64"/>
</g>
<!-- 6&#45;&gt;7 -->
<g id="edge13" class="edge">
<title>6&#45;&gt;7</title>
<path fill="none" stroke="black" d="M404.42,-215.7C407.54,-208.15 411.29,-199.12 414.78,-190.68"/>
<polygon fill="black" stroke="black" points="417.99,-192.08 418.58,-181.5 411.52,-189.4 417.99,-192.08"/>
</g>
<!-- 9 -->
<g id="node10" class="node">
<title>9</title>
<polygon fill="none" stroke="black" points="647.75,-36 586.75,-36 586.75,0 647.75,0 647.75,-36"/>
<text text-anchor="middle" x="617.25" y="-13.32" font-family="Times,serif" font-size="14.00">health</text>
</g>
<!-- 8&#45;&gt;9 -->
<g id="edge14" class="edge">
<title>8&#45;&gt;9</title>
<path fill="none" stroke="black" d="M617.25,-71.7C617.25,-64.41 617.25,-55.73 617.25,-47.54"/>
<polygon fill="black" stroke="black" points="620.75,-47.62 617.25,-37.62 613.75,-47.62 620.75,-47.62"/>
</g>
<!-- 10&#45;&gt;2 -->
<g id="edge17" class="edge">
<title>10&#45;&gt;2</title>
<path fill="none" stroke="black" d="M436.33,-297.63C412.16,-289.92 377.79,-275.6 356.25,-252 340.83,-235.1 332.15,-210.49 327.42,-191.43"/>
<polygon fill="black" stroke="black" points="330.89,-190.87 325.3,-181.87 324.05,-192.39 330.89,-190.87"/>
</g>
<!-- 10&#45;&gt;8 -->
<g id="edge16" class="edge">
<title>10&#45;&gt;8</title>
<path fill="none" stroke="black" d="M492.44,-291.78C495.4,-290.48 498.38,-289.19 501.25,-288 543.73,-270.39 568.26,-286.86 598.25,-252 629.91,-215.19 627.53,-154.89 622.61,-119.46"/>
<polygon fill="black" stroke="black" points="626.13,-119.31 621.12,-109.97 619.21,-120.39 626.13,-119.31"/>
</g>
<!-- 11 -->
<g id="node12" class="node">
<title>11</title>
<polygon fill="none" stroke="black" points="589.25,-252 535.25,-252 535.25,-216 589.25,-216 589.25,-252"/>
<text text-anchor="middle" x="562.25" y="-229.32" font-family="Times,serif" font-size="14.00">db</text>
</g>
<!-- 10&#45;&gt;11 -->
<g id="edge15" class="edge">
<title>10&#45;&gt;11</title>
<path fill="none" stroke="black" d="M488.73,-287.52C500.86,-278.85 515.7,-268.25 528.86,-258.85"/>
<polygon fill="black" stroke="black" points="530.75,-261.8 536.85,-253.14 526.68,-256.1 530.75,-261.8"/>
</g>
<!-- 14 -->
<g id="node15" class="node">
<title>14</title>
<polygon fill="none" stroke="black" points="517.25,-252 447.25,-252 447.25,-216 517.25,-216 517.25,-252"/>
<text text-anchor="middle" x="482.25" y="-229.32" font-family="Times,serif" font-size="14.00">storage</text>
</g>
<!-- 10&#45;&gt;14 -->
<g id="edge18" class="edge">
<title>10&#45;&gt;14</title>
<path fill="none" stroke="black" d="M468.7,-287.7C470.6,-280.32 472.86,-271.52 474.99,-263.25"/>
<polygon fill="black" stroke="black" points="478.37,-264.13 477.47,-253.57 471.59,-262.38 478.37,-264.13"/>
</g>
<!-- 11&#45;&gt;2 -->
<g id="edge21" class="edge">
<title>11&#45;&gt;2</title>
<path fill="none" stroke="black" d="M534.99,-219.36C532.08,-218.13 529.13,-216.99 526.25,-216 459.74,-193.23 436.83,-201.07 366.7,-180.47"/>
<polygon fill="black" stroke="black" points="368.03,-177.22 357.45,-177.66 366,-183.92 368.03,-177.22"/>
</g>
<!-- 11&#45;&gt;8 -->
<g id="edge19" class="edge">
<title>11&#45;&gt;8</title>
<path fill="none" stroke="black" d="M573.8,-215.94C580.23,-205.84 587.98,-192.59 593.25,-180 601.47,-160.35 607.63,-137.08 611.65,-119.27"/>
<polygon fill="black" stroke="black" points="615.04,-120.17 613.72,-109.66 608.19,-118.7 615.04,-120.17"/>
</g>
<!-- 12 -->
<g id="node13" class="node">
<title>12</title>
<polygon fill="none" stroke="black" points="551.25,-180 497.25,-180 497.25,-144 551.25,-144 551.25,-180"/>
<text text-anchor="middle" x="524.25" y="-157.32" font-family="Times,serif" font-size="14.00">kv</text>
</g>
<!-- 11&#45;&gt;12 -->
<g id="edge20" class="edge">
<title>11&#45;&gt;12</title>
<path fill="none" stroke="black" d="M552.86,-215.7C548.67,-207.98 543.64,-198.71 538.97,-190.11"/>
<polygon fill="black" stroke="black" points="542.1,-188.55 534.26,-181.43 535.95,-191.89 542.1,-188.55"/>
</g>
<!-- 12&#45;&gt;4 -->
<g id="edge23" class="edge">
<title>12&#45;&gt;4</title>
<path fill="none" stroke="black" d="M523.84,-143.73C522.69,-124.86 518.67,-94.35 505.25,-72 498.71,-61.12 489.13,-51.41 479.4,-43.37"/>
<polygon fill="black" stroke="black" points="481.75,-40.76 471.7,-37.39 477.46,-46.29 481.75,-40.76"/>
</g>
<!-- 12&#45;&gt;8 -->
<g id="edge22" class="edge">
<title>12&#45;&gt;8</title>
<path fill="none" stroke="black" d="M547.24,-143.7C558.64,-135.11 572.6,-124.61 585.05,-115.24"/>
<polygon fill="black" stroke="black" points="587.11,-118.07 592.99,-109.26 582.9,-112.47 587.11,-118.07"/>
</g>
<!-- 13 -->
<g id="node14" class="node">
<title>13</title>
<polygon fill="none" stroke="black" points="496.25,-108 442.25,-108 442.25,-72 496.25,-72 496.25,-108"/>
<text text-anchor="middle" x="469.25" y="-85.33" font-family="Times,serif" font-size="14.00">starc</text>
</g>
<!-- 12&#45;&gt;13 -->
<g id="edge24" class="edge">
<title>12&#45;&gt;13</title>
<path fill="none" stroke="black" d="M510.65,-143.7C504.33,-135.64 496.67,-125.89 489.66,-116.98"/>
<polygon fill="black" stroke="black" points="492.55,-115 483.62,-109.29 487.05,-119.32 492.55,-115"/>
</g>
<!-- 14&#45;&gt;2 -->
<g id="edge26" class="edge">
<title>14&#45;&gt;2</title>
<path fill="none" stroke="black" d="M447.14,-217.64C423.47,-207.29 392.06,-193.54 366.66,-182.43"/>
<polygon fill="black" stroke="black" points="368.13,-179.25 357.57,-178.45 365.33,-185.67 368.13,-179.25"/>
</g>
<!-- 14&#45;&gt;7 -->
<g id="edge27" class="edge">
<title>14&#45;&gt;7</title>
<path fill="none" stroke="black" d="M468.41,-215.7C461.96,-207.64 454.17,-197.89 447.04,-188.98"/>
<polygon fill="black" stroke="black" points="449.86,-186.91 440.88,-181.29 444.39,-191.28 449.86,-186.91"/>
</g>
<!-- 14&#45;&gt;8 -->
<g id="edge25" class="edge">
<title>14&#45;&gt;8</title>
<path fill="none" stroke="black" d="M513.68,-215.71C528.85,-206.4 546.66,-193.96 560.25,-180 578.09,-161.67 593.4,-136.91 603.65,-118.16"/>
<polygon fill="black" stroke="black" points="606.65,-119.98 608.24,-109.51 600.46,-116.71 606.65,-119.98"/>
</g>
<!-- 15&#45;&gt;1 -->
<g id="edge28" class="edge">
<title>15&#45;&gt;1</title>
<path fill="none" stroke="black" d="M85.94,-431.9C92.49,-402.31 106.96,-339.72 123.25,-288 125.82,-279.84 128.95,-271.1 131.97,-263.13"/>
<polygon fill="black" stroke="black" points="135.19,-264.5 135.54,-253.91 128.67,-261.97 135.19,-264.5"/>
</g>
<!-- 15&#45;&gt;5 -->
<g id="edge29" class="edge">
<title>15&#45;&gt;5</title>
<path fill="none" stroke="black" d="M109.74,-442.48C154.67,-431.82 245.17,-410.34 308.41,-395.34"/>
<polygon fill="black" stroke="black" points="309.09,-398.77 318.01,-393.06 307.48,-391.96 309.09,-398.77"/>
</g>
<!-- 16 -->
<g id="node17" class="node">
<title>16</title>
<polygon fill="none" stroke="black" points="58.25,-396 4.25,-396 4.25,-360 58.25,-360 58.25,-396"/>
<text text-anchor="middle" x="31.25" y="-373.32" font-family="Times,serif" font-size="14.00">rope</text>
</g>
<!-- 15&#45;&gt;16 -->
<g id="edge30" class="edge">
<title>15&#45;&gt;16</title>
<path fill="none" stroke="black" d="M69.64,-431.7C63.84,-423.73 56.82,-414.1 50.39,-405.26"/>
<polygon fill="black" stroke="black" points="53.32,-403.35 44.6,-397.33 47.66,-407.47 53.32,-403.35"/>
</g>
<!-- 17 -->
<g id="node18" class="node">
<title>17</title>
<polygon fill="none" stroke="black" points="62.5,-324 0,-324 0,-288 62.5,-288 62.5,-324"/>
<text text-anchor="middle" x="31.25" y="-301.32" font-family="Times,serif" font-size="14.00">names</text>
</g>
<!-- 16&#45;&gt;17 -->
<g id="edge31" class="edge">
<title>16&#45;&gt;17</title>
<path fill="none" stroke="black" d="M31.25,-359.7C31.25,-352.41 31.25,-343.73 31.25,-335.54"/>
<polygon fill="black" stroke="black" points="34.75,-335.62 31.25,-325.62 27.75,-335.62 34.75,-335.62"/>
</g>
<!-- 18 -->
<g id="node19" class="node">
<title>18</title>
<polygon fill="none" stroke="black" points="331.88,-468 256.62,-468 256.62,-432 331.88,-432 331.88,-468"/>
<text text-anchor="middle" x="294.25" y="-445.32" font-family="Times,serif" font-size="14.00">cart&#45;app</text>
</g>
<!-- 18&#45;&gt;2 -->
<g id="edge32" class="edge">
<title>18&#45;&gt;2</title>
<path fill="none" stroke="black" d="M295.96,-431.54C300.64,-383.76 313.68,-250.51 319.45,-191.61"/>
<polygon fill="black" stroke="black" points="322.92,-192.03 320.42,-181.74 315.96,-191.35 322.92,-192.03"/>
</g>
<!-- 18&#45;&gt;5 -->
<g id="edge33" class="edge">
<title>18&#45;&gt;5</title>
<path fill="none" stroke="black" stroke-dasharray="1,5" d="M314.77,-431.7C324.84,-423.2 337.16,-412.81 348.18,-403.51"/>
<polygon fill="black" stroke="black" points="350.14,-406.45 355.52,-397.32 345.62,-401.09 350.14,-406.45"/>
</g>
<!-- 19 -->
<g id="node20" class="node">
<title>19</title>
<polygon fill="none" stroke="black" points="311.5,-540 201,-540 201,-504 311.5,-504 311.5,-540"/>
<text text-anchor="middle" x="256.25" y="-517.33" font-family="Times,serif" font-size="14.00">cart&#45;frontend</text>
</g>
<!-- 19&#45;&gt;18 -->
<g id="edge34" class="edge">
<title>19&#45;&gt;18</title>
<path fill="none" stroke="black" d="M265.64,-503.7C269.83,-495.98 274.86,-486.71 279.53,-478.11"/>
<polygon fill="black" stroke="black" points="282.55,-479.89 284.24,-469.43 276.4,-476.55 282.55,-479.89"/>
</g>
<!-- 20 -->
<g id="node21" class="node">
<title>20</title>
<polygon fill="none" stroke="black" points="424.62,-540 329.88,-540 329.88,-504 424.62,-504 424.62,-540"/>
<text text-anchor="middle" x="377.25" y="-517.33" font-family="Times,serif" font-size="14.00">cart&#45;server</text>
</g>
<!-- 20&#45;&gt;5 -->
<g id="edge36" class="edge">
<title>20&#45;&gt;5</title>
<path fill="none" stroke="black" d="M377.25,-503.59C377.25,-479.61 377.25,-436.14 377.25,-407.42"/>
<polygon fill="black" stroke="black" points="380.75,-407.62 377.25,-397.62 373.75,-407.62 380.75,-407.62"/>
</g>
<!-- 20&#45;&gt;18 -->
<g id="edge35" class="edge">
<title>20&#45;&gt;18</title>
<path fill="none" stroke="black" d="M356.73,-503.7C346.66,-495.2 334.34,-484.81 323.32,-475.51"/>
<polygon fill="black" stroke="black" points="325.88,-473.09 315.98,-469.32 321.36,-478.45 325.88,-473.09"/>
</g>
<!-- 21 -->
<g id="node22" class="node">
<title>21</title>
<polygon fill="none" stroke="black" points="496.25,-540 442.25,-540 442.25,-504 496.25,-504 496.25,-540"/>
<text text-anchor="middle" x="469.25" y="-517.33" font-family="Times,serif" font-size="14.00">cli</text>
</g>
<!-- 22 -->
<g id="node23" class="node">
<title>22</title>
<polygon fill="none" stroke="black" points="496.75,-468 441.75,-468 441.75,-432 496.75,-432 496.75,-468"/>
<text text-anchor="middle" x="469.25" y="-445.32" font-family="Times,serif" font-size="14.00">nasty</text>
</g>
<!-- 21&#45;&gt;22 -->
<g id="edge37" class="edge">
<title>21&#45;&gt;22</title>
<path fill="none" stroke="black" d="M469.25,-503.7C469.25,-496.41 469.25,-487.73 469.25,-479.54"/>
<polygon fill="black" stroke="black" points="472.75,-479.62 469.25,-469.62 465.75,-479.62 472.75,-479.62"/>
</g>
<!-- 23 -->
<g id="node24" class="node">
<title>23</title>
<polygon fill="none" stroke="black" points="78.38,-540 6.12,-540 6.12,-504 78.38,-504 78.38,-540"/>
<text text-anchor="middle" x="42.25" y="-517.33" font-family="Times,serif" font-size="14.00">daemon</text>
</g>
<!-- 23&#45;&gt;15 -->
<g id="edge39" class="edge">
<title>23&#45;&gt;15</title>
<path fill="none" stroke="black" d="M52.14,-503.7C56.59,-495.9 61.96,-486.51 66.92,-477.83"/>
<polygon fill="black" stroke="black" points="69.8,-479.84 71.73,-469.42 63.72,-476.36 69.8,-479.84"/>
</g>
<!-- 23&#45;&gt;16 -->
<g id="edge38" class="edge">
<title>23&#45;&gt;16</title>
<path fill="none" stroke="black" d="M40.9,-503.59C39.04,-479.61 35.68,-436.14 33.45,-407.42"/>
<polygon fill="black" stroke="black" points="36.95,-407.32 32.69,-397.62 29.98,-407.86 36.95,-407.32"/>
</g>
<!-- 24 -->
<g id="node25" class="node">
<title>24</title>
<polygon fill="none" stroke="black" points="232.75,-324 165.75,-324 165.75,-288 232.75,-288 232.75,-324"/>
<text text-anchor="middle" x="199.25" y="-301.32" font-family="Times,serif" font-size="14.00">fetcher</text>
</g>
<!-- 24&#45;&gt;1 -->
<g id="edge41" class="edge">
<title>24&#45;&gt;1</title>
<path fill="none" stroke="black" d="M185.41,-287.7C178.96,-279.64 171.17,-269.89 164.04,-260.98"/>
<polygon fill="black" stroke="black" points="166.86,-258.91 157.88,-253.29 161.39,-263.28 166.86,-258.91"/>
</g>
<!-- 24&#45;&gt;2 -->
<g id="edge40" class="edge">
<title>24&#45;&gt;2</title>
<path fill="none" stroke="black" d="M205.71,-287.82C213.48,-268.76 227.92,-237.81 247.25,-216 257.1,-204.89 269.7,-194.85 281.76,-186.57"/>
<polygon fill="black" stroke="black" points="283.55,-189.58 289.98,-181.16 279.7,-183.73 283.55,-189.58"/>
</g>
<!-- 24&#45;&gt;14 -->
<g id="edge42" class="edge">
<title>24&#45;&gt;14</title>
<path fill="none" stroke="black" d="M232.91,-299.19C277.46,-291.15 358.53,-275.27 435.97,-252.46"/>
<polygon fill="black" stroke="black" points="436.84,-255.85 445.42,-249.63 434.83,-249.15 436.84,-255.85"/>
</g>
<!-- 25 -->
<g id="node26" class="node">
<title>25</title>
<polygon fill="none" stroke="black" points="588.75,-324 509.75,-324 509.75,-288 588.75,-288 588.75,-324"/>
<text text-anchor="middle" x="549.25" y="-301.32" font-family="Times,serif" font-size="14.00">migrator</text>
</g>
<!-- 25&#45;&gt;11 -->
<g id="edge43" class="edge">
<title>25&#45;&gt;11</title>
<path fill="none" stroke="black" d="M552.46,-287.7C553.83,-280.32 555.47,-271.52 557,-263.25"/>
<polygon fill="black" stroke="black" points="560.41,-264.06 558.8,-253.59 553.53,-262.79 560.41,-264.06"/>
</g>
</g>
</svg>
