<?xml version="1.0" encoding="UTF-8" standalone="no"?>
<!DOCTYPE svg PUBLIC "-//W3C//DTD SVG 1.1//EN"
 "http://www.w3.org/Graphics/SVG/1.1/DTD/svg11.dtd">
<!-- Generated by graphviz version 12.1.1 (0)
 -->
<!-- Pages: 1 -->
<svg width="578pt" height="548pt"
 viewBox="0.00 0.00 577.87 548.00" xmlns="http://www.w3.org/2000/svg" xmlns:xlink="http://www.w3.org/1999/xlink">
<g id="graph0" class="graph" transform="scale(1 1) rotate(0) translate(4 544)">
<polygon fill="white" stroke="none" points="-4,4 -4,-544 573.87,-544 573.87,4 -4,4"/>
<!-- 0 -->
<g id="node1" class="node">
<title>0</title>
<polygon fill="none" stroke="black" points="162.25,-540 108.25,-540 108.25,-504 162.25,-504 162.25,-540"/>
<text text-anchor="middle" x="135.25" y="-517.33" font-family="Times,serif" font-size="14.00">api</text>
</g>
<!-- 1 -->
<g id="node2" class="node">
<title>1</title>
<polygon fill="none" stroke="black" points="179,-252 107.5,-252 107.5,-216 179,-216 179,-252"/>
<text text-anchor="middle" x="143.25" y="-229.32" font-family="Times,serif" font-size="14.00">mollusk</text>
</g>
<!-- 0&#45;&gt;1 -->
<g id="edge1" class="edge">
<title>0&#45;&gt;1</title>
<path fill="none" stroke="black" d="M135.74,-503.54C137.07,-455.76 140.8,-322.51 142.45,-263.61"/>
<polygon fill="black" stroke="black" points="145.94,-263.84 142.73,-253.74 138.95,-263.64 145.94,-263.84"/>
</g>
<!-- 5 -->
<g id="node6" class="node">
<title>5</title>
<polygon fill="none" stroke="black" points="280.75,-396 165.75,-396 165.75,-360 280.75,-360 280.75,-396"/>
<text text-anchor="middle" x="223.25" y="-373.32" font-family="Times,serif" font-size="14.00">prime&#45;domain</text>
</g>
<!-- 0&#45;&gt;5 -->
<g id="edge2" class="edge">
<title>0&#45;&gt;5</title>
<path fill="none" stroke="black" d="M146.04,-503.59C161.16,-479.18 188.8,-434.58 206.58,-405.89"/>
<polygon fill="black" stroke="black" points="209.56,-407.74 211.85,-397.4 203.61,-404.05 209.56,-407.74"/>
</g>
<!-- 13 -->
<g id="node14" class="node">
<title>13</title>
<polygon fill="none" stroke="black" points="109.25,-468 55.25,-468 55.25,-432 109.25,-432 109.25,-468"/>
<text text-anchor="middle" x="82.25" y="-445.32" font-family="Times,serif" font-size="14.00">tasks</text>
</g>
<!-- 0&#45;&gt;13 -->
<g id="edge3" class="edge">
<title>0&#45;&gt;13</title>
<path fill="none" stroke="black" d="M122.15,-503.7C116.12,-495.73 108.83,-486.1 102.14,-477.26"/>
<polygon fill="black" stroke="black" points="104.94,-475.17 96.11,-469.31 99.36,-479.4 104.94,-475.17"/>
</g>
<!-- 2 -->
<g id="node3" class="node">
<title>2</title>
<polygon fill="none" stroke="black" points="332.75,-180 265.75,-180 265.75,-144 332.75,-144 332.75,-180"/>
<text text-anchor="middle" x="299.25" y="-157.32" font-family="Times,serif" font-size="14.00">models</text>
</g>
<!-- 1&#45;&gt;2 -->
<g id="edge4" class="edge">
<title>1&#45;&gt;2</title>
<path fill="none" stroke="black" d="M179.43,-216.76C202.01,-206.63 231.23,-193.52 255.16,-182.78"/>
<polygon fill="black" stroke="black" points="256.33,-186.1 264.02,-178.81 253.46,-179.71 256.33,-186.1"/>
</g>
<!-- 3 -->
<g id="node4" class="node">
<title>3</title>
<polygon fill="none" stroke="black" points="326.25,-108 272.25,-108 272.25,-72 326.25,-72 326.25,-108"/>
<text text-anchor="middle" x="299.25" y="-85.33" font-family="Times,serif" font-size="14.00">dvf</text>
</g>
<!-- 2&#45;&gt;3 -->
<g id="edge5" class="edge">
<title>2&#45;&gt;3</title>
<path fill="none" stroke="black" d="M299.25,-143.7C299.25,-136.41 299.25,-127.73 299.25,-119.54"/>
<polygon fill="black" stroke="black" points="302.75,-119.62 299.25,-109.62 295.75,-119.62 302.75,-119.62"/>
</g>
<!-- 4 -->
<g id="node5" class="node">
<title>4</title>
<polygon fill="none" stroke="black" points="362.25,-36 292.25,-36 292.25,0 362.25,0 362.25,-36"/>
<text text-anchor="middle" x="327.25" y="-13.32" font-family="Times,serif" font-size="14.00">slugger</text>
</g>
<!-- 3&#45;&gt;4 -->
<g id="edge6" class="edge">
<title>3&#45;&gt;4</title>
<path fill="none" stroke="black" d="M306.17,-71.7C309.19,-64.15 312.8,-55.12 316.18,-46.68"/>
<polygon fill="black" stroke="black" points="319.38,-48.09 319.85,-37.51 312.88,-45.49 319.38,-48.09"/>
</g>
<!-- 5&#45;&gt;2 -->
<g id="edge8" class="edge">
<title>5&#45;&gt;2</title>
<path fill="none" stroke="black" d="M229.43,-359.82C233.15,-349.45 237.99,-335.97 242.25,-324 258.82,-277.48 277.96,-223.35 289.31,-191.2"/>
<polygon fill="black" stroke="black" points="292.58,-192.42 292.61,-181.83 285.98,-190.09 292.58,-192.42"/>
</g>
<!-- 6 -->
<g id="node7" class="node">
<title>6</title>
<polygon fill="none" stroke="black" points="524.25,-108 470.25,-108 470.25,-72 524.25,-72 524.25,-108"/>
<text text-anchor="middle" x="497.25" y="-85.33" font-family="Times,serif" font-size="14.00">hex</text>
</g>
<!-- 5&#45;&gt;6 -->
<g id="edge7" class="edge">
<title>5&#45;&gt;6</title>
<path fill="none" stroke="black" d="M281.23,-375.99C363.94,-373.18 509.44,-362.71 542.25,-324 558.36,-305 596.92,-308.24 538.25,-144 534.82,-134.39 528.93,-125.15 522.66,-117.15"/>
<polygon fill="black" stroke="black" points="525.36,-114.92 516.24,-109.53 520.01,-119.43 525.36,-114.92"/>
</g>
<!-- 8 -->
<g id="node9" class="node">
<title>8</title>
<polygon fill="none" stroke="black" points="436.12,-324 380.38,-324 380.38,-288 436.12,-288 436.12,-324"/>
<text text-anchor="middle" x="408.25" y="-301.32" font-family="Times,serif" font-size="14.00">repos</text>
</g>
<!-- 5&#45;&gt;8 -->
<g id="edge9" class="edge">
<title>5&#45;&gt;8</title>
<path fill="none" stroke="black" d="M269.46,-359.52C300.2,-347.88 340.15,-332.77 369.28,-321.74"/>
<polygon fill="black" stroke="black" points="370.35,-325.08 378.46,-318.27 367.87,-318.54 370.35,-325.08"/>
</g>
<!-- 7 -->
<g id="node8" class="node">
<title>7</title>
<polygon fill="none" stroke="black" points="527.75,-36 466.75,-36 466.75,0 527.75,0 527.75,-36"/>
<text text-anchor="middle" x="497.25" y="-13.32" font-family="Times,serif" font-size="14.00">health</text>
</g>
<!-- 6&#45;&gt;7 -->
<g id="edge10" class="edge">
<title>6&#45;&gt;7</title>
<path fill="none" stroke="black" d="M497.25,-71.7C497.25,-64.41 497.25,-55.73 497.25,-47.54"/>
<polygon fill="black" stroke="black" points="500.75,-47.62 497.25,-37.62 493.75,-47.62 500.75,-47.62"/>
</g>
<!-- 8&#45;&gt;2 -->
<g id="edge13" class="edge">
<title>8&#45;&gt;2</title>
<path fill="none" stroke="black" d="M412.79,-287.76C416.78,-268.64 420.02,-237.65 406.25,-216 392.38,-194.21 366.66,-181.07 343.92,-173.33"/>
<polygon fill="black" stroke="black" points="345.09,-170.03 334.5,-170.4 343.01,-176.71 345.09,-170.03"/>
</g>
<!-- 8&#45;&gt;6 -->
<g id="edge12" class="edge">
<title>8&#45;&gt;6</title>
<path fill="none" stroke="black" d="M436.38,-292.09C467.6,-277.64 513.92,-255.74 516.25,-252 541.91,-210.83 524.41,-152.12 510.23,-118.15"/>
<polygon fill="black" stroke="black" points="513.63,-117.19 506.41,-109.43 507.21,-119.99 513.63,-117.19"/>
</g>
<!-- 9 -->
<g id="node10" class="node">
<title>9</title>
<polygon fill="none" stroke="black" points="507.25,-252 453.25,-252 453.25,-216 507.25,-216 507.25,-252"/>
<text text-anchor="middle" x="480.25" y="-229.32" font-family="Times,serif" font-size="14.00">db</text>
</g>
<!-- 8&#45;&gt;9 -->
<g id="edge11" class="edge">
<title>8&#45;&gt;9</title>
<path fill="none" stroke="black" d="M426.05,-287.7C434.53,-279.45 444.84,-269.43 454.18,-260.35"/>
<polygon fill="black" stroke="black" points="456.59,-262.88 461.32,-253.4 451.71,-257.86 456.59,-262.88"/>
</g>
<!-- 12 -->
<g id="node13" class="node">
<title>12</title>
<polygon fill="none" stroke="black" points="397.25,-252 327.25,-252 327.25,-216 397.25,-216 397.25,-252"/>
<text text-anchor="middle" x="362.25" y="-229.32" font-family="Times,serif" font-size="14.00">storage</text>
</g>
<!-- 8&#45;&gt;12 -->
<g id="edge14" class="edge">
<title>8&#45;&gt;12</title>
<path fill="none" stroke="black" d="M396.88,-287.7C391.7,-279.81 385.45,-270.3 379.69,-261.55"/>
<polygon fill="black" stroke="black" points="382.74,-259.8 374.32,-253.37 376.89,-263.65 382.74,-259.8"/>
</g>
<!-- 9&#45;&gt;2 -->
<g id="edge17" class="edge">
<title>9&#45;&gt;2</title>
<path fill="none" stroke="black" d="M452.95,-221.54C448.39,-219.67 443.69,-217.76 439.25,-216 407.36,-203.36 371.15,-189.66 343.54,-179.36"/>
<polygon fill="black" stroke="black" points="345.04,-176.19 334.44,-175.98 342.6,-182.75 345.04,-176.19"/>
</g>
<!-- 9&#45;&gt;6 -->
<g id="edge15" class="edge">
<title>9&#45;&gt;6</title>
<path fill="none" stroke="black" d="M482.33,-215.59C485.2,-191.61 490.41,-148.14 493.85,-119.42"/>
<polygon fill="black" stroke="black" points="497.31,-119.96 495.02,-109.61 490.36,-119.13 497.31,-119.96"/>
</g>
<!-- 10 -->
<g id="node11" class="node">
<title>10</title>
<polygon fill="none" stroke="black" points="431.25,-180 377.25,-180 377.25,-144 431.25,-144 431.25,-180"/>
<text text-anchor="middle" x="404.25" y="-157.32" font-family="Times,serif" font-size="14.00">kv</text>
</g>
<!-- 9&#45;&gt;10 -->
<g id="edge16" class="edge">
<title>9&#45;&gt;10</title>
<path fill="none" stroke="black" d="M461.46,-215.7C452.42,-207.37 441.41,-197.22 431.47,-188.07"/>
<polygon fill="black" stroke="black" points="433.92,-185.57 424.2,-181.37 429.18,-190.72 433.92,-185.57"/>
</g>
<!-- 10&#45;&gt;4 -->
<g id="edge19" class="edge">
<title>10&#45;&gt;4</title>
<path fill="none" stroke="black" d="M393.97,-143.94C387.82,-133.62 379.93,-120.14 373.25,-108 362,-87.56 349.91,-64.1 340.95,-46.4"/>
<polygon fill="black" stroke="black" points="344.11,-44.91 336.49,-37.55 337.86,-48.06 344.11,-44.91"/>
</g>
<!-- 10&#45;&gt;6 -->
<g id="edge18" class="edge">
<title>10&#45;&gt;6</title>
<path fill="none" stroke="black" d="M427.24,-143.7C438.64,-135.11 452.6,-124.61 465.05,-115.24"/>
<polygon fill="black" stroke="black" points="467.11,-118.07 472.99,-109.26 462.9,-112.47 467.11,-118.07"/>
</g>
<!-- 11 -->
<g id="node12" class="node">
<title>11</title>
<polygon fill="none" stroke="black" points="436.25,-108 382.25,-108 382.25,-72 436.25,-72 436.25,-108"/>
<text text-anchor="middle" x="409.25" y="-85.33" font-family="Times,serif" font-size="14.00">starc</text>
</g>
<!-- 10&#45;&gt;11 -->
<g id="edge20" class="edge">
<title>10&#45;&gt;11</title>
<path fill="none" stroke="black" d="M405.49,-143.7C406.01,-136.41 406.63,-127.73 407.21,-119.54"/>
<polygon fill="black" stroke="black" points="410.7,-119.84 407.92,-109.61 403.72,-119.34 410.7,-119.84"/>
</g>
<!-- 12&#45;&gt;2 -->
<g id="edge22" class="edge">
<title>12&#45;&gt;2</title>
<path fill="none" stroke="black" d="M346.68,-215.7C339.28,-207.47 330.28,-197.48 322.13,-188.42"/>
<polygon fill="black" stroke="black" points="324.95,-186.32 315.66,-181.23 319.74,-191 324.95,-186.32"/>
</g>
<!-- 12&#45;&gt;6 -->
<g id="edge21" class="edge">
<title>12&#45;&gt;6</title>
<path fill="none" stroke="black" d="M393.68,-215.71C408.85,-206.4 426.66,-193.96 440.25,-180 458.09,-161.67 473.4,-136.91 483.65,-118.16"/>
<polygon fill="black" stroke="black" points="486.65,-119.98 488.24,-109.51 480.46,-116.71 486.65,-119.98"/>
</g>
<!-- 13&#45;&gt;1 -->
<g id="edge23" class="edge">
<title>13&#45;&gt;1</title>
<path fill="none" stroke="black" d="M85.94,-431.9C92.49,-402.31 106.96,-339.72 123.25,-288 125.82,-279.84 128.95,-271.1 131.97,-263.13"/>
<polygon fill="black" stroke="black" points="135.19,-264.5 135.54,-253.91 128.67,-261.97 135.19,-264.5"/>
</g>
<!-- 13&#45;&gt;5 -->
<g id="edge24" class="edge">
<title>13&#45;&gt;5</title>
<path fill="none" stroke="black" d="M109.44,-435.5C128.87,-425.86 155.47,-412.65 178.06,-401.43"/>
<polygon fill="black" stroke="black" points="179.37,-404.69 186.77,-397.11 176.26,-398.42 179.37,-404.69"/>
</g>
<!-- 14 -->
<g id="node15" class="node">
<title>14</title>
<polygon fill="none" stroke="black" points="58.25,-396 4.25,-396 4.25,-360 58.25,-360 58.25,-396"/>
<text text-anchor="middle" x="31.25" y="-373.32" font-family="Times,serif" font-size="14.00">rope</text>
</g>
<!-- 13&#45;&gt;14 -->
<g id="edge25" class="edge">
<title>13&#45;&gt;14</title>
<path fill="none" stroke="black" d="M69.64,-431.7C63.84,-423.73 56.82,-414.1 50.39,-405.26"/>
<polygon fill="black" stroke="black" points="53.32,-403.35 44.6,-397.33 47.66,-407.47 53.32,-403.35"/>
</g>
<!-- 15 -->
<g id="node16" class="node">
<title>15</title>
<polygon fill="none" stroke="black" points="62.5,-324 0,-324 0,-288 62.5,-288 62.5,-324"/>
<text text-anchor="middle" x="31.25" y="-301.32" font-family="Times,serif" font-size="14.00">names</text>
</g>
<!-- 14&#45;&gt;15 -->
<g id="edge26" class="edge">
<title>14&#45;&gt;15</title>
<path fill="none" stroke="black" d="M31.25,-359.7C31.25,-352.41 31.25,-343.73 31.25,-335.54"/>
<polygon fill="black" stroke="black" points="34.75,-335.62 31.25,-325.62 27.75,-335.62 34.75,-335.62"/>
</g>
<!-- 16 -->
<g id="node17" class="node">
<title>16</title>
<polygon fill="none" stroke="black" points="338.88,-468 263.62,-468 263.62,-432 338.88,-432 338.88,-468"/>
<text text-anchor="middle" x="301.25" y="-445.32" font-family="Times,serif" font-size="14.00">cart&#45;app</text>
</g>
<!-- 16&#45;&gt;2 -->
<g id="edge27" class="edge">
<title>16&#45;&gt;2</title>
<path fill="none" stroke="black" d="M301.13,-431.54C300.79,-383.76 299.86,-250.51 299.45,-191.61"/>
<polygon fill="black" stroke="black" points="302.95,-191.72 299.38,-181.75 295.95,-191.77 302.95,-191.72"/>
</g>
<!-- 16&#45;&gt;5 -->
<g id="edge28" class="edge">
<title>16&#45;&gt;5</title>
<path fill="none" stroke="black" stroke-dasharray="1,5" d="M281.97,-431.7C272.59,-423.28 261.16,-413.02 250.87,-403.79"/>
<polygon fill="black" stroke="black" points="253.49,-401.43 243.71,-397.36 248.81,-406.64 253.49,-401.43"/>
</g>
<!-- 17 -->
<g id="node18" class="node">
<title>17</title>
<polygon fill="none" stroke="black" points="403.5,-540 293,-540 293,-504 403.5,-504 403.5,-540"/>
<text text-anchor="middle" x="348.25" y="-517.33" font-family="Times,serif" font-size="14.00">cart&#45;frontend</text>
</g>
<!-- 17&#45;&gt;16 -->
<g id="edge29" class="edge">
<title>17&#45;&gt;16</title>
<path fill="none" stroke="black" d="M336.63,-503.7C331.34,-495.81 324.95,-486.3 319.07,-477.55"/>
<polygon fill="black" stroke="black" points="322.06,-475.71 313.58,-469.36 316.25,-479.61 322.06,-475.71"/>
</g>
<!-- 18 -->
<g id="node19" class="node">
<title>18</title>
<polygon fill="none" stroke="black" points="274.62,-540 179.88,-540 179.88,-504 274.62,-504 274.62,-540"/>
<text text-anchor="middle" x="227.25" y="-517.33" font-family="Times,serif" font-size="14.00">cart&#45;server</text>
</g>
<!-- 18&#45;&gt;5 -->
<g id="edge31" class="edge">
<title>18&#45;&gt;5</title>
<path fill="none" stroke="black" d="M226.76,-503.59C226.08,-479.61 224.86,-436.14 224.05,-407.42"/>
<polygon fill="black" stroke="black" points="227.55,-407.52 223.77,-397.62 220.56,-407.72 227.55,-407.52"/>
</g>
<!-- 18&#45;&gt;16 -->
<g id="edge30" class="edge">
<title>18&#45;&gt;16</title>
<path fill="none" stroke="black" d="M245.54,-503.7C254.35,-495.37 265.07,-485.22 274.75,-476.07"/>
<polygon fill="black" stroke="black" points="276.95,-478.8 281.81,-469.39 272.14,-473.72 276.95,-478.8"/>
</g>
<!-- 19 -->
<g id="node20" class="node">
<title>19</title>
<polygon fill="none" stroke="black" points="475.25,-540 421.25,-540 421.25,-504 475.25,-504 475.25,-540"/>
<text text-anchor="middle" x="448.25" y="-517.33" font-family="Times,serif" font-size="14.00">cli</text>
</g>
<!-- 20 -->
<g id="node21" class="node">
<title>20</title>
<polygon fill="none" stroke="black" points="475.75,-468 420.75,-468 420.75,-432 475.75,-432 475.75,-468"/>
<text text-anchor="middle" x="448.25" y="-445.32" font-family="Times,serif" font-size="14.00">nasty</text>
</g>
<!-- 19&#45;&gt;20 -->
<g id="edge32" class="edge">
<title>19&#45;&gt;20</title>
<path fill="none" stroke="black" d="M448.25,-503.7C448.25,-496.41 448.25,-487.73 448.25,-479.54"/>
<polygon fill="black" stroke="black" points="451.75,-479.62 448.25,-469.62 444.75,-479.62 451.75,-479.62"/>
</g>
<!-- 21 -->
<g id="node22" class="node">
<title>21</title>
<polygon fill="none" stroke="black" points="79.38,-540 7.12,-540 7.12,-504 79.38,-504 79.38,-540"/>
<text text-anchor="middle" x="43.25" y="-517.33" font-family="Times,serif" font-size="14.00">daemon</text>
</g>
<!-- 21&#45;&gt;13 -->
<g id="edge34" class="edge">
<title>21&#45;&gt;13</title>
<path fill="none" stroke="black" d="M52.89,-503.7C57.19,-495.98 62.35,-486.71 67.14,-478.11"/>
<polygon fill="black" stroke="black" points="70.17,-479.87 71.98,-469.43 64.06,-476.46 70.17,-479.87"/>
</g>
<!-- 21&#45;&gt;14 -->
<g id="edge33" class="edge">
<title>21&#45;&gt;14</title>
<path fill="none" stroke="black" d="M41.78,-503.59C39.75,-479.61 36.08,-436.14 33.65,-407.42"/>
<polygon fill="black" stroke="black" points="37.15,-407.29 32.82,-397.62 30.18,-407.88 37.15,-407.29"/>
</g>
<!-- 22 -->
<g id="node23" class="node">
<title>22</title>
<polygon fill="none" stroke="black" points="232.75,-324 165.75,-324 165.75,-288 232.75,-288 232.75,-324"/>
<text text-anchor="middle" x="199.25" y="-301.32" font-family="Times,serif" font-size="14.00">fetcher</text>
</g>
<!-- 22&#45;&gt;1 -->
<g id="edge36" class="edge">
<title>22&#45;&gt;1</title>
<path fill="none" stroke="black" d="M185.41,-287.7C178.96,-279.64 171.17,-269.89 164.04,-260.98"/>
<polygon fill="black" stroke="black" points="166.86,-258.91 157.88,-253.29 161.39,-263.28 166.86,-258.91"/>
</g>
<!-- 22&#45;&gt;2 -->
<g id="edge35" class="edge">
<title>22&#45;&gt;2</title>
<path fill="none" stroke="black" d="M206.77,-287.76C215.27,-269.18 230.17,-239.17 247.25,-216 254.36,-206.35 263.17,-196.72 271.5,-188.36"/>
<polygon fill="black" stroke="black" points="273.79,-191.02 278.51,-181.54 268.91,-186.01 273.79,-191.02"/>
</g>
<!-- 22&#45;&gt;12 -->
<g id="edge37" class="edge">
<title>22&#45;&gt;12</title>
<path fill="none" stroke="black" d="M233.02,-290.5C257.12,-280.15 289.81,-266.11 316.28,-254.74"/>
<polygon fill="black" stroke="black" points="317.63,-257.97 325.44,-250.81 314.87,-251.54 317.63,-257.97"/>
</g>
<!-- 23 -->
<g id="node24" class="node">
<title>23</title>
<polygon fill="none" stroke="black" points="532.75,-324 453.75,-324 453.75,-288 532.75,-288 532.75,-324"/>
<text text-anchor="middle" x="493.25" y="-301.32" font-family="Times,serif" font-size="14.00">migrator</text>
</g>
<!-- 23&#45;&gt;9 -->
<g id="edge38" class="edge">
<title>23&#45;&gt;9</title>
<path fill="none" stroke="black" d="M490.04,-287.7C488.67,-280.32 487.03,-271.52 485.5,-263.25"/>
<polygon fill="black" stroke="black" points="488.97,-262.79 483.7,-253.59 482.09,-264.06 488.97,-262.79"/>
</g>
</g>
</svg>
