<?xml version="1.0" encoding="UTF-8" standalone="no"?>
<!DOCTYPE svg PUBLIC "-//W3C//DTD SVG 1.1//EN"
 "http://www.w3.org/Graphics/SVG/1.1/DTD/svg11.dtd">
<!-- Generated by graphviz version 12.1.0 (0)
 -->
<!-- Pages: 1 -->
<svg width="589pt" height="548pt"
 viewBox="0.00 0.00 588.51 548.00" xmlns="http://www.w3.org/2000/svg" xmlns:xlink="http://www.w3.org/1999/xlink">
<g id="graph0" class="graph" transform="scale(1 1) rotate(0) translate(4 544)">
<polygon fill="white" stroke="none" points="-4,4 -4,-544 584.51,-544 584.51,4 -4,4"/>
<!-- 0 -->
<g id="node1" class="node">
<title>0</title>
<polygon fill="none" stroke="black" points="178.25,-540 124.25,-540 124.25,-504 178.25,-504 178.25,-540"/>
<text text-anchor="middle" x="151.25" y="-517.33" font-family="Times,serif" font-size="14.00">api</text>
</g>
<!-- 1 -->
<g id="node2" class="node">
<title>1</title>
<polygon fill="none" stroke="black" points="175,-252 103.5,-252 103.5,-216 175,-216 175,-252"/>
<text text-anchor="middle" x="139.25" y="-229.32" font-family="Times,serif" font-size="14.00">mollusk</text>
</g>
<!-- 0&#45;&gt;1 -->
<g id="edge1" class="edge">
<title>0&#45;&gt;1</title>
<path fill="none" stroke="black" d="M150.52,-503.54C148.51,-455.76 142.92,-322.51 140.45,-263.61"/>
<polygon fill="black" stroke="black" points="143.95,-263.59 140.04,-253.74 136.96,-263.88 143.95,-263.59"/>
</g>
<!-- 5 -->
<g id="node6" class="node">
<title>5</title>
<polygon fill="none" stroke="black" points="414.75,-396 299.75,-396 299.75,-360 414.75,-360 414.75,-396"/>
<text text-anchor="middle" x="357.25" y="-373.32" font-family="Times,serif" font-size="14.00">prime&#45;domain</text>
</g>
<!-- 0&#45;&gt;5 -->
<g id="edge2" class="edge">
<title>0&#45;&gt;5</title>
<path fill="none" stroke="black" d="M178.4,-504.63C194.65,-494.54 215.51,-481.08 233.25,-468 253.31,-453.21 256.23,-446.85 276.25,-432 289.94,-421.85 305.49,-411.42 319.28,-402.54"/>
<polygon fill="black" stroke="black" points="321.13,-405.5 327.68,-397.18 317.37,-399.6 321.13,-405.5"/>
</g>
<!-- 12 -->
<g id="node13" class="node">
<title>12</title>
<polygon fill="none" stroke="black" points="401.25,-252 331.25,-252 331.25,-216 401.25,-216 401.25,-252"/>
<text text-anchor="middle" x="366.25" y="-229.32" font-family="Times,serif" font-size="14.00">storage</text>
</g>
<!-- 0&#45;&gt;12 -->
<g id="edge3" class="edge">
<title>0&#45;&gt;12</title>
<path fill="none" stroke="black" d="M164.38,-503.54C200.75,-455.16 302.99,-319.15 346.38,-261.43"/>
<polygon fill="black" stroke="black" points="349.18,-263.54 352.39,-253.44 343.58,-259.33 349.18,-263.54"/>
</g>
<!-- 13 -->
<g id="node14" class="node">
<title>13</title>
<polygon fill="none" stroke="black" points="107.25,-468 53.25,-468 53.25,-432 107.25,-432 107.25,-468"/>
<text text-anchor="middle" x="80.25" y="-445.32" font-family="Times,serif" font-size="14.00">tasks</text>
</g>
<!-- 0&#45;&gt;13 -->
<g id="edge4" class="edge">
<title>0&#45;&gt;13</title>
<path fill="none" stroke="black" d="M133.7,-503.7C125.27,-495.39 115.02,-485.28 105.75,-476.14"/>
<polygon fill="black" stroke="black" points="108.25,-473.7 98.68,-469.17 103.34,-478.68 108.25,-473.7"/>
</g>
<!-- 2 -->
<g id="node3" class="node">
<title>2</title>
<polygon fill="none" stroke="black" points="336.75,-180 269.75,-180 269.75,-144 336.75,-144 336.75,-180"/>
<text text-anchor="middle" x="303.25" y="-157.32" font-family="Times,serif" font-size="14.00">models</text>
</g>
<!-- 1&#45;&gt;2 -->
<g id="edge5" class="edge">
<title>1&#45;&gt;2</title>
<path fill="none" stroke="black" d="M175.24,-217.64C199.85,-207.13 232.64,-193.14 258.87,-181.94"/>
<polygon fill="black" stroke="black" points="260.09,-185.23 267.91,-178.08 257.34,-178.79 260.09,-185.23"/>
</g>
<!-- 3 -->
<g id="node4" class="node">
<title>3</title>
<polygon fill="none" stroke="black" points="330.25,-108 276.25,-108 276.25,-72 330.25,-72 330.25,-108"/>
<text text-anchor="middle" x="303.25" y="-85.33" font-family="Times,serif" font-size="14.00">dvf</text>
</g>
<!-- 2&#45;&gt;3 -->
<g id="edge6" class="edge">
<title>2&#45;&gt;3</title>
<path fill="none" stroke="black" d="M303.25,-143.7C303.25,-136.41 303.25,-127.73 303.25,-119.54"/>
<polygon fill="black" stroke="black" points="306.75,-119.62 303.25,-109.62 299.75,-119.62 306.75,-119.62"/>
</g>
<!-- 4 -->
<g id="node5" class="node">
<title>4</title>
<polygon fill="none" stroke="black" points="395.25,-36 325.25,-36 325.25,0 395.25,0 395.25,-36"/>
<text text-anchor="middle" x="360.25" y="-13.32" font-family="Times,serif" font-size="14.00">slugger</text>
</g>
<!-- 3&#45;&gt;4 -->
<g id="edge7" class="edge">
<title>3&#45;&gt;4</title>
<path fill="none" stroke="black" d="M317.34,-71.7C323.9,-63.64 331.84,-53.89 339.09,-44.98"/>
<polygon fill="black" stroke="black" points="341.77,-47.24 345.37,-37.28 336.34,-42.82 341.77,-47.24"/>
</g>
<!-- 5&#45;&gt;2 -->
<g id="edge9" class="edge">
<title>5&#45;&gt;2</title>
<path fill="none" stroke="black" d="M352.04,-359.7C344.87,-335.66 331.8,-290.73 322.25,-252 317.3,-231.93 312.45,-209.14 308.89,-191.64"/>
<polygon fill="black" stroke="black" points="312.34,-191.07 306.94,-181.95 305.48,-192.45 312.34,-191.07"/>
</g>
<!-- 6 -->
<g id="node7" class="node">
<title>6</title>
<polygon fill="none" stroke="black" points="528.25,-108 474.25,-108 474.25,-72 528.25,-72 528.25,-108"/>
<text text-anchor="middle" x="501.25" y="-85.33" font-family="Times,serif" font-size="14.00">hex</text>
</g>
<!-- 5&#45;&gt;6 -->
<g id="edge8" class="edge">
<title>5&#45;&gt;6</title>
<path fill="none" stroke="black" d="M415,-369.89C468.83,-361.93 543.42,-347.05 561.25,-324 582.39,-296.67 597.74,-280.56 541.25,-144 537.32,-134.51 531.28,-125.2 525.07,-117.1"/>
<polygon fill="black" stroke="black" points="527.81,-114.92 518.78,-109.38 522.39,-119.34 527.81,-114.92"/>
</g>
<!-- 8 -->
<g id="node9" class="node">
<title>8</title>
<polygon fill="none" stroke="black" points="455.12,-324 399.38,-324 399.38,-288 455.12,-288 455.12,-324"/>
<text text-anchor="middle" x="427.25" y="-301.32" font-family="Times,serif" font-size="14.00">repos</text>
</g>
<!-- 5&#45;&gt;8 -->
<g id="edge10" class="edge">
<title>5&#45;&gt;8</title>
<path fill="none" stroke="black" d="M374.55,-359.7C382.86,-351.39 392.97,-341.28 402.11,-332.14"/>
<polygon fill="black" stroke="black" points="404.48,-334.72 409.08,-325.17 399.53,-329.77 404.48,-334.72"/>
</g>
<!-- 5&#45;&gt;12 -->
<g id="edge11" class="edge">
<title>5&#45;&gt;12</title>
<path fill="none" stroke="black" d="M358.35,-359.59C359.87,-335.61 362.63,-292.14 364.45,-263.42"/>
<polygon fill="black" stroke="black" points="367.93,-263.82 365.07,-253.62 360.94,-263.38 367.93,-263.82"/>
</g>
<!-- 7 -->
<g id="node8" class="node">
<title>7</title>
<polygon fill="none" stroke="black" points="531.75,-36 470.75,-36 470.75,0 531.75,0 531.75,-36"/>
<text text-anchor="middle" x="501.25" y="-13.32" font-family="Times,serif" font-size="14.00">health</text>
</g>
<!-- 6&#45;&gt;7 -->
<g id="edge12" class="edge">
<title>6&#45;&gt;7</title>
<path fill="none" stroke="black" d="M501.25,-71.7C501.25,-64.41 501.25,-55.73 501.25,-47.54"/>
<polygon fill="black" stroke="black" points="504.75,-47.62 501.25,-37.62 497.75,-47.62 504.75,-47.62"/>
</g>
<!-- 8&#45;&gt;2 -->
<g id="edge15" class="edge">
<title>8&#45;&gt;2</title>
<path fill="none" stroke="black" d="M428.28,-287.79C428.54,-268.42 426.14,-236.92 410.25,-216 394.96,-195.88 369.97,-182.9 347.98,-174.83"/>
<polygon fill="black" stroke="black" points="349.19,-171.54 338.59,-171.63 346.93,-178.17 349.19,-171.54"/>
</g>
<!-- 8&#45;&gt;6 -->
<g id="edge14" class="edge">
<title>8&#45;&gt;6</title>
<path fill="none" stroke="black" d="M455.59,-290.69C481.56,-277.29 516.54,-258.39 520.25,-252 544.39,-210.46 527.89,-152.73 514.21,-118.88"/>
<polygon fill="black" stroke="black" points="517.47,-117.59 510.34,-109.76 511.03,-120.33 517.47,-117.59"/>
</g>
<!-- 9 -->
<g id="node10" class="node">
<title>9</title>
<polygon fill="none" stroke="black" points="511.25,-252 457.25,-252 457.25,-216 511.25,-216 511.25,-252"/>
<text text-anchor="middle" x="484.25" y="-229.32" font-family="Times,serif" font-size="14.00">db</text>
</g>
<!-- 8&#45;&gt;9 -->
<g id="edge13" class="edge">
<title>8&#45;&gt;9</title>
<path fill="none" stroke="black" d="M441.34,-287.7C447.9,-279.64 455.84,-269.89 463.09,-260.98"/>
<polygon fill="black" stroke="black" points="465.77,-263.24 469.37,-253.28 460.34,-258.82 465.77,-263.24"/>
</g>
<!-- 8&#45;&gt;12 -->
<g id="edge16" class="edge">
<title>8&#45;&gt;12</title>
<path fill="none" stroke="black" d="M412.17,-287.7C405.08,-279.56 396.48,-269.69 388.65,-260.7"/>
<polygon fill="black" stroke="black" points="391.36,-258.49 382.15,-253.25 386.08,-263.08 391.36,-258.49"/>
</g>
<!-- 9&#45;&gt;2 -->
<g id="edge19" class="edge">
<title>9&#45;&gt;2</title>
<path fill="none" stroke="black" d="M456.95,-221.54C452.39,-219.67 447.69,-217.76 443.25,-216 411.36,-203.36 375.15,-189.66 347.54,-179.36"/>
<polygon fill="black" stroke="black" points="349.04,-176.19 338.44,-175.98 346.6,-182.75 349.04,-176.19"/>
</g>
<!-- 9&#45;&gt;6 -->
<g id="edge17" class="edge">
<title>9&#45;&gt;6</title>
<path fill="none" stroke="black" d="M486.33,-215.59C489.2,-191.61 494.41,-148.14 497.85,-119.42"/>
<polygon fill="black" stroke="black" points="501.31,-119.96 499.02,-109.61 494.36,-119.13 501.31,-119.96"/>
</g>
<!-- 10 -->
<g id="node11" class="node">
<title>10</title>
<polygon fill="none" stroke="black" points="435.25,-180 381.25,-180 381.25,-144 435.25,-144 435.25,-180"/>
<text text-anchor="middle" x="408.25" y="-157.32" font-family="Times,serif" font-size="14.00">kv</text>
</g>
<!-- 9&#45;&gt;10 -->
<g id="edge18" class="edge">
<title>9&#45;&gt;10</title>
<path fill="none" stroke="black" d="M465.46,-215.7C456.42,-207.37 445.41,-197.22 435.47,-188.07"/>
<polygon fill="black" stroke="black" points="437.92,-185.57 428.2,-181.37 433.18,-190.72 437.92,-185.57"/>
</g>
<!-- 10&#45;&gt;4 -->
<g id="edge21" class="edge">
<title>10&#45;&gt;4</title>
<path fill="none" stroke="black" d="M412.88,-143.55C416.88,-125.06 420.67,-95.37 411.25,-72 407.07,-61.63 399.78,-52.15 392,-44.17"/>
<polygon fill="black" stroke="black" points="394.59,-41.8 384.92,-37.46 389.77,-46.88 394.59,-41.8"/>
</g>
<!-- 10&#45;&gt;6 -->
<g id="edge20" class="edge">
<title>10&#45;&gt;6</title>
<path fill="none" stroke="black" d="M431.24,-143.7C442.64,-135.11 456.6,-124.61 469.05,-115.24"/>
<polygon fill="black" stroke="black" points="471.11,-118.07 476.99,-109.26 466.9,-112.47 471.11,-118.07"/>
</g>
<!-- 11 -->
<g id="node12" class="node">
<title>11</title>
<polygon fill="none" stroke="black" points="402.25,-108 348.25,-108 348.25,-72 402.25,-72 402.25,-108"/>
<text text-anchor="middle" x="375.25" y="-85.33" font-family="Times,serif" font-size="14.00">starc</text>
</g>
<!-- 10&#45;&gt;11 -->
<g id="edge22" class="edge">
<title>10&#45;&gt;11</title>
<path fill="none" stroke="black" d="M400.09,-143.7C396.5,-136.07 392.18,-126.92 388.17,-118.4"/>
<polygon fill="black" stroke="black" points="391.39,-117.03 383.96,-109.47 385.06,-120.01 391.39,-117.03"/>
</g>
<!-- 12&#45;&gt;2 -->
<g id="edge24" class="edge">
<title>12&#45;&gt;2</title>
<path fill="none" stroke="black" d="M350.68,-215.7C343.28,-207.47 334.28,-197.48 326.13,-188.42"/>
<polygon fill="black" stroke="black" points="328.95,-186.32 319.66,-181.23 323.74,-191 328.95,-186.32"/>
</g>
<!-- 12&#45;&gt;6 -->
<g id="edge23" class="edge">
<title>12&#45;&gt;6</title>
<path fill="none" stroke="black" d="M397.68,-215.71C412.85,-206.4 430.66,-193.96 444.25,-180 462.09,-161.67 477.4,-136.91 487.65,-118.16"/>
<polygon fill="black" stroke="black" points="490.65,-119.98 492.24,-109.51 484.46,-116.71 490.65,-119.98"/>
</g>
<!-- 13&#45;&gt;1 -->
<g id="edge25" class="edge">
<title>13&#45;&gt;1</title>
<path fill="none" stroke="black" d="M83.67,-431.89C89.75,-402.28 103.31,-339.67 119.25,-288 121.77,-279.82 124.89,-271.08 127.91,-263.11"/>
<polygon fill="black" stroke="black" points="131.13,-264.48 131.49,-253.89 124.6,-261.95 131.13,-264.48"/>
</g>
<!-- 13&#45;&gt;5 -->
<g id="edge26" class="edge">
<title>13&#45;&gt;5</title>
<path fill="none" stroke="black" d="M107.57,-442.1C149.24,-431.57 230,-411.16 288.41,-396.4"/>
<polygon fill="black" stroke="black" points="289.11,-399.83 297.94,-393.99 287.39,-393.04 289.11,-399.83"/>
</g>
<!-- 14 -->
<g id="node15" class="node">
<title>14</title>
<polygon fill="none" stroke="black" points="58.25,-396 4.25,-396 4.25,-360 58.25,-360 58.25,-396"/>
<text text-anchor="middle" x="31.25" y="-373.32" font-family="Times,serif" font-size="14.00">rope</text>
</g>
<!-- 13&#45;&gt;14 -->
<g id="edge27" class="edge">
<title>13&#45;&gt;14</title>
<path fill="none" stroke="black" d="M68.14,-431.7C62.56,-423.73 55.82,-414.1 49.63,-405.26"/>
<polygon fill="black" stroke="black" points="52.69,-403.53 44.09,-397.34 46.96,-407.54 52.69,-403.53"/>
</g>
<!-- 15 -->
<g id="node16" class="node">
<title>15</title>
<polygon fill="none" stroke="black" points="62.5,-324 0,-324 0,-288 62.5,-288 62.5,-324"/>
<text text-anchor="middle" x="31.25" y="-301.32" font-family="Times,serif" font-size="14.00">names</text>
</g>
<!-- 14&#45;&gt;15 -->
<g id="edge28" class="edge">
<title>14&#45;&gt;15</title>
<path fill="none" stroke="black" d="M31.25,-359.7C31.25,-352.41 31.25,-343.73 31.25,-335.54"/>
<polygon fill="black" stroke="black" points="34.75,-335.62 31.25,-325.62 27.75,-335.62 34.75,-335.62"/>
</g>
<!-- 16 -->
<g id="node17" class="node">
<title>16</title>
<polygon fill="none" stroke="black" points="360.88,-468 285.62,-468 285.62,-432 360.88,-432 360.88,-468"/>
<text text-anchor="middle" x="323.25" y="-445.32" font-family="Times,serif" font-size="14.00">cart&#45;app</text>
</g>
<!-- 16&#45;&gt;2 -->
<g id="edge29" class="edge">
<title>16&#45;&gt;2</title>
<path fill="none" stroke="black" d="M309.69,-431.97C302.69,-422.09 294.88,-409.05 291.25,-396 271.34,-324.51 286.07,-236.02 296.06,-191.47"/>
<polygon fill="black" stroke="black" points="299.44,-192.38 298.31,-181.84 292.63,-190.78 299.44,-192.38"/>
</g>
<!-- 16&#45;&gt;5 -->
<g id="edge30" class="edge">
<title>16&#45;&gt;5</title>
<path fill="none" stroke="black" stroke-dasharray="1,5" d="M331.65,-431.7C335.36,-424.07 339.81,-414.92 343.94,-406.4"/>
<polygon fill="black" stroke="black" points="347.06,-407.99 348.28,-397.47 340.76,-404.93 347.06,-407.99"/>
</g>
<!-- 17 -->
<g id="node18" class="node">
<title>17</title>
<polygon fill="none" stroke="black" points="323.5,-540 213,-540 213,-504 323.5,-504 323.5,-540"/>
<text text-anchor="middle" x="268.25" y="-517.33" font-family="Times,serif" font-size="14.00">cart&#45;frontend</text>
</g>
<!-- 17&#45;&gt;16 -->
<g id="edge31" class="edge">
<title>17&#45;&gt;16</title>
<path fill="none" stroke="black" d="M281.85,-503.7C288.17,-495.64 295.83,-485.89 302.84,-476.98"/>
<polygon fill="black" stroke="black" points="305.45,-479.32 308.88,-469.29 299.95,-475 305.45,-479.32"/>
</g>
<!-- 18 -->
<g id="node19" class="node">
<title>18</title>
<polygon fill="none" stroke="black" points="436.62,-540 341.88,-540 341.88,-504 436.62,-504 436.62,-540"/>
<text text-anchor="middle" x="389.25" y="-517.33" font-family="Times,serif" font-size="14.00">cart&#45;server</text>
</g>
<!-- 18&#45;&gt;5 -->
<g id="edge33" class="edge">
<title>18&#45;&gt;5</title>
<path fill="none" stroke="black" d="M385.69,-503.57C381.98,-485.6 375.94,-456.79 370.25,-432 368.4,-423.93 366.3,-415.2 364.33,-407.2"/>
<polygon fill="black" stroke="black" points="367.76,-406.49 361.96,-397.62 360.97,-408.17 367.76,-406.49"/>
</g>
<!-- 18&#45;&gt;16 -->
<g id="edge32" class="edge">
<title>18&#45;&gt;16</title>
<path fill="none" stroke="black" d="M372.94,-503.7C365.18,-495.47 355.76,-485.48 347.22,-476.42"/>
<polygon fill="black" stroke="black" points="349.82,-474.08 340.42,-469.21 344.73,-478.88 349.82,-474.08"/>
</g>
<!-- 19 -->
<g id="node20" class="node">
<title>19</title>
<polygon fill="none" stroke="black" points="508.25,-540 454.25,-540 454.25,-504 508.25,-504 508.25,-540"/>
<text text-anchor="middle" x="481.25" y="-517.33" font-family="Times,serif" font-size="14.00">cli</text>
</g>
<!-- 20 -->
<g id="node21" class="node">
<title>20</title>
<polygon fill="none" stroke="black" points="508.75,-468 453.75,-468 453.75,-432 508.75,-432 508.75,-468"/>
<text text-anchor="middle" x="481.25" y="-445.32" font-family="Times,serif" font-size="14.00">nasty</text>
</g>
<!-- 19&#45;&gt;20 -->
<g id="edge34" class="edge">
<title>19&#45;&gt;20</title>
<path fill="none" stroke="black" d="M481.25,-503.7C481.25,-496.41 481.25,-487.73 481.25,-479.54"/>
<polygon fill="black" stroke="black" points="484.75,-479.62 481.25,-469.62 477.75,-479.62 484.75,-479.62"/>
</g>
<!-- 21 -->
<g id="node22" class="node">
<title>21</title>
<polygon fill="none" stroke="black" points="92.38,-540 20.12,-540 20.12,-504 92.38,-504 92.38,-540"/>
<text text-anchor="middle" x="56.25" y="-517.33" font-family="Times,serif" font-size="14.00">daemon</text>
</g>
<!-- 21&#45;&gt;13 -->
<g id="edge36" class="edge">
<title>21&#45;&gt;13</title>
<path fill="none" stroke="black" d="M62.18,-503.7C64.74,-496.24 67.8,-487.32 70.66,-478.97"/>
<polygon fill="black" stroke="black" points="73.96,-480.13 73.89,-469.54 67.34,-477.86 73.96,-480.13"/>
</g>
<!-- 21&#45;&gt;14 -->
<g id="edge35" class="edge">
<title>21&#45;&gt;14</title>
<path fill="none" stroke="black" d="M52.02,-503.88C49.55,-493.54 46.49,-480.06 44.25,-468 40.52,-447.92 37.2,-425.12 34.86,-407.63"/>
<polygon fill="black" stroke="black" points="38.36,-407.42 33.59,-397.96 31.42,-408.33 38.36,-407.42"/>
</g>
<!-- 22 -->
<g id="node23" class="node">
<title>22</title>
<polygon fill="none" stroke="black" points="228.75,-324 161.75,-324 161.75,-288 228.75,-288 228.75,-324"/>
<text text-anchor="middle" x="195.25" y="-301.32" font-family="Times,serif" font-size="14.00">fetcher</text>
</g>
<!-- 22&#45;&gt;1 -->
<g id="edge38" class="edge">
<title>22&#45;&gt;1</title>
<path fill="none" stroke="black" d="M181.41,-287.7C174.96,-279.64 167.17,-269.89 160.04,-260.98"/>
<polygon fill="black" stroke="black" points="162.86,-258.91 153.88,-253.29 157.39,-263.28 162.86,-258.91"/>
</g>
<!-- 22&#45;&gt;2 -->
<g id="edge37" class="edge">
<title>22&#45;&gt;2</title>
<path fill="none" stroke="black" d="M202.46,-287.52C210.69,-268.73 225.35,-238.55 243.25,-216 251.32,-205.83 261.49,-196.03 271.15,-187.68"/>
<polygon fill="black" stroke="black" points="273.22,-190.51 278.65,-181.42 268.73,-185.14 273.22,-190.51"/>
</g>
<!-- 22&#45;&gt;12 -->
<g id="edge39" class="edge">
<title>22&#45;&gt;12</title>
<path fill="none" stroke="black" d="M229.03,-291.17C255.1,-280.5 291.43,-265.63 320.17,-253.86"/>
<polygon fill="black" stroke="black" points="321.44,-257.12 329.37,-250.1 318.79,-250.65 321.44,-257.12"/>
</g>
<!-- 23 -->
<g id="node24" class="node">
<title>23</title>
<polygon fill="none" stroke="black" points="551.75,-324 472.75,-324 472.75,-288 551.75,-288 551.75,-324"/>
<text text-anchor="middle" x="512.25" y="-301.32" font-family="Times,serif" font-size="14.00">migrator</text>
</g>
<!-- 23&#45;&gt;9 -->
<g id="edge40" class="edge">
<title>23&#45;&gt;9</title>
<path fill="none" stroke="black" d="M505.33,-287.7C502.31,-280.15 498.7,-271.12 495.32,-262.68"/>
<polygon fill="black" stroke="black" points="498.62,-261.49 491.65,-253.51 492.12,-264.09 498.62,-261.49"/>
</g>
</g>
</svg>
