<?xml version="1.0" encoding="UTF-8" standalone="no"?>
<!DOCTYPE svg PUBLIC "-//W3C//DTD SVG 1.1//EN"
 "http://www.w3.org/Graphics/SVG/1.1/DTD/svg11.dtd">
<!-- Generated by graphviz version 12.1.0 (0)
 -->
<!-- Pages: 1 -->
<svg width="770pt" height="548pt"
 viewBox="0.00 0.00 769.50 548.00" xmlns="http://www.w3.org/2000/svg" xmlns:xlink="http://www.w3.org/1999/xlink">
<g id="graph0" class="graph" transform="scale(1 1) rotate(0) translate(4 544)">
<polygon fill="white" stroke="none" points="-4,4 -4,-544 765.5,-544 765.5,4 -4,4"/>
<!-- 0 -->
<g id="node1" class="node">
<title>0</title>
<polygon fill="none" stroke="black" points="314.25,-540 260.25,-540 260.25,-504 314.25,-504 314.25,-540"/>
<text text-anchor="middle" x="287.25" y="-517.33" font-family="Times,serif" font-size="14.00">api</text>
</g>
<!-- 1 -->
<g id="node2" class="node">
<title>1</title>
<polygon fill="none" stroke="black" points="227,-252 155.5,-252 155.5,-216 227,-216 227,-252"/>
<text text-anchor="middle" x="191.25" y="-229.32" font-family="Times,serif" font-size="14.00">mollusk</text>
</g>
<!-- 0&#45;&gt;1 -->
<g id="edge1" class="edge">
<title>0&#45;&gt;1</title>
<path fill="none" stroke="black" d="M260.05,-507.79C224.37,-488.74 163.37,-449.86 138.25,-396 117.06,-350.56 147.55,-294.29 170.32,-261.74"/>
<polygon fill="black" stroke="black" points="173.14,-263.81 176.18,-253.66 167.47,-259.69 173.14,-263.81"/>
</g>
<!-- 5 -->
<g id="node6" class="node">
<title>5</title>
<polygon fill="none" stroke="black" points="261.75,-396 146.75,-396 146.75,-360 261.75,-360 261.75,-396"/>
<text text-anchor="middle" x="204.25" y="-373.32" font-family="Times,serif" font-size="14.00">prime&#45;domain</text>
</g>
<!-- 0&#45;&gt;5 -->
<g id="edge2" class="edge">
<title>0&#45;&gt;5</title>
<path fill="none" stroke="black" d="M277.07,-503.59C262.81,-479.18 236.74,-434.58 219.97,-405.89"/>
<polygon fill="black" stroke="black" points="223.08,-404.28 215.02,-397.42 217.04,-407.82 223.08,-404.28"/>
</g>
<!-- 12 -->
<g id="node13" class="node">
<title>12</title>
<polygon fill="none" stroke="black" points="511.25,-252 441.25,-252 441.25,-216 511.25,-216 511.25,-252"/>
<text text-anchor="middle" x="476.25" y="-229.32" font-family="Times,serif" font-size="14.00">storage</text>
</g>
<!-- 0&#45;&gt;12 -->
<g id="edge3" class="edge">
<title>0&#45;&gt;12</title>
<path fill="none" stroke="black" d="M289.41,-503.56C292.18,-485.08 298.03,-455.39 309.25,-432 326.67,-395.69 331.24,-383.06 364.25,-360 408.51,-329.09 448.23,-367.46 480.25,-324 492.94,-306.78 490.75,-282.19 486.06,-263.22"/>
<polygon fill="black" stroke="black" points="489.45,-262.36 483.34,-253.71 482.72,-264.28 489.45,-262.36"/>
</g>
<!-- 14 -->
<g id="node15" class="node">
<title>14</title>
<polygon fill="none" stroke="black" points="372.25,-468 318.25,-468 318.25,-432 372.25,-432 372.25,-468"/>
<text text-anchor="middle" x="345.25" y="-445.32" font-family="Times,serif" font-size="14.00">tasks</text>
</g>
<!-- 0&#45;&gt;14 -->
<g id="edge4" class="edge">
<title>0&#45;&gt;14</title>
<path fill="none" stroke="black" d="M301.59,-503.7C308.33,-495.56 316.51,-485.69 323.95,-476.7"/>
<polygon fill="black" stroke="black" points="326.43,-479.2 330.11,-469.27 321.04,-474.74 326.43,-479.2"/>
</g>
<!-- 2 -->
<g id="node3" class="node">
<title>2</title>
<polygon fill="none" stroke="black" points="262.75,-180 195.75,-180 195.75,-144 262.75,-144 262.75,-180"/>
<text text-anchor="middle" x="229.25" y="-157.32" font-family="Times,serif" font-size="14.00">models</text>
</g>
<!-- 1&#45;&gt;2 -->
<g id="edge5" class="edge">
<title>1&#45;&gt;2</title>
<path fill="none" stroke="black" d="M200.64,-215.7C204.83,-207.98 209.86,-198.71 214.53,-190.11"/>
<polygon fill="black" stroke="black" points="217.55,-191.89 219.24,-181.43 211.4,-188.55 217.55,-191.89"/>
</g>
<!-- 3 -->
<g id="node4" class="node">
<title>3</title>
<polygon fill="none" stroke="black" points="251.25,-108 197.25,-108 197.25,-72 251.25,-72 251.25,-108"/>
<text text-anchor="middle" x="224.25" y="-85.33" font-family="Times,serif" font-size="14.00">dvf</text>
</g>
<!-- 2&#45;&gt;3 -->
<g id="edge6" class="edge">
<title>2&#45;&gt;3</title>
<path fill="none" stroke="black" d="M228.01,-143.7C227.49,-136.41 226.87,-127.73 226.29,-119.54"/>
<polygon fill="black" stroke="black" points="229.78,-119.34 225.58,-109.61 222.8,-119.84 229.78,-119.34"/>
</g>
<!-- 4 -->
<g id="node5" class="node">
<title>4</title>
<polygon fill="none" stroke="black" points="308.25,-36 238.25,-36 238.25,0 308.25,0 308.25,-36"/>
<text text-anchor="middle" x="273.25" y="-13.32" font-family="Times,serif" font-size="14.00">slugger</text>
</g>
<!-- 3&#45;&gt;4 -->
<g id="edge7" class="edge">
<title>3&#45;&gt;4</title>
<path fill="none" stroke="black" d="M236.36,-71.7C241.94,-63.73 248.68,-54.1 254.87,-45.26"/>
<polygon fill="black" stroke="black" points="257.54,-47.54 260.41,-37.34 251.81,-43.53 257.54,-47.54"/>
</g>
<!-- 5&#45;&gt;2 -->
<g id="edge9" class="edge">
<title>5&#45;&gt;2</title>
<path fill="none" stroke="black" d="M188.87,-359.81C163.74,-329.53 119.27,-265.24 146.25,-216 154.88,-200.26 170.39,-188.51 185.69,-180.13"/>
<polygon fill="black" stroke="black" points="186.94,-183.42 194.29,-175.79 183.78,-177.18 186.94,-183.42"/>
</g>
<!-- 6 -->
<g id="node7" class="node">
<title>6</title>
<polygon fill="none" stroke="black" points="433.25,-108 379.25,-108 379.25,-72 433.25,-72 433.25,-108"/>
<text text-anchor="middle" x="406.25" y="-85.33" font-family="Times,serif" font-size="14.00">hex</text>
</g>
<!-- 5&#45;&gt;6 -->
<g id="edge8" class="edge">
<title>5&#45;&gt;6</title>
<path fill="none" stroke="black" d="M262.14,-369.77C331.48,-360.45 442.97,-343.13 480.25,-324 563.05,-281.52 595.48,-265.49 632.25,-180 664.61,-104.78 517.83,-92.46 445.07,-90.9"/>
<polygon fill="black" stroke="black" points="445.22,-87.41 435.17,-90.76 445.11,-94.4 445.22,-87.41"/>
</g>
<!-- 8 -->
<g id="node9" class="node">
<title>8</title>
<polygon fill="none" stroke="black" points="448.12,-324 392.38,-324 392.38,-288 448.12,-288 448.12,-324"/>
<text text-anchor="middle" x="420.25" y="-301.32" font-family="Times,serif" font-size="14.00">repos</text>
</g>
<!-- 5&#45;&gt;8 -->
<g id="edge10" class="edge">
<title>5&#45;&gt;8</title>
<path fill="none" stroke="black" d="M262.15,-362.4C295.17,-353.52 337.39,-341.23 381.49,-324.81"/>
<polygon fill="black" stroke="black" points="382.6,-328.13 390.71,-321.32 380.12,-321.59 382.6,-328.13"/>
</g>
<!-- 5&#45;&gt;12 -->
<g id="edge11" class="edge">
<title>5&#45;&gt;12</title>
<path fill="none" stroke="black" d="M261.98,-363.18C266.8,-362.08 271.61,-361.01 276.25,-360 356.4,-342.57 398.85,-381.59 457.25,-324 472.99,-308.47 477.2,-283.32 477.78,-263.71"/>
<polygon fill="black" stroke="black" points="481.28,-263.86 477.75,-253.87 474.28,-263.88 481.28,-263.86"/>
</g>
<!-- 7 -->
<g id="node8" class="node">
<title>7</title>
<polygon fill="none" stroke="black" points="436.75,-36 375.75,-36 375.75,0 436.75,0 436.75,-36"/>
<text text-anchor="middle" x="406.25" y="-13.32" font-family="Times,serif" font-size="14.00">health</text>
</g>
<!-- 6&#45;&gt;7 -->
<g id="edge12" class="edge">
<title>6&#45;&gt;7</title>
<path fill="none" stroke="black" d="M406.25,-71.7C406.25,-64.41 406.25,-55.73 406.25,-47.54"/>
<polygon fill="black" stroke="black" points="409.75,-47.62 406.25,-37.62 402.75,-47.62 409.75,-47.62"/>
</g>
<!-- 8&#45;&gt;2 -->
<g id="edge15" class="edge">
<title>8&#45;&gt;2</title>
<path fill="none" stroke="black" d="M391.99,-291.44C361.18,-276.62 315.77,-254.61 312.25,-252 287.9,-233.93 264.76,-208.15 249.14,-188.99"/>
<polygon fill="black" stroke="black" points="252.02,-186.98 243.04,-181.35 246.55,-191.35 252.02,-186.98"/>
</g>
<!-- 8&#45;&gt;6 -->
<g id="edge14" class="edge">
<title>8&#45;&gt;6</title>
<path fill="none" stroke="black" d="M419.13,-287.85C416.73,-251.14 411.07,-164.66 408.12,-119.53"/>
<polygon fill="black" stroke="black" points="411.62,-119.49 407.48,-109.74 404.64,-119.95 411.62,-119.49"/>
</g>
<!-- 9 -->
<g id="node10" class="node">
<title>9</title>
<polygon fill="none" stroke="black" points="375.25,-252 321.25,-252 321.25,-216 375.25,-216 375.25,-252"/>
<text text-anchor="middle" x="348.25" y="-229.32" font-family="Times,serif" font-size="14.00">db</text>
</g>
<!-- 8&#45;&gt;9 -->
<g id="edge13" class="edge">
<title>8&#45;&gt;9</title>
<path fill="none" stroke="black" d="M402.45,-287.7C393.97,-279.45 383.66,-269.43 374.32,-260.35"/>
<polygon fill="black" stroke="black" points="376.79,-257.86 367.18,-253.4 371.91,-262.88 376.79,-257.86"/>
</g>
<!-- 8&#45;&gt;12 -->
<g id="edge16" class="edge">
<title>8&#45;&gt;12</title>
<path fill="none" stroke="black" d="M434.09,-287.7C440.54,-279.64 448.33,-269.89 455.46,-260.98"/>
<polygon fill="black" stroke="black" points="458.11,-263.28 461.62,-253.29 452.64,-258.91 458.11,-263.28"/>
</g>
<!-- 9&#45;&gt;2 -->
<g id="edge19" class="edge">
<title>9&#45;&gt;2</title>
<path fill="none" stroke="black" d="M320.95,-216.94C305.46,-207.83 285.81,-196.27 268.67,-186.19"/>
<polygon fill="black" stroke="black" points="270.62,-183.28 260.23,-181.22 267.07,-189.31 270.62,-183.28"/>
</g>
<!-- 9&#45;&gt;6 -->
<g id="edge17" class="edge">
<title>9&#45;&gt;6</title>
<path fill="none" stroke="black" d="M355.36,-215.59C365.24,-191.4 383.23,-147.36 394.96,-118.65"/>
<polygon fill="black" stroke="black" points="398.15,-120.09 398.69,-109.51 391.67,-117.45 398.15,-120.09"/>
</g>
<!-- 10 -->
<g id="node11" class="node">
<title>10</title>
<polygon fill="none" stroke="black" points="337.25,-180 283.25,-180 283.25,-144 337.25,-144 337.25,-180"/>
<text text-anchor="middle" x="310.25" y="-157.32" font-family="Times,serif" font-size="14.00">kv</text>
</g>
<!-- 9&#45;&gt;10 -->
<g id="edge18" class="edge">
<title>9&#45;&gt;10</title>
<path fill="none" stroke="black" d="M338.86,-215.7C334.67,-207.98 329.64,-198.71 324.97,-190.11"/>
<polygon fill="black" stroke="black" points="328.1,-188.55 320.26,-181.43 321.95,-191.89 328.1,-188.55"/>
</g>
<!-- 10&#45;&gt;4 -->
<g id="edge21" class="edge">
<title>10&#45;&gt;4</title>
<path fill="none" stroke="black" d="M321.03,-143.68C331.01,-125.3 342.82,-95.69 332.25,-72 327.36,-61.04 318.97,-51.4 310.01,-43.45"/>
<polygon fill="black" stroke="black" points="312.48,-40.95 302.53,-37.32 308.05,-46.37 312.48,-40.95"/>
</g>
<!-- 10&#45;&gt;6 -->
<g id="edge20" class="edge">
<title>10&#45;&gt;6</title>
<path fill="none" stroke="black" d="M333.98,-143.7C345.87,-135.03 360.44,-124.4 373.39,-114.96"/>
<polygon fill="black" stroke="black" points="375.22,-117.96 381.24,-109.24 371.09,-112.3 375.22,-117.96"/>
</g>
<!-- 11 -->
<g id="node12" class="node">
<title>11</title>
<polygon fill="none" stroke="black" points="323.25,-108 269.25,-108 269.25,-72 323.25,-72 323.25,-108"/>
<text text-anchor="middle" x="296.25" y="-85.33" font-family="Times,serif" font-size="14.00">starc</text>
</g>
<!-- 10&#45;&gt;11 -->
<g id="edge22" class="edge">
<title>10&#45;&gt;11</title>
<path fill="none" stroke="black" d="M306.79,-143.7C305.31,-136.32 303.55,-127.52 301.9,-119.25"/>
<polygon fill="black" stroke="black" points="305.36,-118.71 299.97,-109.59 298.5,-120.08 305.36,-118.71"/>
</g>
<!-- 12&#45;&gt;2 -->
<g id="edge24" class="edge">
<title>12&#45;&gt;2</title>
<path fill="none" stroke="black" d="M440.9,-224.91C400.32,-215.35 331.93,-198.41 274.25,-180 274.14,-179.96 274.02,-179.93 273.91,-179.89"/>
<polygon fill="black" stroke="black" points="275.05,-176.58 264.46,-176.68 272.8,-183.21 275.05,-176.58"/>
</g>
<!-- 12&#45;&gt;6 -->
<g id="edge23" class="edge">
<title>12&#45;&gt;6</title>
<path fill="none" stroke="black" d="M511.65,-230.3C544.4,-225.7 591.36,-213.31 614.25,-180 623.31,-166.81 624.07,-156.63 614.25,-144 593.64,-117.48 498.91,-102.03 444.67,-95.21"/>
<polygon fill="black" stroke="black" points="445.28,-91.76 434.94,-94.03 444.44,-98.7 445.28,-91.76"/>
</g>
<!-- 13 -->
<g id="node14" class="node">
<title>13</title>
<polygon fill="none" stroke="black" points="605.38,-180 431.12,-180 431.12,-144 605.38,-144 605.38,-180"/>
<text text-anchor="middle" x="518.25" y="-157.32" font-family="Times,serif" font-size="14.00">object_store_s3_wasm</text>
</g>
<!-- 12&#45;&gt;13 -->
<g id="edge25" class="edge">
<title>12&#45;&gt;13</title>
<path fill="none" stroke="black" d="M486.63,-215.7C491.31,-207.9 496.94,-198.51 502.15,-189.83"/>
<polygon fill="black" stroke="black" points="505.06,-191.78 507.21,-181.4 499.06,-188.18 505.06,-191.78"/>
</g>
<!-- 14&#45;&gt;1 -->
<g id="edge26" class="edge">
<title>14&#45;&gt;1</title>
<path fill="none" stroke="black" d="M333.87,-431.5C320.62,-412.15 297.21,-380.95 271.25,-360 244.33,-338.28 221.96,-352.42 202.25,-324 190.17,-306.58 187.83,-282.51 188.28,-263.79"/>
<polygon fill="black" stroke="black" points="191.77,-264.08 188.83,-253.9 184.78,-263.69 191.77,-264.08"/>
</g>
<!-- 14&#45;&gt;5 -->
<g id="edge27" class="edge">
<title>14&#45;&gt;5</title>
<path fill="none" stroke="black" d="M318.06,-435.5C298.63,-425.86 272.03,-412.65 249.44,-401.43"/>
<polygon fill="black" stroke="black" points="251.24,-398.42 240.73,-397.11 248.13,-404.69 251.24,-398.42"/>
</g>
<!-- 15 -->
<g id="node16" class="node">
<title>15</title>
<polygon fill="none" stroke="black" points="427.25,-396 373.25,-396 373.25,-360 427.25,-360 427.25,-396"/>
<text text-anchor="middle" x="400.25" y="-373.32" font-family="Times,serif" font-size="14.00">rope</text>
</g>
<!-- 14&#45;&gt;15 -->
<g id="edge28" class="edge">
<title>14&#45;&gt;15</title>
<path fill="none" stroke="black" d="M358.85,-431.7C365.17,-423.64 372.83,-413.89 379.84,-404.98"/>
<polygon fill="black" stroke="black" points="382.45,-407.32 385.88,-397.29 376.95,-403 382.45,-407.32"/>
</g>
<!-- 16 -->
<g id="node17" class="node">
<title>16</title>
<polygon fill="none" stroke="black" points="761.5,-324 699,-324 699,-288 761.5,-288 761.5,-324"/>
<text text-anchor="middle" x="730.25" y="-301.32" font-family="Times,serif" font-size="14.00">names</text>
</g>
<!-- 15&#45;&gt;16 -->
<g id="edge29" class="edge">
<title>15&#45;&gt;16</title>
<path fill="none" stroke="black" d="M427.73,-373.54C479,-366.73 592.43,-349.94 685.25,-324 686.06,-323.77 686.88,-323.54 687.71,-323.29"/>
<polygon fill="black" stroke="black" points="688.65,-326.67 697.09,-320.25 686.49,-320.01 688.65,-326.67"/>
</g>
<!-- 17 -->
<g id="node18" class="node">
<title>17</title>
<polygon fill="none" stroke="black" points="92.88,-468 17.62,-468 17.62,-432 92.88,-432 92.88,-468"/>
<text text-anchor="middle" x="55.25" y="-445.32" font-family="Times,serif" font-size="14.00">cart&#45;app</text>
</g>
<!-- 17&#45;&gt;2 -->
<g id="edge30" class="edge">
<title>17&#45;&gt;2</title>
<path fill="none" stroke="black" d="M56.87,-431.74C61.6,-390.1 78.76,-282.63 134.25,-216 147.69,-199.86 167.37,-187.75 185.34,-179.2"/>
<polygon fill="black" stroke="black" points="186.59,-182.48 194.28,-175.2 183.73,-176.09 186.59,-182.48"/>
</g>
<!-- 17&#45;&gt;5 -->
<g id="edge31" class="edge">
<title>17&#45;&gt;5</title>
<path fill="none" stroke="black" stroke-dasharray="1,5" d="M92.46,-431.52C112.01,-422.34 136.16,-410.99 157.01,-401.2"/>
<polygon fill="black" stroke="black" points="158.32,-404.45 165.88,-397.03 155.34,-398.11 158.32,-404.45"/>
</g>
<!-- 18 -->
<g id="node19" class="node">
<title>18</title>
<polygon fill="none" stroke="black" points="110.5,-540 0,-540 0,-504 110.5,-504 110.5,-540"/>
<text text-anchor="middle" x="55.25" y="-517.33" font-family="Times,serif" font-size="14.00">cart&#45;frontend</text>
</g>
<!-- 18&#45;&gt;17 -->
<g id="edge32" class="edge">
<title>18&#45;&gt;17</title>
<path fill="none" stroke="black" d="M55.25,-503.7C55.25,-496.41 55.25,-487.73 55.25,-479.54"/>
<polygon fill="black" stroke="black" points="58.75,-479.62 55.25,-469.62 51.75,-479.62 58.75,-479.62"/>
</g>
<!-- 19 -->
<g id="node20" class="node">
<title>19</title>
<polygon fill="none" stroke="black" points="236.62,-540 141.88,-540 141.88,-504 236.62,-504 236.62,-540"/>
<text text-anchor="middle" x="189.25" y="-517.33" font-family="Times,serif" font-size="14.00">cart&#45;server</text>
</g>
<!-- 19&#45;&gt;5 -->
<g id="edge34" class="edge">
<title>19&#45;&gt;5</title>
<path fill="none" stroke="black" d="M191.09,-503.59C193.62,-479.61 198.21,-436.14 201.25,-407.42"/>
<polygon fill="black" stroke="black" points="204.71,-407.93 202.28,-397.62 197.75,-407.19 204.71,-407.93"/>
</g>
<!-- 19&#45;&gt;17 -->
<g id="edge33" class="edge">
<title>19&#45;&gt;17</title>
<path fill="none" stroke="black" d="M155.78,-503.52C138.38,-494.43 116.92,-483.22 98.3,-473.49"/>
<polygon fill="black" stroke="black" points="100.12,-470.49 89.63,-468.96 96.88,-476.69 100.12,-470.49"/>
</g>
<!-- 20 -->
<g id="node21" class="node">
<title>20</title>
<polygon fill="none" stroke="black" points="496.25,-540 442.25,-540 442.25,-504 496.25,-504 496.25,-540"/>
<text text-anchor="middle" x="469.25" y="-517.33" font-family="Times,serif" font-size="14.00">cli</text>
</g>
<!-- 21 -->
<g id="node22" class="node">
<title>21</title>
<polygon fill="none" stroke="black" points="496.75,-468 441.75,-468 441.75,-432 496.75,-432 496.75,-468"/>
<text text-anchor="middle" x="469.25" y="-445.32" font-family="Times,serif" font-size="14.00">nasty</text>
</g>
<!-- 20&#45;&gt;21 -->
<g id="edge35" class="edge">
<title>20&#45;&gt;21</title>
<path fill="none" stroke="black" d="M469.25,-503.7C469.25,-496.41 469.25,-487.73 469.25,-479.54"/>
<polygon fill="black" stroke="black" points="472.75,-479.62 469.25,-469.62 465.75,-479.62 472.75,-479.62"/>
</g>
<!-- 22 -->
<g id="node23" class="node">
<title>22</title>
<polygon fill="none" stroke="black" points="422.38,-540 350.12,-540 350.12,-504 422.38,-504 422.38,-540"/>
<text text-anchor="middle" x="386.25" y="-517.33" font-family="Times,serif" font-size="14.00">daemon</text>
</g>
<!-- 22&#45;&gt;14 -->
<g id="edge37" class="edge">
<title>22&#45;&gt;14</title>
<path fill="none" stroke="black" d="M376.12,-503.7C371.55,-495.9 366.05,-486.51 360.96,-477.83"/>
<polygon fill="black" stroke="black" points="364.11,-476.27 356.03,-469.41 358.07,-479.81 364.11,-476.27"/>
</g>
<!-- 22&#45;&gt;15 -->
<g id="edge36" class="edge">
<title>22&#45;&gt;15</title>
<path fill="none" stroke="black" d="M387.97,-503.59C390.33,-479.61 394.62,-436.14 397.45,-407.42"/>
<polygon fill="black" stroke="black" points="400.92,-407.91 398.41,-397.62 393.95,-407.23 400.92,-407.91"/>
</g>
<!-- 23 -->
<g id="node24" class="node">
<title>23</title>
<polygon fill="none" stroke="black" points="277.75,-324 210.75,-324 210.75,-288 277.75,-288 277.75,-324"/>
<text text-anchor="middle" x="244.25" y="-301.32" font-family="Times,serif" font-size="14.00">fetcher</text>
</g>
<!-- 23&#45;&gt;1 -->
<g id="edge39" class="edge">
<title>23&#45;&gt;1</title>
<path fill="none" stroke="black" d="M231.15,-287.7C225.12,-279.73 217.83,-270.1 211.14,-261.26"/>
<polygon fill="black" stroke="black" points="213.94,-259.17 205.11,-253.31 208.36,-263.4 213.94,-259.17"/>
</g>
<!-- 23&#45;&gt;2 -->
<g id="edge38" class="edge">
<title>23&#45;&gt;2</title>
<path fill="none" stroke="black" d="M242.9,-287.58C241.46,-269.63 239,-240.82 236.25,-216 235.37,-208.04 234.28,-199.42 233.23,-191.49"/>
<polygon fill="black" stroke="black" points="236.71,-191.1 231.9,-181.66 229.78,-192.04 236.71,-191.1"/>
</g>
<!-- 23&#45;&gt;12 -->
<g id="edge40" class="edge">
<title>23&#45;&gt;12</title>
<path fill="none" stroke="black" d="M277.93,-291.3C281.07,-290.14 284.21,-289.03 287.25,-288 335.46,-271.76 391.7,-256.44 430.22,-246.49"/>
<polygon fill="black" stroke="black" points="430.8,-249.95 439.62,-244.08 429.06,-243.17 430.8,-249.95"/>
</g>
<!-- 24 -->
<g id="node25" class="node">
<title>24</title>
<polygon fill="none" stroke="black" points="374.75,-324 295.75,-324 295.75,-288 374.75,-288 374.75,-324"/>
<text text-anchor="middle" x="335.25" y="-301.32" font-family="Times,serif" font-size="14.00">migrator</text>
</g>
<!-- 24&#45;&gt;9 -->
<g id="edge41" class="edge">
<title>24&#45;&gt;9</title>
<path fill="none" stroke="black" d="M338.46,-287.7C339.83,-280.32 341.47,-271.52 343,-263.25"/>
<polygon fill="black" stroke="black" points="346.41,-264.06 344.8,-253.59 339.53,-262.79 346.41,-264.06"/>
</g>
</g>
</svg>
