<?xml version="1.0" encoding="UTF-8" standalone="no"?>
<!DOCTYPE svg PUBLIC "-//W3C//DTD SVG 1.1//EN"
 "http://www.w3.org/Graphics/SVG/1.1/DTD/svg11.dtd">
<!-- Generated by graphviz version 12.1.0 (0)
 -->
<!-- Pages: 1 -->
<svg width="637pt" height="548pt"
 viewBox="0.00 0.00 636.75 548.00" xmlns="http://www.w3.org/2000/svg" xmlns:xlink="http://www.w3.org/1999/xlink">
<g id="graph0" class="graph" transform="scale(1 1) rotate(0) translate(4 544)">
<polygon fill="white" stroke="none" points="-4,4 -4,-544 632.75,-544 632.75,4 -4,4"/>
<!-- 0 -->
<g id="node1" class="node">
<title>0</title>
<polygon fill="none" stroke="black" points="190.25,-540 136.25,-540 136.25,-504 190.25,-504 190.25,-540"/>
<text text-anchor="middle" x="163.25" y="-517.33" font-family="Times,serif" font-size="14.00">api</text>
</g>
<!-- 1 -->
<g id="node2" class="node">
<title>1</title>
<polygon fill="none" stroke="black" points="167,-252 95.5,-252 95.5,-216 167,-216 167,-252"/>
<text text-anchor="middle" x="131.25" y="-229.32" font-family="Times,serif" font-size="14.00">mollusk</text>
</g>
<!-- 0&#45;&gt;1 -->
<g id="edge1" class="edge">
<title>0&#45;&gt;1</title>
<path fill="none" stroke="black" d="M161.3,-503.54C155.95,-455.76 141.04,-322.51 134.45,-263.61"/>
<polygon fill="black" stroke="black" points="137.94,-263.28 133.35,-253.74 130.98,-264.06 137.94,-263.28"/>
</g>
<!-- 5 -->
<g id="node6" class="node">
<title>5</title>
<polygon fill="none" stroke="black" points="437.75,-396 322.75,-396 322.75,-360 437.75,-360 437.75,-396"/>
<text text-anchor="middle" x="380.25" y="-373.32" font-family="Times,serif" font-size="14.00">prime&#45;domain</text>
</g>
<!-- 0&#45;&gt;5 -->
<g id="edge2" class="edge">
<title>0&#45;&gt;5</title>
<path fill="none" stroke="black" d="M190.64,-515.06C220.56,-507.64 268.93,-492.78 304.25,-468 328.15,-451.23 349.17,-425.24 363.01,-405.67"/>
<polygon fill="black" stroke="black" points="365.76,-407.84 368.53,-397.62 359.99,-403.88 365.76,-407.84"/>
</g>
<!-- 12 -->
<g id="node13" class="node">
<title>12</title>
<polygon fill="none" stroke="black" points="300.25,-252 230.25,-252 230.25,-216 300.25,-216 300.25,-252"/>
<text text-anchor="middle" x="265.25" y="-229.32" font-family="Times,serif" font-size="14.00">storage</text>
</g>
<!-- 0&#45;&gt;12 -->
<g id="edge3" class="edge">
<title>0&#45;&gt;12</title>
<path fill="none" stroke="black" d="M173.98,-503.6C194,-470.19 236.77,-394.15 256.25,-324 261.72,-304.3 263.94,-281.33 264.81,-263.66"/>
<polygon fill="black" stroke="black" points="268.3,-264.01 265.17,-253.89 261.31,-263.76 268.3,-264.01"/>
</g>
<!-- 13 -->
<g id="node14" class="node">
<title>13</title>
<polygon fill="none" stroke="black" points="115.25,-468 61.25,-468 61.25,-432 115.25,-432 115.25,-468"/>
<text text-anchor="middle" x="88.25" y="-445.32" font-family="Times,serif" font-size="14.00">tasks</text>
</g>
<!-- 0&#45;&gt;13 -->
<g id="edge4" class="edge">
<title>0&#45;&gt;13</title>
<path fill="none" stroke="black" d="M144.71,-503.7C135.79,-495.37 124.92,-485.22 115.11,-476.07"/>
<polygon fill="black" stroke="black" points="117.64,-473.64 107.94,-469.38 112.86,-478.76 117.64,-473.64"/>
</g>
<!-- 2 -->
<g id="node3" class="node">
<title>2</title>
<polygon fill="none" stroke="black" points="360.75,-180 293.75,-180 293.75,-144 360.75,-144 360.75,-180"/>
<text text-anchor="middle" x="327.25" y="-157.32" font-family="Times,serif" font-size="14.00">models</text>
</g>
<!-- 1&#45;&gt;2 -->
<g id="edge5" class="edge">
<title>1&#45;&gt;2</title>
<path fill="none" stroke="black" d="M167.2,-220.16C199.85,-208.5 248.11,-191.26 283.09,-178.77"/>
<polygon fill="black" stroke="black" points="283.83,-182.22 292.07,-175.56 281.47,-175.63 283.83,-182.22"/>
</g>
<!-- 3 -->
<g id="node4" class="node">
<title>3</title>
<polygon fill="none" stroke="black" points="325.25,-108 271.25,-108 271.25,-72 325.25,-72 325.25,-108"/>
<text text-anchor="middle" x="298.25" y="-85.33" font-family="Times,serif" font-size="14.00">dvf</text>
</g>
<!-- 2&#45;&gt;3 -->
<g id="edge6" class="edge">
<title>2&#45;&gt;3</title>
<path fill="none" stroke="black" d="M320.08,-143.7C316.96,-136.15 313.21,-127.12 309.72,-118.68"/>
<polygon fill="black" stroke="black" points="312.98,-117.4 305.92,-109.5 306.51,-120.08 312.98,-117.4"/>
</g>
<!-- 4 -->
<g id="node5" class="node">
<title>4</title>
<polygon fill="none" stroke="black" points="382.25,-36 312.25,-36 312.25,0 382.25,0 382.25,-36"/>
<text text-anchor="middle" x="347.25" y="-13.32" font-family="Times,serif" font-size="14.00">slugger</text>
</g>
<!-- 3&#45;&gt;4 -->
<g id="edge7" class="edge">
<title>3&#45;&gt;4</title>
<path fill="none" stroke="black" d="M310.36,-71.7C315.94,-63.73 322.68,-54.1 328.87,-45.26"/>
<polygon fill="black" stroke="black" points="331.54,-47.54 334.41,-37.34 325.81,-43.53 331.54,-47.54"/>
</g>
<!-- 5&#45;&gt;2 -->
<g id="edge9" class="edge">
<title>5&#45;&gt;2</title>
<path fill="none" stroke="black" d="M366.89,-359.84C359.87,-349.91 351.81,-336.87 347.25,-324 331.58,-279.74 327.84,-224.85 327.13,-191.95"/>
<polygon fill="black" stroke="black" points="330.63,-191.95 327.01,-181.99 323.63,-192.03 330.63,-191.95"/>
</g>
<!-- 6 -->
<g id="node7" class="node">
<title>6</title>
<polygon fill="none" stroke="black" points="507.25,-108 453.25,-108 453.25,-72 507.25,-72 507.25,-108"/>
<text text-anchor="middle" x="480.25" y="-85.33" font-family="Times,serif" font-size="14.00">hex</text>
</g>
<!-- 5&#45;&gt;6 -->
<g id="edge8" class="edge">
<title>5&#45;&gt;6</title>
<path fill="none" stroke="black" d="M438.11,-370.18C467.29,-363.48 500.23,-350.23 518.25,-324 561.86,-260.54 521,-164.74 496.16,-118.24"/>
<polygon fill="black" stroke="black" points="499.31,-116.71 491.42,-109.64 493.18,-120.09 499.31,-116.71"/>
</g>
<!-- 8 -->
<g id="node9" class="node">
<title>8</title>
<polygon fill="none" stroke="black" points="412.12,-324 356.38,-324 356.38,-288 412.12,-288 412.12,-324"/>
<text text-anchor="middle" x="384.25" y="-301.32" font-family="Times,serif" font-size="14.00">repos</text>
</g>
<!-- 5&#45;&gt;8 -->
<g id="edge10" class="edge">
<title>5&#45;&gt;8</title>
<path fill="none" stroke="black" d="M381.24,-359.7C381.66,-352.41 382.15,-343.73 382.62,-335.54"/>
<polygon fill="black" stroke="black" points="386.11,-335.8 383.19,-325.62 379.12,-335.4 386.11,-335.8"/>
</g>
<!-- 7 -->
<g id="node8" class="node">
<title>7</title>
<polygon fill="none" stroke="black" points="510.75,-36 449.75,-36 449.75,0 510.75,0 510.75,-36"/>
<text text-anchor="middle" x="480.25" y="-13.32" font-family="Times,serif" font-size="14.00">health</text>
</g>
<!-- 6&#45;&gt;7 -->
<g id="edge11" class="edge">
<title>6&#45;&gt;7</title>
<path fill="none" stroke="black" d="M480.25,-71.7C480.25,-64.41 480.25,-55.73 480.25,-47.54"/>
<polygon fill="black" stroke="black" points="483.75,-47.62 480.25,-37.62 476.75,-47.62 483.75,-47.62"/>
</g>
<!-- 8&#45;&gt;2 -->
<g id="edge14" class="edge">
<title>8&#45;&gt;2</title>
<path fill="none" stroke="black" d="M377.26,-287.59C367.55,-263.4 349.88,-219.36 338.35,-190.65"/>
<polygon fill="black" stroke="black" points="341.66,-189.49 334.68,-181.52 335.16,-192.1 341.66,-189.49"/>
</g>
<!-- 8&#45;&gt;6 -->
<g id="edge13" class="edge">
<title>8&#45;&gt;6</title>
<path fill="none" stroke="black" d="M412.62,-291.59C428.37,-282.63 446.82,-269.3 457.25,-252 481.91,-211.08 484.02,-153.91 482.61,-119.85"/>
<polygon fill="black" stroke="black" points="486.11,-119.72 482.06,-109.93 479.12,-120.12 486.11,-119.72"/>
</g>
<!-- 9 -->
<g id="node10" class="node">
<title>9</title>
<polygon fill="none" stroke="black" points="448.25,-252 394.25,-252 394.25,-216 448.25,-216 448.25,-252"/>
<text text-anchor="middle" x="421.25" y="-229.32" font-family="Times,serif" font-size="14.00">db</text>
</g>
<!-- 8&#45;&gt;9 -->
<g id="edge12" class="edge">
<title>8&#45;&gt;9</title>
<path fill="none" stroke="black" d="M393.4,-287.7C397.47,-279.98 402.37,-270.71 406.92,-262.11"/>
<polygon fill="black" stroke="black" points="409.92,-263.92 411.5,-253.44 403.73,-260.65 409.92,-263.92"/>
</g>
<!-- 8&#45;&gt;12 -->
<g id="edge15" class="edge">
<title>8&#45;&gt;12</title>
<path fill="none" stroke="black" d="M356.05,-288.41C340.65,-279.35 321.34,-268 304.5,-258.09"/>
<polygon fill="black" stroke="black" points="306.61,-255.27 296.21,-253.21 303.06,-261.3 306.61,-255.27"/>
</g>
<!-- 9&#45;&gt;2 -->
<g id="edge18" class="edge">
<title>9&#45;&gt;2</title>
<path fill="none" stroke="black" d="M398.01,-215.7C386.38,-207.03 372.1,-196.4 359.43,-186.96"/>
<polygon fill="black" stroke="black" points="361.87,-184.42 351.76,-181.25 357.69,-190.03 361.87,-184.42"/>
</g>
<!-- 9&#45;&gt;6 -->
<g id="edge16" class="edge">
<title>9&#45;&gt;6</title>
<path fill="none" stroke="black" d="M428.48,-215.59C438.54,-191.4 456.83,-147.36 468.76,-118.65"/>
<polygon fill="black" stroke="black" points="471.95,-120.09 472.56,-109.51 465.49,-117.4 471.95,-120.09"/>
</g>
<!-- 10 -->
<g id="node11" class="node">
<title>10</title>
<polygon fill="none" stroke="black" points="433.25,-180 379.25,-180 379.25,-144 433.25,-144 433.25,-180"/>
<text text-anchor="middle" x="406.25" y="-157.32" font-family="Times,serif" font-size="14.00">kv</text>
</g>
<!-- 9&#45;&gt;10 -->
<g id="edge17" class="edge">
<title>9&#45;&gt;10</title>
<path fill="none" stroke="black" d="M417.54,-215.7C415.96,-208.32 414.08,-199.52 412.3,-191.25"/>
<polygon fill="black" stroke="black" points="415.75,-190.63 410.23,-181.58 408.91,-192.1 415.75,-190.63"/>
</g>
<!-- 10&#45;&gt;4 -->
<g id="edge20" class="edge">
<title>10&#45;&gt;4</title>
<path fill="none" stroke="black" d="M410.25,-143.75C413.67,-125.16 416.57,-95.14 406.25,-72 401.36,-61.04 392.97,-51.4 384.01,-43.45"/>
<polygon fill="black" stroke="black" points="386.48,-40.95 376.53,-37.32 382.05,-46.37 386.48,-40.95"/>
</g>
<!-- 10&#45;&gt;6 -->
<g id="edge19" class="edge">
<title>10&#45;&gt;6</title>
<path fill="none" stroke="black" d="M424.54,-143.7C433.35,-135.37 444.07,-125.22 453.75,-116.07"/>
<polygon fill="black" stroke="black" points="455.95,-118.8 460.81,-109.39 451.14,-113.72 455.95,-118.8"/>
</g>
<!-- 11 -->
<g id="node12" class="node">
<title>11</title>
<polygon fill="none" stroke="black" points="397.25,-108 343.25,-108 343.25,-72 397.25,-72 397.25,-108"/>
<text text-anchor="middle" x="370.25" y="-85.33" font-family="Times,serif" font-size="14.00">starc</text>
</g>
<!-- 10&#45;&gt;11 -->
<g id="edge21" class="edge">
<title>10&#45;&gt;11</title>
<path fill="none" stroke="black" d="M397.35,-143.7C393.38,-135.98 388.62,-126.71 384.19,-118.11"/>
<polygon fill="black" stroke="black" points="387.42,-116.74 379.74,-109.45 381.2,-119.94 387.42,-116.74"/>
</g>
<!-- 12&#45;&gt;2 -->
<g id="edge23" class="edge">
<title>12&#45;&gt;2</title>
<path fill="none" stroke="black" d="M280.58,-215.7C287.78,-207.56 296.53,-197.69 304.49,-188.7"/>
<polygon fill="black" stroke="black" points="307.09,-191.04 311.1,-181.24 301.85,-186.4 307.09,-191.04"/>
</g>
<!-- 12&#45;&gt;6 -->
<g id="edge22" class="edge">
<title>12&#45;&gt;6</title>
<path fill="none" stroke="black" d="M264.2,-215.85C263.96,-195.93 266.75,-163.34 285.25,-144 290.75,-138.25 386.56,-113.99 441.79,-100.37"/>
<polygon fill="black" stroke="black" points="442.57,-103.79 451.45,-98 440.9,-96.99 442.57,-103.79"/>
</g>
<!-- 13&#45;&gt;1 -->
<g id="edge24" class="edge">
<title>13&#45;&gt;1</title>
<path fill="none" stroke="black" d="M90.15,-431.91C93.64,-402.33 101.84,-339.76 114.25,-288 116.19,-279.92 118.74,-271.29 121.28,-263.38"/>
<polygon fill="black" stroke="black" points="124.59,-264.51 124.43,-253.91 117.95,-262.3 124.59,-264.51"/>
</g>
<!-- 13&#45;&gt;5 -->
<g id="edge25" class="edge">
<title>13&#45;&gt;5</title>
<path fill="none" stroke="black" d="M115.72,-442.41C160.12,-431.77 248.97,-410.47 311.4,-395.5"/>
<polygon fill="black" stroke="black" points="311.97,-398.97 320.88,-393.23 310.34,-392.16 311.97,-398.97"/>
</g>
<!-- 13&#45;&gt;12 -->
<g id="edge27" class="edge">
<title>13&#45;&gt;12</title>
<path fill="none" stroke="black" d="M115.51,-431.92C147.8,-410.41 201.24,-370.56 233.25,-324 245.9,-305.6 254.14,-281.63 259.09,-263.2"/>
<polygon fill="black" stroke="black" points="262.42,-264.3 261.45,-253.75 255.63,-262.6 262.42,-264.3"/>
</g>
<!-- 14 -->
<g id="node15" class="node">
<title>14</title>
<polygon fill="none" stroke="black" points="60.25,-396 6.25,-396 6.25,-360 60.25,-360 60.25,-396"/>
<text text-anchor="middle" x="33.25" y="-373.32" font-family="Times,serif" font-size="14.00">rope</text>
</g>
<!-- 13&#45;&gt;14 -->
<g id="edge26" class="edge">
<title>13&#45;&gt;14</title>
<path fill="none" stroke="black" d="M74.65,-431.7C68.33,-423.64 60.67,-413.89 53.66,-404.98"/>
<polygon fill="black" stroke="black" points="56.55,-403 47.62,-397.29 51.05,-407.32 56.55,-403"/>
</g>
<!-- 15 -->
<g id="node16" class="node">
<title>15</title>
<polygon fill="none" stroke="black" points="62.5,-324 0,-324 0,-288 62.5,-288 62.5,-324"/>
<text text-anchor="middle" x="31.25" y="-301.32" font-family="Times,serif" font-size="14.00">names</text>
</g>
<!-- 14&#45;&gt;15 -->
<g id="edge28" class="edge">
<title>14&#45;&gt;15</title>
<path fill="none" stroke="black" d="M32.76,-359.7C32.55,-352.41 32.3,-343.73 32.07,-335.54"/>
<polygon fill="black" stroke="black" points="35.57,-335.51 31.78,-325.62 28.57,-335.71 35.57,-335.51"/>
</g>
<!-- 16 -->
<g id="node17" class="node">
<title>16</title>
<polygon fill="none" stroke="black" points="511.88,-468 436.62,-468 436.62,-432 511.88,-432 511.88,-468"/>
<text text-anchor="middle" x="474.25" y="-445.32" font-family="Times,serif" font-size="14.00">cart&#45;app</text>
</g>
<!-- 16&#45;&gt;2 -->
<g id="edge29" class="edge">
<title>16&#45;&gt;2</title>
<path fill="none" stroke="black" d="M485.88,-431.78C504.48,-402 537,-339.15 518.25,-288 503.81,-248.62 491.2,-240.62 457.25,-216 455.35,-214.62 408.53,-195.66 371.62,-180.8"/>
<polygon fill="black" stroke="black" points="373.02,-177.59 362.43,-177.11 370.41,-184.09 373.02,-177.59"/>
</g>
<!-- 16&#45;&gt;5 -->
<g id="edge30" class="edge">
<title>16&#45;&gt;5</title>
<path fill="none" stroke="black" stroke-dasharray="1,5" d="M451.01,-431.7C439.38,-423.03 425.1,-412.4 412.43,-402.96"/>
<polygon fill="black" stroke="black" points="414.87,-400.42 404.76,-397.25 410.69,-406.03 414.87,-400.42"/>
</g>
<!-- 17 -->
<g id="node18" class="node">
<title>17</title>
<polygon fill="none" stroke="black" points="556.5,-540 446,-540 446,-504 556.5,-504 556.5,-540"/>
<text text-anchor="middle" x="501.25" y="-517.33" font-family="Times,serif" font-size="14.00">cart&#45;frontend</text>
</g>
<!-- 17&#45;&gt;16 -->
<g id="edge31" class="edge">
<title>17&#45;&gt;16</title>
<path fill="none" stroke="black" d="M494.58,-503.7C491.67,-496.15 488.18,-487.12 484.93,-478.68"/>
<polygon fill="black" stroke="black" points="488.26,-477.59 481.39,-469.52 481.73,-480.11 488.26,-477.59"/>
</g>
<!-- 18 -->
<g id="node19" class="node">
<title>18</title>
<polygon fill="none" stroke="black" points="427.62,-540 332.88,-540 332.88,-504 427.62,-504 427.62,-540"/>
<text text-anchor="middle" x="380.25" y="-517.33" font-family="Times,serif" font-size="14.00">cart&#45;server</text>
</g>
<!-- 18&#45;&gt;5 -->
<g id="edge33" class="edge">
<title>18&#45;&gt;5</title>
<path fill="none" stroke="black" d="M380.25,-503.59C380.25,-479.61 380.25,-436.14 380.25,-407.42"/>
<polygon fill="black" stroke="black" points="383.75,-407.62 380.25,-397.62 376.75,-407.62 383.75,-407.62"/>
</g>
<!-- 18&#45;&gt;16 -->
<g id="edge32" class="edge">
<title>18&#45;&gt;16</title>
<path fill="none" stroke="black" d="M403.49,-503.7C415.12,-495.03 429.4,-484.4 442.07,-474.96"/>
<polygon fill="black" stroke="black" points="443.81,-478.03 449.74,-469.25 439.63,-472.42 443.81,-478.03"/>
</g>
<!-- 19 -->
<g id="node20" class="node">
<title>19</title>
<polygon fill="none" stroke="black" points="628.25,-540 574.25,-540 574.25,-504 628.25,-504 628.25,-540"/>
<text text-anchor="middle" x="601.25" y="-517.33" font-family="Times,serif" font-size="14.00">cli</text>
</g>
<!-- 20 -->
<g id="node21" class="node">
<title>20</title>
<polygon fill="none" stroke="black" points="628.75,-468 573.75,-468 573.75,-432 628.75,-432 628.75,-468"/>
<text text-anchor="middle" x="601.25" y="-445.32" font-family="Times,serif" font-size="14.00">nasty</text>
</g>
<!-- 19&#45;&gt;20 -->
<g id="edge34" class="edge">
<title>19&#45;&gt;20</title>
<path fill="none" stroke="black" d="M601.25,-503.7C601.25,-496.41 601.25,-487.73 601.25,-479.54"/>
<polygon fill="black" stroke="black" points="604.75,-479.62 601.25,-469.62 597.75,-479.62 604.75,-479.62"/>
</g>
<!-- 21 -->
<g id="node22" class="node">
<title>21</title>
<polygon fill="none" stroke="black" points="104.38,-540 32.12,-540 32.12,-504 104.38,-504 104.38,-540"/>
<text text-anchor="middle" x="68.25" y="-517.33" font-family="Times,serif" font-size="14.00">daemon</text>
</g>
<!-- 21&#45;&gt;13 -->
<g id="edge36" class="edge">
<title>21&#45;&gt;13</title>
<path fill="none" stroke="black" d="M73.19,-503.7C75.33,-496.24 77.87,-487.32 80.26,-478.97"/>
<polygon fill="black" stroke="black" points="83.57,-480.14 82.95,-469.56 76.83,-478.21 83.57,-480.14"/>
</g>
<!-- 21&#45;&gt;14 -->
<g id="edge35" class="edge">
<title>21&#45;&gt;14</title>
<path fill="none" stroke="black" d="M62.7,-503.92C59.44,-493.58 55.36,-480.1 52.25,-468 47.1,-447.98 42.25,-425.19 38.74,-407.67"/>
<polygon fill="black" stroke="black" points="42.2,-407.11 36.83,-397.98 35.33,-408.47 42.2,-407.11"/>
</g>
<!-- 22 -->
<g id="node23" class="node">
<title>22</title>
<polygon fill="none" stroke="black" points="223.75,-324 156.75,-324 156.75,-288 223.75,-288 223.75,-324"/>
<text text-anchor="middle" x="190.25" y="-301.32" font-family="Times,serif" font-size="14.00">fetcher</text>
</g>
<!-- 22&#45;&gt;1 -->
<g id="edge38" class="edge">
<title>22&#45;&gt;1</title>
<path fill="none" stroke="black" d="M175.67,-287.7C168.81,-279.56 160.49,-269.69 152.91,-260.7"/>
<polygon fill="black" stroke="black" points="155.76,-258.65 146.64,-253.26 150.41,-263.16 155.76,-258.65"/>
</g>
<!-- 22&#45;&gt;2 -->
<g id="edge37" class="edge">
<title>22&#45;&gt;2</title>
<path fill="none" stroke="black" d="M192.34,-287.65C195.51,-268.14 203.21,-236.52 221.25,-216 237.45,-197.58 261.55,-184.82 282.68,-176.45"/>
<polygon fill="black" stroke="black" points="283.82,-179.75 291.98,-172.99 281.38,-173.19 283.82,-179.75"/>
</g>
<!-- 22&#45;&gt;12 -->
<g id="edge39" class="edge">
<title>22&#45;&gt;12</title>
<path fill="none" stroke="black" d="M208.79,-287.7C217.71,-279.37 228.58,-269.22 238.39,-260.07"/>
<polygon fill="black" stroke="black" points="240.64,-262.76 245.56,-253.38 235.86,-257.64 240.64,-262.76"/>
</g>
<!-- 23 -->
<g id="node24" class="node">
<title>23</title>
<polygon fill="none" stroke="black" points="508.75,-324 429.75,-324 429.75,-288 508.75,-288 508.75,-324"/>
<text text-anchor="middle" x="469.25" y="-301.32" font-family="Times,serif" font-size="14.00">migrator</text>
</g>
<!-- 23&#45;&gt;9 -->
<g id="edge40" class="edge">
<title>23&#45;&gt;9</title>
<path fill="none" stroke="black" d="M457.38,-287.7C451.98,-279.81 445.46,-270.3 439.45,-261.55"/>
<polygon fill="black" stroke="black" points="442.38,-259.62 433.83,-253.35 436.6,-263.58 442.38,-259.62"/>
</g>
</g>
</svg>
