<?xml version="1.0" encoding="UTF-8" standalone="no"?>
<!DOCTYPE svg PUBLIC "-//W3C//DTD SVG 1.1//EN"
 "http://www.w3.org/Graphics/SVG/1.1/DTD/svg11.dtd">
<!-- Generated by graphviz version 12.1.2 (0)
 -->
<!-- Pages: 1 -->
<svg width="639pt" height="620pt"
 viewBox="0.00 0.00 638.75 620.00" xmlns="http://www.w3.org/2000/svg" xmlns:xlink="http://www.w3.org/1999/xlink">
<g id="graph0" class="graph" transform="scale(1 1) rotate(0) translate(4 616)">
<polygon fill="white" stroke="none" points="-4,4 -4,-616 634.75,-616 634.75,4 -4,4"/>
<!-- 0 -->
<g id="node1" class="node">
<title>0</title>
<polygon fill="none" stroke="black" points="451.5,-612 397.5,-612 397.5,-576 451.5,-576 451.5,-612"/>
<text text-anchor="middle" x="424.5" y="-589.33" font-family="Times,serif" font-size="14.00">api</text>
</g>
<!-- 1 -->
<g id="node2" class="node">
<title>1</title>
<polygon fill="none" stroke="black" points="478.25,-324 406.75,-324 406.75,-288 478.25,-288 478.25,-324"/>
<text text-anchor="middle" x="442.5" y="-301.32" font-family="Times,serif" font-size="14.00">mollusk</text>
</g>
<!-- 0&#45;&gt;1 -->
<g id="edge1" class="edge">
<title>0&#45;&gt;1</title>
<path fill="none" stroke="black" d="M425.6,-575.54C428.61,-527.76 436.99,-394.51 440.7,-335.61"/>
<polygon fill="black" stroke="black" points="444.19,-335.94 441.32,-325.74 437.2,-335.5 444.19,-335.94"/>
</g>
<!-- 6 -->
<g id="node7" class="node">
<title>6</title>
<polygon fill="none" stroke="black" points="336,-468 221,-468 221,-432 336,-432 336,-468"/>
<text text-anchor="middle" x="278.5" y="-445.32" font-family="Times,serif" font-size="14.00">prime&#45;domain</text>
</g>
<!-- 0&#45;&gt;6 -->
<g id="edge2" class="edge">
<title>0&#45;&gt;6</title>
<path fill="none" stroke="black" d="M409.48,-575.69C393.29,-557.32 366.47,-527.72 341.5,-504 331.32,-494.33 319.68,-484.28 309.19,-475.56"/>
<polygon fill="black" stroke="black" points="311.46,-472.89 301.51,-469.25 307.02,-478.3 311.46,-472.89"/>
</g>
<!-- 16 -->
<g id="node17" class="node">
<title>16</title>
<polygon fill="none" stroke="black" points="498.5,-540 444.5,-540 444.5,-504 498.5,-504 498.5,-540"/>
<text text-anchor="middle" x="471.5" y="-517.33" font-family="Times,serif" font-size="14.00">tasks</text>
</g>
<!-- 0&#45;&gt;16 -->
<g id="edge3" class="edge">
<title>0&#45;&gt;16</title>
<path fill="none" stroke="black" d="M436.12,-575.7C441.41,-567.81 447.8,-558.3 453.68,-549.55"/>
<polygon fill="black" stroke="black" points="456.5,-551.61 459.17,-541.36 450.69,-547.71 456.5,-551.61"/>
</g>
<!-- 2 -->
<g id="node3" class="node">
<title>2</title>
<polygon fill="none" stroke="black" points="448,-252 381,-252 381,-216 448,-216 448,-252"/>
<text text-anchor="middle" x="414.5" y="-229.32" font-family="Times,serif" font-size="14.00">models</text>
</g>
<!-- 1&#45;&gt;2 -->
<g id="edge4" class="edge">
<title>1&#45;&gt;2</title>
<path fill="none" stroke="black" d="M435.58,-287.7C432.56,-280.15 428.95,-271.12 425.57,-262.68"/>
<polygon fill="black" stroke="black" points="428.87,-261.49 421.9,-253.51 422.37,-264.09 428.87,-261.49"/>
</g>
<!-- 3 -->
<g id="node4" class="node">
<title>3</title>
<polygon fill="none" stroke="black" points="388.5,-108 334.5,-108 334.5,-72 388.5,-72 388.5,-108"/>
<text text-anchor="middle" x="361.5" y="-85.33" font-family="Times,serif" font-size="14.00">dvf</text>
</g>
<!-- 2&#45;&gt;3 -->
<g id="edge5" class="edge">
<title>2&#45;&gt;3</title>
<path fill="none" stroke="black" d="M433.7,-215.53C451.34,-197.28 472.75,-168.02 458.5,-144 445.74,-122.5 420.85,-109.15 399.47,-101.23"/>
<polygon fill="black" stroke="black" points="400.72,-97.96 390.13,-98.06 398.47,-104.59 400.72,-97.96"/>
</g>
<!-- 5 -->
<g id="node6" class="node">
<title>5</title>
<polygon fill="none" stroke="black" points="449.25,-180 389.75,-180 389.75,-144 449.25,-144 449.25,-180"/>
<text text-anchor="middle" x="419.5" y="-157.32" font-family="Times,serif" font-size="14.00">model</text>
</g>
<!-- 2&#45;&gt;5 -->
<g id="edge6" class="edge">
<title>2&#45;&gt;5</title>
<path fill="none" stroke="black" d="M415.74,-215.7C416.26,-208.41 416.88,-199.73 417.46,-191.54"/>
<polygon fill="black" stroke="black" points="420.95,-191.84 418.17,-181.61 413.97,-191.34 420.95,-191.84"/>
</g>
<!-- 4 -->
<g id="node5" class="node">
<title>4</title>
<polygon fill="none" stroke="black" points="260.5,-36 190.5,-36 190.5,0 260.5,0 260.5,-36"/>
<text text-anchor="middle" x="225.5" y="-13.32" font-family="Times,serif" font-size="14.00">slugger</text>
</g>
<!-- 3&#45;&gt;4 -->
<g id="edge7" class="edge">
<title>3&#45;&gt;4</title>
<path fill="none" stroke="black" d="M334.31,-75C315.79,-65.47 290.86,-52.64 269.54,-41.67"/>
<polygon fill="black" stroke="black" points="271.24,-38.61 260.75,-37.14 268.04,-44.83 271.24,-38.61"/>
</g>
<!-- 5&#45;&gt;3 -->
<g id="edge8" class="edge">
<title>5&#45;&gt;3</title>
<path fill="none" stroke="black" d="M405.16,-143.7C398.42,-135.56 390.24,-125.69 382.8,-116.7"/>
<polygon fill="black" stroke="black" points="385.71,-114.74 376.64,-109.27 380.32,-119.2 385.71,-114.74"/>
</g>
<!-- 6&#45;&gt;2 -->
<g id="edge11" class="edge">
<title>6&#45;&gt;2</title>
<path fill="none" stroke="black" d="M285.9,-431.68C299.32,-401.21 329.53,-336.63 364.5,-288 371.48,-278.29 380.12,-268.53 388.24,-260.08"/>
<polygon fill="black" stroke="black" points="390.51,-262.76 395.05,-253.19 385.53,-257.84 390.51,-262.76"/>
</g>
<!-- 7 -->
<g id="node8" class="node">
<title>7</title>
<polygon fill="none" stroke="black" points="324.88,-252 260.12,-252 260.12,-216 324.88,-216 324.88,-252"/>
<text text-anchor="middle" x="292.5" y="-229.32" font-family="Times,serif" font-size="14.00">crunch</text>
</g>
<!-- 6&#45;&gt;7 -->
<g id="edge9" class="edge">
<title>6&#45;&gt;7</title>
<path fill="none" stroke="black" d="M279.62,-431.85C282.02,-395.14 287.68,-308.66 290.63,-263.53"/>
<polygon fill="black" stroke="black" points="294.11,-263.95 291.27,-253.74 287.13,-263.49 294.11,-263.95"/>
</g>
<!-- 9 -->
<g id="node10" class="node">
<title>9</title>
<polygon fill="none" stroke="black" points="61.5,-180 7.5,-180 7.5,-144 61.5,-144 61.5,-180"/>
<text text-anchor="middle" x="34.5" y="-157.32" font-family="Times,serif" font-size="14.00">hex</text>
</g>
<!-- 6&#45;&gt;9 -->
<g id="edge10" class="edge">
<title>6&#45;&gt;9</title>
<path fill="none" stroke="black" d="M220.75,-440.86C167.76,-432.21 94.54,-416.9 74.5,-396 21.08,-340.28 24.56,-240.69 30.17,-191.75"/>
<polygon fill="black" stroke="black" points="33.63,-192.32 31.42,-181.96 26.68,-191.43 33.63,-192.32"/>
</g>
<!-- 11 -->
<g id="node12" class="node">
<title>11</title>
<polygon fill="none" stroke="black" points="139.38,-396 83.62,-396 83.62,-360 139.38,-360 139.38,-396"/>
<text text-anchor="middle" x="111.5" y="-373.32" font-family="Times,serif" font-size="14.00">repos</text>
</g>
<!-- 6&#45;&gt;11 -->
<g id="edge12" class="edge">
<title>6&#45;&gt;11</title>
<path fill="none" stroke="black" d="M233.67,-431.59C210.73,-422.52 182.18,-410.98 150.22,-397.1"/>
<polygon fill="black" stroke="black" points="151.68,-393.92 141.12,-393.12 148.88,-400.33 151.68,-393.92"/>
</g>
<!-- 7&#45;&gt;3 -->
<g id="edge13" class="edge">
<title>7&#45;&gt;3</title>
<path fill="none" stroke="black" d="M313.61,-215.64C323.83,-206.13 335.39,-193.55 342.5,-180 352.33,-161.27 357.08,-137.79 359.37,-119.65"/>
<polygon fill="black" stroke="black" points="362.83,-120.15 360.41,-109.84 355.87,-119.41 362.83,-120.15"/>
</g>
<!-- 8 -->
<g id="node9" class="node">
<title>8</title>
<polygon fill="none" stroke="black" points="333.12,-180 227.88,-180 227.88,-144 333.12,-144 333.12,-180"/>
<text text-anchor="middle" x="280.5" y="-157.32" font-family="Times,serif" font-size="14.00">stream&#45;tools</text>
</g>
<!-- 7&#45;&gt;8 -->
<g id="edge14" class="edge">
<title>7&#45;&gt;8</title>
<path fill="none" stroke="black" d="M289.53,-215.7C288.27,-208.32 286.76,-199.52 285.34,-191.25"/>
<polygon fill="black" stroke="black" points="288.83,-190.86 283.69,-181.6 281.93,-192.04 288.83,-190.86"/>
</g>
<!-- 8&#45;&gt;3 -->
<g id="edge15" class="edge">
<title>8&#45;&gt;3</title>
<path fill="none" stroke="black" d="M300.52,-143.7C310.26,-135.28 322.14,-125.02 332.81,-115.79"/>
<polygon fill="black" stroke="black" points="335,-118.52 340.28,-109.34 330.43,-113.23 335,-118.52"/>
</g>
<!-- 10 -->
<g id="node11" class="node">
<title>10</title>
<polygon fill="none" stroke="black" points="61,-108 0,-108 0,-72 61,-72 61,-108"/>
<text text-anchor="middle" x="30.5" y="-85.33" font-family="Times,serif" font-size="14.00">health</text>
</g>
<!-- 9&#45;&gt;10 -->
<g id="edge16" class="edge">
<title>9&#45;&gt;10</title>
<path fill="none" stroke="black" d="M33.51,-143.7C33.09,-136.41 32.6,-127.73 32.13,-119.54"/>
<polygon fill="black" stroke="black" points="35.63,-119.4 31.56,-109.62 28.64,-119.8 35.63,-119.4"/>
</g>
<!-- 11&#45;&gt;2 -->
<g id="edge19" class="edge">
<title>11&#45;&gt;2</title>
<path fill="none" stroke="black" d="M139.79,-363.63C142.4,-362.4 145,-361.18 147.5,-360 181.69,-343.93 190.28,-340.01 224.5,-324 274.41,-300.64 331.68,-273.81 370.18,-255.77"/>
<polygon fill="black" stroke="black" points="371.58,-258.98 379.15,-251.57 368.61,-252.64 371.58,-258.98"/>
</g>
<!-- 11&#45;&gt;9 -->
<g id="edge18" class="edge">
<title>11&#45;&gt;9</title>
<path fill="none" stroke="black" d="M103.36,-359.9C92.23,-336.1 72.11,-291.44 58.5,-252 51.6,-231.99 45.42,-208.9 41.06,-191.26"/>
<polygon fill="black" stroke="black" points="44.52,-190.64 38.77,-181.74 37.71,-192.29 44.52,-190.64"/>
</g>
<!-- 12 -->
<g id="node13" class="node">
<title>12</title>
<polygon fill="none" stroke="black" points="215.5,-324 161.5,-324 161.5,-288 215.5,-288 215.5,-324"/>
<text text-anchor="middle" x="188.5" y="-301.32" font-family="Times,serif" font-size="14.00">db</text>
</g>
<!-- 11&#45;&gt;12 -->
<g id="edge17" class="edge">
<title>11&#45;&gt;12</title>
<path fill="none" stroke="black" d="M130.53,-359.7C139.7,-351.37 150.85,-341.22 160.93,-332.07"/>
<polygon fill="black" stroke="black" points="163.25,-334.68 168.3,-325.37 158.54,-329.5 163.25,-334.68"/>
</g>
<!-- 15 -->
<g id="node16" class="node">
<title>15</title>
<polygon fill="none" stroke="black" points="242.5,-252 172.5,-252 172.5,-216 242.5,-216 242.5,-252"/>
<text text-anchor="middle" x="207.5" y="-229.32" font-family="Times,serif" font-size="14.00">storage</text>
</g>
<!-- 11&#45;&gt;15 -->
<g id="edge20" class="edge">
<title>11&#45;&gt;15</title>
<path fill="none" stroke="black" d="M117.32,-359.59C124.06,-340.87 136.34,-310.74 152.5,-288 159.66,-277.92 168.9,-268.16 177.75,-259.82"/>
<polygon fill="black" stroke="black" points="179.87,-262.62 184.92,-253.3 175.16,-257.44 179.87,-262.62"/>
</g>
<!-- 12&#45;&gt;2 -->
<g id="edge24" class="edge">
<title>12&#45;&gt;2</title>
<path fill="none" stroke="black" stroke-dasharray="1,5" d="M215.77,-297.35C250.82,-287.41 313.46,-269.28 366.5,-252 367.66,-251.62 368.83,-251.24 370.01,-250.85"/>
<polygon fill="black" stroke="black" points="370.97,-254.22 379.31,-247.68 368.72,-247.59 370.97,-254.22"/>
</g>
<!-- 12&#45;&gt;5 -->
<g id="edge23" class="edge">
<title>12&#45;&gt;5</title>
<path fill="none" stroke="black" d="M215.83,-298.95C246.3,-291.34 296.2,-276.25 333.5,-252 347.57,-242.85 376.51,-211.71 396.92,-188.84"/>
<polygon fill="black" stroke="black" points="399.52,-191.17 403.54,-181.37 394.28,-186.53 399.52,-191.17"/>
</g>
<!-- 12&#45;&gt;9 -->
<g id="edge21" class="edge">
<title>12&#45;&gt;9</title>
<path fill="none" stroke="black" d="M161.08,-294.45C140.26,-285.46 111.85,-270.98 91.5,-252 72.68,-234.45 57.37,-209.41 47.38,-190.36"/>
<polygon fill="black" stroke="black" points="50.57,-188.91 42.93,-181.56 44.32,-192.07 50.57,-188.91"/>
</g>
<!-- 13 -->
<g id="node14" class="node">
<title>13</title>
<polygon fill="none" stroke="black" points="154.5,-252 100.5,-252 100.5,-216 154.5,-216 154.5,-252"/>
<text text-anchor="middle" x="127.5" y="-229.32" font-family="Times,serif" font-size="14.00">kv</text>
</g>
<!-- 12&#45;&gt;13 -->
<g id="edge22" class="edge">
<title>12&#45;&gt;13</title>
<path fill="none" stroke="black" d="M173.42,-287.7C166.33,-279.56 157.73,-269.69 149.9,-260.7"/>
<polygon fill="black" stroke="black" points="152.61,-258.49 143.4,-253.25 147.33,-263.08 152.61,-258.49"/>
</g>
<!-- 13&#45;&gt;4 -->
<g id="edge26" class="edge">
<title>13&#45;&gt;4</title>
<path fill="none" stroke="black" d="M118.05,-215.78C109.33,-197.48 99.04,-167.95 108.5,-144 125.15,-101.84 163.48,-65.55 191.75,-43.1"/>
<polygon fill="black" stroke="black" points="193.57,-46.12 199.34,-37.24 189.29,-40.58 193.57,-46.12"/>
</g>
<!-- 13&#45;&gt;9 -->
<g id="edge25" class="edge">
<title>13&#45;&gt;9</title>
<path fill="none" stroke="black" d="M104.51,-215.7C93.11,-207.11 79.15,-196.61 66.7,-187.24"/>
<polygon fill="black" stroke="black" points="68.85,-184.47 58.76,-181.26 64.64,-190.07 68.85,-184.47"/>
</g>
<!-- 14 -->
<g id="node15" class="node">
<title>14</title>
<polygon fill="none" stroke="black" points="171.5,-180 117.5,-180 117.5,-144 171.5,-144 171.5,-180"/>
<text text-anchor="middle" x="144.5" y="-157.32" font-family="Times,serif" font-size="14.00">starc</text>
</g>
<!-- 13&#45;&gt;14 -->
<g id="edge27" class="edge">
<title>13&#45;&gt;14</title>
<path fill="none" stroke="black" d="M131.7,-215.7C133.49,-208.32 135.63,-199.52 137.64,-191.25"/>
<polygon fill="black" stroke="black" points="141.03,-192.12 139.99,-181.58 134.23,-190.47 141.03,-192.12"/>
</g>
<!-- 15&#45;&gt;3 -->
<g id="edge28" class="edge">
<title>15&#45;&gt;3</title>
<path fill="none" stroke="black" d="M204.71,-215.6C202.6,-196.05 202.37,-164.39 218.5,-144 243.7,-112.15 290.06,-99.44 323.16,-94.37"/>
<polygon fill="black" stroke="black" points="323.31,-97.88 332.75,-93.07 322.38,-90.94 323.31,-97.88"/>
</g>
<!-- 15&#45;&gt;8 -->
<g id="edge30" class="edge">
<title>15&#45;&gt;8</title>
<path fill="none" stroke="black" d="M225.54,-215.7C234.23,-207.37 244.81,-197.22 254.36,-188.07"/>
<polygon fill="black" stroke="black" points="256.52,-190.84 261.32,-181.39 251.68,-185.79 256.52,-190.84"/>
</g>
<!-- 15&#45;&gt;9 -->
<g id="edge29" class="edge">
<title>15&#45;&gt;9</title>
<path fill="none" stroke="black" d="M172.07,-218.67C143.02,-206.91 101.99,-190.31 72.31,-178.3"/>
<polygon fill="black" stroke="black" points="73.91,-175.17 63.33,-174.66 71.29,-181.66 73.91,-175.17"/>
</g>
<!-- 16&#45;&gt;1 -->
<g id="edge31" class="edge">
<title>16&#45;&gt;1</title>
<path fill="none" stroke="black" d="M469.18,-503.85C464.2,-467.14 452.48,-380.66 446.37,-335.53"/>
<polygon fill="black" stroke="black" points="449.85,-335.17 445.04,-325.73 442.91,-336.11 449.85,-335.17"/>
</g>
<!-- 16&#45;&gt;6 -->
<g id="edge32" class="edge">
<title>16&#45;&gt;6</title>
<path fill="none" stroke="black" d="M444.26,-511.12C416.57,-501.08 372.81,-485.21 337.21,-472.29"/>
<polygon fill="black" stroke="black" points="338.46,-469.03 327.87,-468.91 336.08,-475.61 338.46,-469.03"/>
</g>
<!-- 17 -->
<g id="node18" class="node">
<title>17</title>
<polygon fill="none" stroke="black" points="553.5,-468 499.5,-468 499.5,-432 553.5,-432 553.5,-468"/>
<text text-anchor="middle" x="526.5" y="-445.32" font-family="Times,serif" font-size="14.00">rope</text>
</g>
<!-- 16&#45;&gt;17 -->
<g id="edge33" class="edge">
<title>16&#45;&gt;17</title>
<path fill="none" stroke="black" d="M485.1,-503.7C491.42,-495.64 499.08,-485.89 506.09,-476.98"/>
<polygon fill="black" stroke="black" points="508.7,-479.32 512.13,-469.29 503.2,-475 508.7,-479.32"/>
</g>
<!-- 18 -->
<g id="node19" class="node">
<title>18</title>
<polygon fill="none" stroke="black" points="630.75,-396 568.25,-396 568.25,-360 630.75,-360 630.75,-396"/>
<text text-anchor="middle" x="599.5" y="-373.32" font-family="Times,serif" font-size="14.00">names</text>
</g>
<!-- 17&#45;&gt;18 -->
<g id="edge34" class="edge">
<title>17&#45;&gt;18</title>
<path fill="none" stroke="black" d="M544.54,-431.7C553.23,-423.37 563.81,-413.22 573.36,-404.07"/>
<polygon fill="black" stroke="black" points="575.52,-406.84 580.32,-397.39 570.68,-401.79 575.52,-406.84"/>
</g>
<!-- 19 -->
<g id="node20" class="node">
<title>19</title>
<polygon fill="none" stroke="black" points="332.12,-540 256.88,-540 256.88,-504 332.12,-504 332.12,-540"/>
<text text-anchor="middle" x="294.5" y="-517.33" font-family="Times,serif" font-size="14.00">cart&#45;app</text>
</g>
<!-- 19&#45;&gt;2 -->
<g id="edge35" class="edge">
<title>19&#45;&gt;2</title>
<path fill="none" stroke="black" d="M315.39,-503.73C325.76,-494.16 337.71,-481.49 345.5,-468 387.14,-395.89 373.23,-367.65 397.5,-288 399.99,-279.83 402.79,-270.99 405.38,-262.91"/>
<polygon fill="black" stroke="black" points="408.65,-264.18 408.39,-253.59 401.99,-262.02 408.65,-264.18"/>
</g>
<!-- 19&#45;&gt;6 -->
<g id="edge36" class="edge">
<title>19&#45;&gt;6</title>
<path fill="none" stroke="black" stroke-dasharray="1,5" d="M290.54,-503.7C288.86,-496.32 286.85,-487.52 284.96,-479.25"/>
<polygon fill="black" stroke="black" points="288.39,-478.55 282.75,-469.58 281.56,-480.11 288.39,-478.55"/>
</g>
<!-- 20 -->
<g id="node21" class="node">
<title>20</title>
<polygon fill="none" stroke="black" points="379.75,-612 269.25,-612 269.25,-576 379.75,-576 379.75,-612"/>
<text text-anchor="middle" x="324.5" y="-589.33" font-family="Times,serif" font-size="14.00">cart&#45;frontend</text>
</g>
<!-- 20&#45;&gt;19 -->
<g id="edge37" class="edge">
<title>20&#45;&gt;19</title>
<path fill="none" stroke="black" d="M317.08,-575.7C313.85,-568.15 309.98,-559.12 306.36,-550.68"/>
<polygon fill="black" stroke="black" points="309.58,-549.31 302.43,-541.5 303.15,-552.07 309.58,-549.31"/>
</g>
<!-- 21 -->
<g id="node22" class="node">
<title>21</title>
<polygon fill="none" stroke="black" points="250.88,-612 156.12,-612 156.12,-576 250.88,-576 250.88,-612"/>
<text text-anchor="middle" x="203.5" y="-589.33" font-family="Times,serif" font-size="14.00">cart&#45;server</text>
</g>
<!-- 21&#45;&gt;6 -->
<g id="edge39" class="edge">
<title>21&#45;&gt;6</title>
<path fill="none" stroke="black" d="M211.58,-575.76C220.15,-557.69 234.26,-528.58 247.5,-504 252.05,-495.55 257.23,-486.5 262.04,-478.3"/>
<polygon fill="black" stroke="black" points="264.99,-480.18 267.08,-469.79 258.97,-476.61 264.99,-480.18"/>
</g>
<!-- 21&#45;&gt;19 -->
<g id="edge38" class="edge">
<title>21&#45;&gt;19</title>
<path fill="none" stroke="black" d="M225.99,-575.7C237.15,-567.11 250.81,-556.61 262.99,-547.24"/>
<polygon fill="black" stroke="black" points="264.96,-550.14 270.75,-541.27 260.69,-544.59 264.96,-550.14"/>
</g>
<!-- 22 -->
<g id="node23" class="node">
<title>22</title>
<polygon fill="none" stroke="black" points="627.5,-612 573.5,-612 573.5,-576 627.5,-576 627.5,-612"/>
<text text-anchor="middle" x="600.5" y="-589.33" font-family="Times,serif" font-size="14.00">cli</text>
</g>
<!-- 23 -->
<g id="node24" class="node">
<title>23</title>
<polygon fill="none" stroke="black" points="628,-540 573,-540 573,-504 628,-504 628,-540"/>
<text text-anchor="middle" x="600.5" y="-517.33" font-family="Times,serif" font-size="14.00">nasty</text>
</g>
<!-- 22&#45;&gt;23 -->
<g id="edge40" class="edge">
<title>22&#45;&gt;23</title>
<path fill="none" stroke="black" d="M600.5,-575.7C600.5,-568.41 600.5,-559.73 600.5,-551.54"/>
<polygon fill="black" stroke="black" points="604,-551.62 600.5,-541.62 597,-551.62 604,-551.62"/>
</g>
<!-- 24 -->
<g id="node25" class="node">
<title>24</title>
<polygon fill="none" stroke="black" points="555.62,-612 483.38,-612 483.38,-576 555.62,-576 555.62,-612"/>
<text text-anchor="middle" x="519.5" y="-589.33" font-family="Times,serif" font-size="14.00">daemon</text>
</g>
<!-- 24&#45;&gt;16 -->
<g id="edge42" class="edge">
<title>24&#45;&gt;16</title>
<path fill="none" stroke="black" d="M507.63,-575.7C502.23,-567.81 495.71,-558.3 489.7,-549.55"/>
<polygon fill="black" stroke="black" points="492.63,-547.62 484.08,-541.35 486.85,-551.58 492.63,-547.62"/>
</g>
<!-- 24&#45;&gt;17 -->
<g id="edge41" class="edge">
<title>24&#45;&gt;17</title>
<path fill="none" stroke="black" d="M520.36,-575.59C521.54,-551.61 523.68,-508.14 525.1,-479.42"/>
<polygon fill="black" stroke="black" points="528.59,-479.78 525.58,-469.62 521.59,-479.44 528.59,-479.78"/>
</g>
<!-- 25 -->
<g id="node26" class="node">
<title>25</title>
<polygon fill="none" stroke="black" points="550,-396 483,-396 483,-360 550,-360 550,-396"/>
<text text-anchor="middle" x="516.5" y="-373.32" font-family="Times,serif" font-size="14.00">fetcher</text>
</g>
<!-- 25&#45;&gt;1 -->
<g id="edge44" class="edge">
<title>25&#45;&gt;1</title>
<path fill="none" stroke="black" d="M498.21,-359.7C489.4,-351.37 478.68,-341.22 469,-332.07"/>
<polygon fill="black" stroke="black" points="471.61,-329.72 461.94,-325.39 466.8,-334.8 471.61,-329.72"/>
</g>
<!-- 25&#45;&gt;3 -->
<g id="edge43" class="edge">
<title>25&#45;&gt;3</title>
<path fill="none" stroke="black" d="M518.68,-359.73C523.01,-317.58 528.07,-208.24 474.5,-144 455.48,-121.2 424.45,-107.62 399.72,-99.93"/>
<polygon fill="black" stroke="black" points="400.89,-96.62 390.31,-97.21 398.95,-103.35 400.89,-96.62"/>
</g>
<!-- 25&#45;&gt;15 -->
<g id="edge45" class="edge">
<title>25&#45;&gt;15</title>
<path fill="none" stroke="black" d="M516.01,-359.67C514.44,-339.26 508.57,-305.87 487.5,-288 409.28,-221.64 357.56,-275.44 253.71,-252.09"/>
<polygon fill="black" stroke="black" points="254.84,-248.77 244.29,-249.77 253.16,-255.56 254.84,-248.77"/>
</g>
<!-- 26 -->
<g id="node27" class="node">
<title>26</title>
<polygon fill="none" stroke="black" points="236,-396 157,-396 157,-360 236,-360 236,-396"/>
<text text-anchor="middle" x="196.5" y="-373.32" font-family="Times,serif" font-size="14.00">migrator</text>
</g>
<!-- 26&#45;&gt;12 -->
<g id="edge46" class="edge">
<title>26&#45;&gt;12</title>
<path fill="none" stroke="black" d="M194.52,-359.7C193.69,-352.41 192.7,-343.73 191.76,-335.54"/>
<polygon fill="black" stroke="black" points="195.24,-335.15 190.63,-325.61 188.28,-335.94 195.24,-335.15"/>
</g>
</g>
</svg>
