<?xml version="1.0" encoding="UTF-8" standalone="no"?>
<!DOCTYPE svg PUBLIC "-//W3C//DTD SVG 1.1//EN"
 "http://www.w3.org/Graphics/SVG/1.1/DTD/svg11.dtd">
<!-- Generated by graphviz version 12.2.0 (0)
 -->
<!-- Pages: 1 -->
<svg width="821pt" height="620pt"
 viewBox="0.00 0.00 820.75 620.00" xmlns="http://www.w3.org/2000/svg" xmlns:xlink="http://www.w3.org/1999/xlink">
<g id="graph0" class="graph" transform="scale(1 1) rotate(0) translate(4 616)">
<polygon fill="white" stroke="none" points="-4,4 -4,-616 816.75,-616 816.75,4 -4,4"/>
<!-- 0 -->
<g id="node1" class="node">
<title>0</title>
<polygon fill="none" stroke="black" points="499.25,-612 445.25,-612 445.25,-576 499.25,-576 499.25,-612"/>
<text text-anchor="middle" x="472.25" y="-589.33" font-family="Times,serif" font-size="14.00">api</text>
</g>
<!-- 1 -->
<g id="node2" class="node">
<title>1</title>
<polygon fill="none" stroke="black" points="524,-324 452.5,-324 452.5,-288 524,-288 524,-324"/>
<text text-anchor="middle" x="488.25" y="-301.32" font-family="Times,serif" font-size="14.00">mollusk</text>
</g>
<!-- 0&#45;&gt;1 -->
<g id="edge1" class="edge">
<title>0&#45;&gt;1</title>
<path fill="none" stroke="black" d="M498.99,-575.62C528.95,-554.38 575.87,-515.33 595.25,-468 616.91,-415.09 562.37,-361.31 523.45,-331.24"/>
<polygon fill="black" stroke="black" points="525.74,-328.59 515.64,-325.39 521.54,-334.19 525.74,-328.59"/>
</g>
<!-- 6 -->
<g id="node7" class="node">
<title>6</title>
<polygon fill="none" stroke="black" points="585.75,-468 470.75,-468 470.75,-432 585.75,-432 585.75,-468"/>
<text text-anchor="middle" x="528.25" y="-445.32" font-family="Times,serif" font-size="14.00">prime&#45;domain</text>
</g>
<!-- 0&#45;&gt;6 -->
<g id="edge2" class="edge">
<title>0&#45;&gt;6</title>
<path fill="none" stroke="black" d="M479.12,-575.59C488.66,-551.4 506.02,-507.36 517.34,-478.65"/>
<polygon fill="black" stroke="black" points="520.53,-480.11 520.95,-469.52 514.02,-477.54 520.53,-480.11"/>
</g>
<!-- 15 -->
<g id="node16" class="node">
<title>15</title>
<polygon fill="none" stroke="black" points="469.25,-540 415.25,-540 415.25,-504 469.25,-504 469.25,-540"/>
<text text-anchor="middle" x="442.25" y="-517.33" font-family="Times,serif" font-size="14.00">tasks</text>
</g>
<!-- 0&#45;&gt;15 -->
<g id="edge3" class="edge">
<title>0&#45;&gt;15</title>
<path fill="none" stroke="black" d="M464.83,-575.7C461.6,-568.15 457.73,-559.12 454.11,-550.68"/>
<polygon fill="black" stroke="black" points="457.33,-549.31 450.18,-541.5 450.9,-552.07 457.33,-549.31"/>
</g>
<!-- 2 -->
<g id="node3" class="node">
<title>2</title>
<polygon fill="none" stroke="black" points="557.75,-252 490.75,-252 490.75,-216 557.75,-216 557.75,-252"/>
<text text-anchor="middle" x="524.25" y="-229.32" font-family="Times,serif" font-size="14.00">models</text>
</g>
<!-- 1&#45;&gt;2 -->
<g id="edge4" class="edge">
<title>1&#45;&gt;2</title>
<path fill="none" stroke="black" d="M497.15,-287.7C501.12,-279.98 505.88,-270.71 510.31,-262.11"/>
<polygon fill="black" stroke="black" points="513.3,-263.94 514.76,-253.45 507.08,-260.74 513.3,-263.94"/>
</g>
<!-- 3 -->
<g id="node4" class="node">
<title>3</title>
<polygon fill="none" stroke="black" points="451.25,-108 397.25,-108 397.25,-72 451.25,-72 451.25,-108"/>
<text text-anchor="middle" x="424.25" y="-85.33" font-family="Times,serif" font-size="14.00">dvf</text>
</g>
<!-- 2&#45;&gt;3 -->
<g id="edge5" class="edge">
<title>2&#45;&gt;3</title>
<path fill="none" stroke="black" d="M528.39,-215.84C531.98,-196.78 534.71,-165.85 521.25,-144 508.22,-122.85 483.57,-109.54 462.38,-101.55"/>
<polygon fill="black" stroke="black" points="463.72,-98.31 453.12,-98.34 461.42,-104.92 463.72,-98.31"/>
</g>
<!-- 5 -->
<g id="node6" class="node">
<title>5</title>
<polygon fill="none" stroke="black" points="512,-180 452.5,-180 452.5,-144 512,-144 512,-180"/>
<text text-anchor="middle" x="482.25" y="-157.32" font-family="Times,serif" font-size="14.00">model</text>
</g>
<!-- 2&#45;&gt;5 -->
<g id="edge6" class="edge">
<title>2&#45;&gt;5</title>
<path fill="none" stroke="black" d="M513.87,-215.7C509.19,-207.9 503.56,-198.51 498.35,-189.83"/>
<polygon fill="black" stroke="black" points="501.44,-188.18 493.29,-181.4 495.44,-191.78 501.44,-188.18"/>
</g>
<!-- 4 -->
<g id="node5" class="node">
<title>4</title>
<polygon fill="none" stroke="black" points="385.25,-36 315.25,-36 315.25,0 385.25,0 385.25,-36"/>
<text text-anchor="middle" x="350.25" y="-13.32" font-family="Times,serif" font-size="14.00">slugger</text>
</g>
<!-- 3&#45;&gt;4 -->
<g id="edge7" class="edge">
<title>3&#45;&gt;4</title>
<path fill="none" stroke="black" d="M405.96,-71.7C397.15,-63.37 386.43,-53.22 376.75,-44.07"/>
<polygon fill="black" stroke="black" points="379.36,-41.72 369.69,-37.39 374.55,-46.8 379.36,-41.72"/>
</g>
<!-- 5&#45;&gt;3 -->
<g id="edge8" class="edge">
<title>5&#45;&gt;3</title>
<path fill="none" stroke="black" d="M467.91,-143.7C461.17,-135.56 452.99,-125.69 445.55,-116.7"/>
<polygon fill="black" stroke="black" points="448.46,-114.74 439.39,-109.27 443.07,-119.2 448.46,-114.74"/>
</g>
<!-- 6&#45;&gt;2 -->
<g id="edge10" class="edge">
<title>6&#45;&gt;2</title>
<path fill="none" stroke="black" d="M530.1,-431.57C532.95,-402 537.64,-340.11 533.25,-288 532.57,-279.97 531.33,-271.33 529.98,-263.4"/>
<polygon fill="black" stroke="black" points="533.42,-262.79 528.18,-253.58 526.54,-264.05 533.42,-262.79"/>
</g>
<!-- 7 -->
<g id="node8" class="node">
<title>7</title>
<polygon fill="none" stroke="black" points="193.25,-180 139.25,-180 139.25,-144 193.25,-144 193.25,-180"/>
<text text-anchor="middle" x="166.25" y="-157.32" font-family="Times,serif" font-size="14.00">hex</text>
</g>
<!-- 6&#45;&gt;7 -->
<g id="edge9" class="edge">
<title>6&#45;&gt;7</title>
<path fill="none" stroke="black" d="M470.4,-439.56C378.81,-424.59 210.55,-396.99 209.25,-396 146.93,-348.35 153.6,-242.39 161.05,-191.44"/>
<polygon fill="black" stroke="black" points="164.47,-192.22 162.59,-181.8 157.56,-191.12 164.47,-192.22"/>
</g>
<!-- 9 -->
<g id="node10" class="node">
<title>9</title>
<polygon fill="none" stroke="black" points="274.12,-396 218.38,-396 218.38,-360 274.12,-360 274.12,-396"/>
<text text-anchor="middle" x="246.25" y="-373.32" font-family="Times,serif" font-size="14.00">repos</text>
</g>
<!-- 6&#45;&gt;9 -->
<g id="edge11" class="edge">
<title>6&#45;&gt;9</title>
<path fill="none" stroke="black" d="M470.33,-440.38C422.39,-432.38 352.57,-418.75 285.1,-396.62"/>
<polygon fill="black" stroke="black" points="286.32,-393.33 275.73,-393.47 284.1,-399.97 286.32,-393.33"/>
</g>
<!-- 8 -->
<g id="node9" class="node">
<title>8</title>
<polygon fill="none" stroke="black" points="196.75,-108 135.75,-108 135.75,-72 196.75,-72 196.75,-108"/>
<text text-anchor="middle" x="166.25" y="-85.33" font-family="Times,serif" font-size="14.00">health</text>
</g>
<!-- 7&#45;&gt;8 -->
<g id="edge12" class="edge">
<title>7&#45;&gt;8</title>
<path fill="none" stroke="black" d="M166.25,-143.7C166.25,-136.41 166.25,-127.73 166.25,-119.54"/>
<polygon fill="black" stroke="black" points="169.75,-119.62 166.25,-109.62 162.75,-119.62 169.75,-119.62"/>
</g>
<!-- 9&#45;&gt;2 -->
<g id="edge15" class="edge">
<title>9&#45;&gt;2</title>
<path fill="none" stroke="black" d="M274.5,-363.53C277.11,-362.32 279.73,-361.13 282.25,-360 319.7,-343.24 330.45,-342.15 367.25,-324 408.83,-303.49 454.8,-276.95 486.19,-258.21"/>
<polygon fill="black" stroke="black" points="487.78,-261.34 494.55,-253.19 484.18,-255.34 487.78,-261.34"/>
</g>
<!-- 9&#45;&gt;7 -->
<g id="edge14" class="edge">
<title>9&#45;&gt;7</title>
<path fill="none" stroke="black" d="M230,-359.71C221.13,-349.75 210.34,-336.71 202.25,-324 183.24,-294.15 176.38,-286.44 168.25,-252 163.58,-232.2 163.18,-209.23 163.9,-191.59"/>
<polygon fill="black" stroke="black" points="167.38,-192.02 164.45,-181.84 160.39,-191.63 167.38,-192.02"/>
</g>
<!-- 10 -->
<g id="node11" class="node">
<title>10</title>
<polygon fill="none" stroke="black" points="358.25,-324 304.25,-324 304.25,-288 358.25,-288 358.25,-324"/>
<text text-anchor="middle" x="331.25" y="-301.32" font-family="Times,serif" font-size="14.00">db</text>
</g>
<!-- 9&#45;&gt;10 -->
<g id="edge13" class="edge">
<title>9&#45;&gt;10</title>
<path fill="none" stroke="black" d="M267.26,-359.7C277.58,-351.2 290.19,-340.81 301.48,-331.51"/>
<polygon fill="black" stroke="black" points="303.52,-334.37 309.02,-325.31 299.07,-328.96 303.52,-334.37"/>
</g>
<!-- 13 -->
<g id="node14" class="node">
<title>13</title>
<polygon fill="none" stroke="black" points="281.25,-324 211.25,-324 211.25,-288 281.25,-288 281.25,-324"/>
<text text-anchor="middle" x="246.25" y="-301.32" font-family="Times,serif" font-size="14.00">storage</text>
</g>
<!-- 9&#45;&gt;13 -->
<g id="edge16" class="edge">
<title>9&#45;&gt;13</title>
<path fill="none" stroke="black" d="M246.25,-359.7C246.25,-352.41 246.25,-343.73 246.25,-335.54"/>
<polygon fill="black" stroke="black" points="249.75,-335.62 246.25,-325.62 242.75,-335.62 249.75,-335.62"/>
</g>
<!-- 10&#45;&gt;2 -->
<g id="edge20" class="edge">
<title>10&#45;&gt;2</title>
<path fill="none" stroke="black" stroke-dasharray="1,5" d="M358.51,-293.43C363.08,-291.57 367.78,-289.7 372.25,-288 417.97,-270.62 430.09,-268.16 476.25,-252 477.4,-251.6 478.56,-251.19 479.73,-250.78"/>
<polygon fill="black" stroke="black" points="480.73,-254.14 489,-247.51 478.41,-247.53 480.73,-254.14"/>
</g>
<!-- 10&#45;&gt;5 -->
<g id="edge19" class="edge">
<title>10&#45;&gt;5</title>
<path fill="none" stroke="black" d="M356.02,-287.58C369.54,-277.68 386.31,-264.74 400.25,-252 422,-232.11 444.54,-207.29 460.47,-188.92"/>
<polygon fill="black" stroke="black" points="463.1,-191.23 466.96,-181.36 457.79,-186.67 463.1,-191.23"/>
</g>
<!-- 10&#45;&gt;7 -->
<g id="edge17" class="edge">
<title>10&#45;&gt;7</title>
<path fill="none" stroke="black" d="M319.68,-287.72C306.27,-268.57 282.71,-237.55 257.25,-216 241.03,-202.28 220.79,-190.09 203.52,-180.88"/>
<polygon fill="black" stroke="black" points="205.57,-178 195.09,-176.5 202.35,-184.22 205.57,-178"/>
</g>
<!-- 11 -->
<g id="node12" class="node">
<title>11</title>
<polygon fill="none" stroke="black" points="358.25,-252 304.25,-252 304.25,-216 358.25,-216 358.25,-252"/>
<text text-anchor="middle" x="331.25" y="-229.32" font-family="Times,serif" font-size="14.00">kv</text>
</g>
<!-- 10&#45;&gt;11 -->
<g id="edge18" class="edge">
<title>10&#45;&gt;11</title>
<path fill="none" stroke="black" d="M331.25,-287.7C331.25,-280.41 331.25,-271.73 331.25,-263.54"/>
<polygon fill="black" stroke="black" points="334.75,-263.62 331.25,-253.62 327.75,-263.62 334.75,-263.62"/>
</g>
<!-- 11&#45;&gt;4 -->
<g id="edge22" class="edge">
<title>11&#45;&gt;4</title>
<path fill="none" stroke="black" d="M315.64,-215.77C307.88,-206.03 299.3,-193.18 295.25,-180 290.55,-164.71 291.96,-159.66 295.25,-144 302.69,-108.63 320.77,-71.06 334.18,-46.45"/>
<polygon fill="black" stroke="black" points="337.22,-48.19 339.04,-37.75 331.11,-44.77 337.22,-48.19"/>
</g>
<!-- 11&#45;&gt;7 -->
<g id="edge21" class="edge">
<title>11&#45;&gt;7</title>
<path fill="none" stroke="black" d="M304,-221.44C276.66,-209.84 234.32,-191.88 203.8,-178.93"/>
<polygon fill="black" stroke="black" points="205.5,-175.85 194.93,-175.17 202.77,-182.29 205.5,-175.85"/>
</g>
<!-- 12 -->
<g id="node13" class="node">
<title>12</title>
<polygon fill="none" stroke="black" points="358.25,-180 304.25,-180 304.25,-144 358.25,-144 358.25,-180"/>
<text text-anchor="middle" x="331.25" y="-157.32" font-family="Times,serif" font-size="14.00">starc</text>
</g>
<!-- 11&#45;&gt;12 -->
<g id="edge23" class="edge">
<title>11&#45;&gt;12</title>
<path fill="none" stroke="black" d="M331.25,-215.7C331.25,-208.41 331.25,-199.73 331.25,-191.54"/>
<polygon fill="black" stroke="black" points="334.75,-191.62 331.25,-181.62 327.75,-191.62 334.75,-191.62"/>
</g>
<!-- 13&#45;&gt;3 -->
<g id="edge25" class="edge">
<title>13&#45;&gt;3</title>
<path fill="none" stroke="black" d="M281.59,-291.19C315.01,-277.86 360.98,-258.74 367.25,-252 376.57,-241.98 402.08,-162.71 415.59,-119.26"/>
<polygon fill="black" stroke="black" points="418.92,-120.33 418.54,-109.74 412.24,-118.26 418.92,-120.33"/>
</g>
<!-- 13&#45;&gt;7 -->
<g id="edge26" class="edge">
<title>13&#45;&gt;7</title>
<path fill="none" stroke="black" d="M219.2,-287.6C207.05,-278.42 193.59,-266.14 185.25,-252 174.44,-233.67 169.74,-209.99 167.72,-191.66"/>
<polygon fill="black" stroke="black" points="171.21,-191.4 166.86,-181.74 164.24,-192 171.21,-191.4"/>
</g>
<!-- 14 -->
<g id="node15" class="node">
<title>14</title>
<polygon fill="none" stroke="black" points="248.25,-252 194.25,-252 194.25,-216 248.25,-216 248.25,-252"/>
<text text-anchor="middle" x="221.25" y="-229.32" font-family="Times,serif" font-size="14.00">belt</text>
</g>
<!-- 13&#45;&gt;14 -->
<g id="edge24" class="edge">
<title>13&#45;&gt;14</title>
<path fill="none" stroke="black" d="M240.07,-287.7C237.38,-280.15 234.15,-271.12 231.14,-262.68"/>
<polygon fill="black" stroke="black" points="234.53,-261.77 227.87,-253.53 227.94,-264.12 234.53,-261.77"/>
</g>
<!-- 15&#45;&gt;1 -->
<g id="edge27" class="edge">
<title>15&#45;&gt;1</title>
<path fill="none" stroke="black" d="M445.94,-503.85C453.84,-467.07 472.5,-380.29 482.18,-335.24"/>
<polygon fill="black" stroke="black" points="485.55,-336.22 484.23,-325.71 478.7,-334.75 485.55,-336.22"/>
</g>
<!-- 15&#45;&gt;6 -->
<g id="edge28" class="edge">
<title>15&#45;&gt;6</title>
<path fill="none" stroke="black" d="M463.51,-503.7C473.95,-495.2 486.71,-484.81 498.13,-475.51"/>
<polygon fill="black" stroke="black" points="500.22,-478.33 505.76,-469.3 495.8,-472.9 500.22,-478.33"/>
</g>
<!-- 16 -->
<g id="node17" class="node">
<title>16</title>
<polygon fill="none" stroke="black" points="414.25,-468 360.25,-468 360.25,-432 414.25,-432 414.25,-468"/>
<text text-anchor="middle" x="387.25" y="-445.32" font-family="Times,serif" font-size="14.00">rope</text>
</g>
<!-- 15&#45;&gt;16 -->
<g id="edge29" class="edge">
<title>15&#45;&gt;16</title>
<path fill="none" stroke="black" d="M428.65,-503.7C422.33,-495.64 414.67,-485.89 407.66,-476.98"/>
<polygon fill="black" stroke="black" points="410.55,-475 401.62,-469.29 405.05,-479.32 410.55,-475"/>
</g>
<!-- 17 -->
<g id="node18" class="node">
<title>17</title>
<polygon fill="none" stroke="black" points="62.5,-396 0,-396 0,-360 62.5,-360 62.5,-396"/>
<text text-anchor="middle" x="31.25" y="-373.32" font-family="Times,serif" font-size="14.00">names</text>
</g>
<!-- 16&#45;&gt;17 -->
<g id="edge30" class="edge">
<title>16&#45;&gt;17</title>
<path fill="none" stroke="black" d="M359.83,-446.12C305.17,-440 179.06,-423.9 76.25,-396 75.43,-395.78 74.61,-395.55 73.79,-395.31"/>
<polygon fill="black" stroke="black" points="74.99,-392.02 64.4,-392.31 72.86,-398.69 74.99,-392.02"/>
</g>
<!-- 18 -->
<g id="node19" class="node">
<title>18</title>
<polygon fill="none" stroke="black" points="717.88,-540 642.62,-540 642.62,-504 717.88,-504 717.88,-540"/>
<text text-anchor="middle" x="680.25" y="-517.33" font-family="Times,serif" font-size="14.00">cart&#45;app</text>
</g>
<!-- 18&#45;&gt;2 -->
<g id="edge31" class="edge">
<title>18&#45;&gt;2</title>
<path fill="none" stroke="black" d="M670.73,-503.54C644.45,-455.36 570.76,-320.27 539.06,-262.15"/>
<polygon fill="black" stroke="black" points="542.23,-260.66 534.37,-253.56 536.09,-264.02 542.23,-260.66"/>
</g>
<!-- 18&#45;&gt;6 -->
<g id="edge32" class="edge">
<title>18&#45;&gt;6</title>
<path fill="none" stroke="black" stroke-dasharray="1,5" d="M642.29,-503.52C622.35,-494.34 597.71,-482.99 576.45,-473.2"/>
<polygon fill="black" stroke="black" points="577.92,-470.02 567.37,-469.01 574.99,-476.38 577.92,-470.02"/>
</g>
<!-- 19 -->
<g id="node20" class="node">
<title>19</title>
<polygon fill="none" stroke="black" points="740.5,-612 630,-612 630,-576 740.5,-576 740.5,-612"/>
<text text-anchor="middle" x="685.25" y="-589.33" font-family="Times,serif" font-size="14.00">cart&#45;frontend</text>
</g>
<!-- 19&#45;&gt;18 -->
<g id="edge33" class="edge">
<title>19&#45;&gt;18</title>
<path fill="none" stroke="black" d="M684.01,-575.7C683.49,-568.41 682.87,-559.73 682.29,-551.54"/>
<polygon fill="black" stroke="black" points="685.78,-551.34 681.58,-541.61 678.8,-551.84 685.78,-551.34"/>
</g>
<!-- 20 -->
<g id="node21" class="node">
<title>20</title>
<polygon fill="none" stroke="black" points="611.62,-612 516.88,-612 516.88,-576 611.62,-576 611.62,-612"/>
<text text-anchor="middle" x="564.25" y="-589.33" font-family="Times,serif" font-size="14.00">cart&#45;server</text>
</g>
<!-- 20&#45;&gt;6 -->
<g id="edge35" class="edge">
<title>20&#45;&gt;6</title>
<path fill="none" stroke="black" d="M559.84,-575.59C553.73,-551.5 542.64,-507.75 535.36,-479.03"/>
<polygon fill="black" stroke="black" points="538.81,-478.41 532.96,-469.58 532.02,-480.13 538.81,-478.41"/>
</g>
<!-- 20&#45;&gt;18 -->
<g id="edge34" class="edge">
<title>20&#45;&gt;18</title>
<path fill="none" stroke="black" d="M593.22,-575.52C608,-566.6 626.18,-555.63 642.08,-546.03"/>
<polygon fill="black" stroke="black" points="643.6,-549.21 650.35,-541.04 639.98,-543.21 643.6,-549.21"/>
</g>
<!-- 21 -->
<g id="node22" class="node">
<title>21</title>
<polygon fill="none" stroke="black" points="812.25,-612 758.25,-612 758.25,-576 812.25,-576 812.25,-612"/>
<text text-anchor="middle" x="785.25" y="-589.33" font-family="Times,serif" font-size="14.00">cli</text>
</g>
<!-- 22 -->
<g id="node23" class="node">
<title>22</title>
<polygon fill="none" stroke="black" points="812.75,-540 757.75,-540 757.75,-504 812.75,-504 812.75,-540"/>
<text text-anchor="middle" x="785.25" y="-517.33" font-family="Times,serif" font-size="14.00">nasty</text>
</g>
<!-- 21&#45;&gt;22 -->
<g id="edge36" class="edge">
<title>21&#45;&gt;22</title>
<path fill="none" stroke="black" d="M785.25,-575.7C785.25,-568.41 785.25,-559.73 785.25,-551.54"/>
<polygon fill="black" stroke="black" points="788.75,-551.62 785.25,-541.62 781.75,-551.62 788.75,-551.62"/>
</g>
<!-- 23 -->
<g id="node24" class="node">
<title>23</title>
<polygon fill="none" stroke="black" points="426.38,-612 354.12,-612 354.12,-576 426.38,-576 426.38,-612"/>
<text text-anchor="middle" x="390.25" y="-589.33" font-family="Times,serif" font-size="14.00">daemon</text>
</g>
<!-- 23&#45;&gt;15 -->
<g id="edge38" class="edge">
<title>23&#45;&gt;15</title>
<path fill="none" stroke="black" d="M403.1,-575.7C409.02,-567.73 416.18,-558.1 422.74,-549.26"/>
<polygon fill="black" stroke="black" points="425.49,-551.43 428.64,-541.32 419.87,-547.26 425.49,-551.43"/>
</g>
<!-- 23&#45;&gt;16 -->
<g id="edge37" class="edge">
<title>23&#45;&gt;16</title>
<path fill="none" stroke="black" d="M389.88,-575.59C389.38,-551.61 388.46,-508.14 387.85,-479.42"/>
<polygon fill="black" stroke="black" points="391.35,-479.55 387.64,-469.62 384.36,-479.7 391.35,-479.55"/>
</g>
<!-- 24 -->
<g id="node25" class="node">
<title>24</title>
<polygon fill="none" stroke="black" points="455.75,-396 388.75,-396 388.75,-360 455.75,-360 455.75,-396"/>
<text text-anchor="middle" x="422.25" y="-373.32" font-family="Times,serif" font-size="14.00">fetcher</text>
</g>
<!-- 24&#45;&gt;1 -->
<g id="edge40" class="edge">
<title>24&#45;&gt;1</title>
<path fill="none" stroke="black" d="M438.56,-359.7C446.32,-351.47 455.74,-341.48 464.28,-332.42"/>
<polygon fill="black" stroke="black" points="466.77,-334.88 471.08,-325.21 461.68,-330.08 466.77,-334.88"/>
</g>
<!-- 24&#45;&gt;3 -->
<g id="edge39" class="edge">
<title>24&#45;&gt;3</title>
<path fill="none" stroke="black" d="M422.37,-359.54C422.71,-311.76 423.64,-178.51 424.05,-119.61"/>
<polygon fill="black" stroke="black" points="427.55,-119.77 424.12,-109.75 420.55,-119.72 427.55,-119.77"/>
</g>
<!-- 24&#45;&gt;13 -->
<g id="edge41" class="edge">
<title>24&#45;&gt;13</title>
<path fill="none" stroke="black" d="M388.32,-363.5C361,-352.64 322.35,-337.27 292.25,-325.3"/>
<polygon fill="black" stroke="black" points="293.58,-322.06 282.99,-321.61 290.99,-328.56 293.58,-322.06"/>
</g>
<!-- 25 -->
<g id="node26" class="node">
<title>25</title>
<polygon fill="none" stroke="black" points="370.75,-396 291.75,-396 291.75,-360 370.75,-360 370.75,-396"/>
<text text-anchor="middle" x="331.25" y="-373.32" font-family="Times,serif" font-size="14.00">migrator</text>
</g>
<!-- 25&#45;&gt;10 -->
<g id="edge42" class="edge">
<title>25&#45;&gt;10</title>
<path fill="none" stroke="black" d="M331.25,-359.7C331.25,-352.41 331.25,-343.73 331.25,-335.54"/>
<polygon fill="black" stroke="black" points="334.75,-335.62 331.25,-325.62 327.75,-335.62 334.75,-335.62"/>
</g>
</g>
</svg>
