<?xml version="1.0" encoding="UTF-8" standalone="no"?>
<!DOCTYPE svg PUBLIC "-//W3C//DTD SVG 1.1//EN"
 "http://www.w3.org/Graphics/SVG/1.1/DTD/svg11.dtd">
<!-- Generated by graphviz version 12.1.1 (0)
 -->
<!-- Pages: 1 -->
<svg width="570pt" height="548pt"
 viewBox="0.00 0.00 569.75 548.00" xmlns="http://www.w3.org/2000/svg" xmlns:xlink="http://www.w3.org/1999/xlink">
<g id="graph0" class="graph" transform="scale(1 1) rotate(0) translate(4 544)">
<polygon fill="white" stroke="none" points="-4,4 -4,-544 565.75,-544 565.75,4 -4,4"/>
<!-- 0 -->
<g id="node1" class="node">
<title>0</title>
<polygon fill="none" stroke="black" points="201.25,-540 147.25,-540 147.25,-504 201.25,-504 201.25,-540"/>
<text text-anchor="middle" x="174.25" y="-517.33" font-family="Times,serif" font-size="14.00">api</text>
</g>
<!-- 1 -->
<g id="node2" class="node">
<title>1</title>
<polygon fill="none" stroke="black" points="164,-252 92.5,-252 92.5,-216 164,-216 164,-252"/>
<text text-anchor="middle" x="128.25" y="-229.32" font-family="Times,serif" font-size="14.00">mollusk</text>
</g>
<!-- 0&#45;&gt;1 -->
<g id="edge1" class="edge">
<title>0&#45;&gt;1</title>
<path fill="none" stroke="black" d="M171.99,-503.7C166.84,-464.96 153.61,-368.33 139.25,-288 137.81,-279.92 136.07,-271.18 134.4,-263.18"/>
<polygon fill="black" stroke="black" points="137.87,-262.68 132.37,-253.62 131.03,-264.13 137.87,-262.68"/>
</g>
<!-- 5 -->
<g id="node6" class="node">
<title>5</title>
<polygon fill="none" stroke="black" points="370.75,-396 255.75,-396 255.75,-360 370.75,-360 370.75,-396"/>
<text text-anchor="middle" x="313.25" y="-373.32" font-family="Times,serif" font-size="14.00">prime&#45;domain</text>
</g>
<!-- 0&#45;&gt;5 -->
<g id="edge2" class="edge">
<title>0&#45;&gt;5</title>
<path fill="none" stroke="black" d="M191.29,-503.59C215.71,-478.65 260.76,-432.62 288.75,-404.03"/>
<polygon fill="black" stroke="black" points="290.95,-406.79 295.44,-397.19 285.95,-401.89 290.95,-406.79"/>
</g>
<!-- 15 -->
<g id="node16" class="node">
<title>15</title>
<polygon fill="none" stroke="black" points="146.25,-468 92.25,-468 92.25,-432 146.25,-432 146.25,-468"/>
<text text-anchor="middle" x="119.25" y="-445.32" font-family="Times,serif" font-size="14.00">tasks</text>
</g>
<!-- 0&#45;&gt;15 -->
<g id="edge3" class="edge">
<title>0&#45;&gt;15</title>
<path fill="none" stroke="black" d="M160.65,-503.7C154.33,-495.64 146.67,-485.89 139.66,-476.98"/>
<polygon fill="black" stroke="black" points="142.55,-475 133.62,-469.29 137.05,-479.32 142.55,-475"/>
</g>
<!-- 2 -->
<g id="node3" class="node">
<title>2</title>
<polygon fill="none" stroke="black" points="351.75,-180 284.75,-180 284.75,-144 351.75,-144 351.75,-180"/>
<text text-anchor="middle" x="318.25" y="-157.32" font-family="Times,serif" font-size="14.00">models</text>
</g>
<!-- 1&#45;&gt;2 -->
<g id="edge4" class="edge">
<title>1&#45;&gt;2</title>
<path fill="none" stroke="black" d="M164.1,-219.42C167.19,-218.26 170.28,-217.11 173.25,-216 207,-203.46 245.26,-189.48 274,-179.03"/>
<polygon fill="black" stroke="black" points="274.89,-182.43 283.1,-175.73 272.5,-175.85 274.89,-182.43"/>
</g>
<!-- 3 -->
<g id="node4" class="node">
<title>3</title>
<polygon fill="none" stroke="black" points="236.25,-108 182.25,-108 182.25,-72 236.25,-72 236.25,-108"/>
<text text-anchor="middle" x="209.25" y="-85.33" font-family="Times,serif" font-size="14.00">dvf</text>
</g>
<!-- 2&#45;&gt;3 -->
<g id="edge5" class="edge">
<title>2&#45;&gt;3</title>
<path fill="none" stroke="black" d="M291.03,-143.52C277.27,-134.68 260.38,-123.84 245.54,-114.3"/>
<polygon fill="black" stroke="black" points="247.71,-111.54 237.4,-109.08 243.92,-117.43 247.71,-111.54"/>
</g>
<!-- 4 -->
<g id="node5" class="node">
<title>4</title>
<polygon fill="none" stroke="black" points="324.25,-36 254.25,-36 254.25,0 324.25,0 324.25,-36"/>
<text text-anchor="middle" x="289.25" y="-13.32" font-family="Times,serif" font-size="14.00">slugger</text>
</g>
<!-- 3&#45;&gt;4 -->
<g id="edge6" class="edge">
<title>3&#45;&gt;4</title>
<path fill="none" stroke="black" d="M229.03,-71.7C238.64,-63.28 250.37,-53.02 260.92,-43.79"/>
<polygon fill="black" stroke="black" points="263.06,-46.56 268.29,-37.34 258.46,-41.29 263.06,-46.56"/>
</g>
<!-- 5&#45;&gt;2 -->
<g id="edge9" class="edge">
<title>5&#45;&gt;2</title>
<path fill="none" stroke="black" d="M313.65,-359.85C314.51,-323.14 316.53,-236.66 317.58,-191.53"/>
<polygon fill="black" stroke="black" points="321.08,-191.82 317.81,-181.75 314.08,-191.66 321.08,-191.82"/>
</g>
<!-- 6 -->
<g id="node7" class="node">
<title>6</title>
<polygon fill="none" stroke="black" points="74.62,-252 9.88,-252 9.88,-216 74.62,-216 74.62,-252"/>
<text text-anchor="middle" x="42.25" y="-229.32" font-family="Times,serif" font-size="14.00">crunch</text>
</g>
<!-- 5&#45;&gt;6 -->
<g id="edge7" class="edge">
<title>5&#45;&gt;6</title>
<path fill="none" stroke="black" d="M270.48,-359.54C247.31,-349.73 218.37,-336.9 193.25,-324 153.36,-303.52 109.37,-277.14 79.21,-258.42"/>
<polygon fill="black" stroke="black" points="81.16,-255.51 70.82,-253.19 77.45,-261.45 81.16,-255.51"/>
</g>
<!-- 8 -->
<g id="node9" class="node">
<title>8</title>
<polygon fill="none" stroke="black" points="496.25,-108 442.25,-108 442.25,-72 496.25,-72 496.25,-108"/>
<text text-anchor="middle" x="469.25" y="-85.33" font-family="Times,serif" font-size="14.00">hex</text>
</g>
<!-- 5&#45;&gt;8 -->
<g id="edge8" class="edge">
<title>5&#45;&gt;8</title>
<path fill="none" stroke="black" d="M370.97,-368.5C420.65,-359.89 486.84,-344.86 503.25,-324 552.74,-261.11 533.21,-220.04 508.25,-144 505.13,-134.48 499.57,-125.27 493.61,-117.26"/>
<polygon fill="black" stroke="black" points="496.49,-115.26 487.49,-109.66 491.03,-119.64 496.49,-115.26"/>
</g>
<!-- 10 -->
<g id="node11" class="node">
<title>10</title>
<polygon fill="none" stroke="black" points="397.12,-324 341.38,-324 341.38,-288 397.12,-288 397.12,-324"/>
<text text-anchor="middle" x="369.25" y="-301.32" font-family="Times,serif" font-size="14.00">repos</text>
</g>
<!-- 5&#45;&gt;10 -->
<g id="edge10" class="edge">
<title>5&#45;&gt;10</title>
<path fill="none" stroke="black" d="M327.09,-359.7C333.54,-351.64 341.33,-341.89 348.46,-332.98"/>
<polygon fill="black" stroke="black" points="351.11,-335.28 354.62,-325.29 345.64,-330.91 351.11,-335.28"/>
</g>
<!-- 6&#45;&gt;3 -->
<g id="edge11" class="edge">
<title>6&#45;&gt;3</title>
<path fill="none" stroke="black" d="M53.11,-215.58C65.77,-196.3 88.17,-165.16 113.25,-144 130.72,-129.25 152.93,-116.68 171.58,-107.48"/>
<polygon fill="black" stroke="black" points="172.93,-110.72 180.44,-103.25 169.91,-104.4 172.93,-110.72"/>
</g>
<!-- 7 -->
<g id="node8" class="node">
<title>7</title>
<polygon fill="none" stroke="black" points="227.88,-180 122.62,-180 122.62,-144 227.88,-144 227.88,-180"/>
<text text-anchor="middle" x="175.25" y="-157.32" font-family="Times,serif" font-size="14.00">stream&#45;tools</text>
</g>
<!-- 6&#45;&gt;7 -->
<g id="edge12" class="edge">
<title>6&#45;&gt;7</title>
<path fill="none" stroke="black" d="M74.79,-215.88C92.05,-206.79 113.48,-195.51 132.11,-185.71"/>
<polygon fill="black" stroke="black" points="133.57,-188.89 140.79,-181.14 130.31,-182.7 133.57,-188.89"/>
</g>
<!-- 7&#45;&gt;3 -->
<g id="edge13" class="edge">
<title>7&#45;&gt;3</title>
<path fill="none" stroke="black" d="M183.65,-143.7C187.36,-136.07 191.81,-126.92 195.94,-118.4"/>
<polygon fill="black" stroke="black" points="199.06,-119.99 200.28,-109.47 192.76,-116.93 199.06,-119.99"/>
</g>
<!-- 9 -->
<g id="node10" class="node">
<title>9</title>
<polygon fill="none" stroke="black" points="499.75,-36 438.75,-36 438.75,0 499.75,0 499.75,-36"/>
<text text-anchor="middle" x="469.25" y="-13.32" font-family="Times,serif" font-size="14.00">health</text>
</g>
<!-- 8&#45;&gt;9 -->
<g id="edge14" class="edge">
<title>8&#45;&gt;9</title>
<path fill="none" stroke="black" d="M469.25,-71.7C469.25,-64.41 469.25,-55.73 469.25,-47.54"/>
<polygon fill="black" stroke="black" points="472.75,-47.62 469.25,-37.62 465.75,-47.62 472.75,-47.62"/>
</g>
<!-- 10&#45;&gt;2 -->
<g id="edge17" class="edge">
<title>10&#45;&gt;2</title>
<path fill="none" stroke="black" d="M363,-287.59C354.31,-263.4 338.49,-219.36 328.18,-190.65"/>
<polygon fill="black" stroke="black" points="331.58,-189.76 324.91,-181.54 324.99,-192.13 331.58,-189.76"/>
</g>
<!-- 10&#45;&gt;8 -->
<g id="edge16" class="edge">
<title>10&#45;&gt;8</title>
<path fill="none" stroke="black" d="M397.53,-292C400.47,-290.65 403.42,-289.29 406.25,-288 441.34,-271.95 464.38,-284.45 485.25,-252 511.33,-211.46 495.25,-152.93 481.82,-118.74"/>
<polygon fill="black" stroke="black" points="485.07,-117.44 478.01,-109.54 478.61,-120.12 485.07,-117.44"/>
</g>
<!-- 11 -->
<g id="node12" class="node">
<title>11</title>
<polygon fill="none" stroke="black" points="476.25,-252 422.25,-252 422.25,-216 476.25,-216 476.25,-252"/>
<text text-anchor="middle" x="449.25" y="-229.32" font-family="Times,serif" font-size="14.00">db</text>
</g>
<!-- 10&#45;&gt;11 -->
<g id="edge15" class="edge">
<title>10&#45;&gt;11</title>
<path fill="none" stroke="black" d="M389.03,-287.7C398.64,-279.28 410.37,-269.02 420.92,-259.79"/>
<polygon fill="black" stroke="black" points="423.06,-262.56 428.29,-253.34 418.46,-257.29 423.06,-262.56"/>
</g>
<!-- 14 -->
<g id="node15" class="node">
<title>14</title>
<polygon fill="none" stroke="black" points="252.25,-252 182.25,-252 182.25,-216 252.25,-216 252.25,-252"/>
<text text-anchor="middle" x="217.25" y="-229.32" font-family="Times,serif" font-size="14.00">storage</text>
</g>
<!-- 10&#45;&gt;14 -->
<g id="edge18" class="edge">
<title>10&#45;&gt;14</title>
<path fill="none" stroke="black" d="M341.02,-292C319.06,-281.89 288.15,-267.65 262.72,-255.94"/>
<polygon fill="black" stroke="black" points="264.48,-252.9 253.93,-251.89 261.55,-259.26 264.48,-252.9"/>
</g>
<!-- 11&#45;&gt;2 -->
<g id="edge21" class="edge">
<title>11&#45;&gt;2</title>
<path fill="none" stroke="black" d="M421.79,-218.33C404.15,-208.9 380.89,-196.47 360.89,-185.78"/>
<polygon fill="black" stroke="black" points="362.57,-182.71 352.1,-181.09 359.27,-188.89 362.57,-182.71"/>
</g>
<!-- 11&#45;&gt;8 -->
<g id="edge19" class="edge">
<title>11&#45;&gt;8</title>
<path fill="none" stroke="black" d="M451.7,-215.59C455.08,-191.61 461.2,-148.14 465.25,-119.42"/>
<polygon fill="black" stroke="black" points="468.7,-120 466.63,-109.61 461.77,-119.02 468.7,-120"/>
</g>
<!-- 12 -->
<g id="node13" class="node">
<title>12</title>
<polygon fill="none" stroke="black" points="431.25,-180 377.25,-180 377.25,-144 431.25,-144 431.25,-180"/>
<text text-anchor="middle" x="404.25" y="-157.32" font-family="Times,serif" font-size="14.00">kv</text>
</g>
<!-- 11&#45;&gt;12 -->
<g id="edge20" class="edge">
<title>11&#45;&gt;12</title>
<path fill="none" stroke="black" d="M438.13,-215.7C433.06,-207.81 426.95,-198.3 421.32,-189.55"/>
<polygon fill="black" stroke="black" points="424.42,-187.9 416.06,-181.38 418.53,-191.68 424.42,-187.9"/>
</g>
<!-- 12&#45;&gt;4 -->
<g id="edge23" class="edge">
<title>12&#45;&gt;4</title>
<path fill="none" stroke="black" d="M390.3,-143.82C381.88,-133.45 370.95,-119.97 361.25,-108 344.1,-86.83 324.67,-62.81 310.32,-45.06"/>
<polygon fill="black" stroke="black" points="313.28,-43.15 304.27,-37.58 307.83,-47.55 313.28,-43.15"/>
</g>
<!-- 12&#45;&gt;8 -->
<g id="edge22" class="edge">
<title>12&#45;&gt;8</title>
<path fill="none" stroke="black" d="M420.32,-143.7C427.95,-135.47 437.23,-125.48 445.65,-116.42"/>
<polygon fill="black" stroke="black" points="448.1,-118.92 452.34,-109.21 442.97,-114.16 448.1,-118.92"/>
</g>
<!-- 13 -->
<g id="node14" class="node">
<title>13</title>
<polygon fill="none" stroke="black" points="424.25,-108 370.25,-108 370.25,-72 424.25,-72 424.25,-108"/>
<text text-anchor="middle" x="397.25" y="-85.33" font-family="Times,serif" font-size="14.00">starc</text>
</g>
<!-- 12&#45;&gt;13 -->
<g id="edge24" class="edge">
<title>12&#45;&gt;13</title>
<path fill="none" stroke="black" d="M402.52,-143.7C401.79,-136.41 400.92,-127.73 400.1,-119.54"/>
<polygon fill="black" stroke="black" points="403.59,-119.21 399.11,-109.61 396.62,-119.91 403.59,-119.21"/>
</g>
<!-- 14&#45;&gt;2 -->
<g id="edge26" class="edge">
<title>14&#45;&gt;2</title>
<path fill="none" stroke="black" d="M242.48,-215.52C255.1,-206.76 270.57,-196.04 284.23,-186.58"/>
<polygon fill="black" stroke="black" points="285.88,-189.7 292.1,-181.12 281.89,-183.94 285.88,-189.7"/>
</g>
<!-- 14&#45;&gt;7 -->
<g id="edge27" class="edge">
<title>14&#45;&gt;7</title>
<path fill="none" stroke="black" d="M206.87,-215.7C202.19,-207.9 196.56,-198.51 191.35,-189.83"/>
<polygon fill="black" stroke="black" points="194.44,-188.18 186.29,-181.4 188.44,-191.78 194.44,-188.18"/>
</g>
<!-- 14&#45;&gt;8 -->
<g id="edge25" class="edge">
<title>14&#45;&gt;8</title>
<path fill="none" stroke="black" d="M223.98,-215.69C232.82,-195.3 250.34,-161.93 276.25,-144 332.24,-105.25 362.56,-128.83 431.12,-108.17"/>
<polygon fill="black" stroke="black" points="432.13,-111.52 440.55,-105.09 429.96,-104.86 432.13,-111.52"/>
</g>
<!-- 15&#45;&gt;1 -->
<g id="edge28" class="edge">
<title>15&#45;&gt;1</title>
<path fill="none" stroke="black" d="M119.97,-431.85C121.51,-395.14 125.15,-308.66 127.05,-263.53"/>
<polygon fill="black" stroke="black" points="130.54,-263.88 127.46,-253.74 123.54,-263.59 130.54,-263.88"/>
</g>
<!-- 15&#45;&gt;5 -->
<g id="edge29" class="edge">
<title>15&#45;&gt;5</title>
<path fill="none" stroke="black" d="M146.63,-439.12C174.46,-429.08 218.45,-413.21 254.24,-400.29"/>
<polygon fill="black" stroke="black" points="255.41,-403.59 263.63,-396.9 253.04,-397.01 255.41,-403.59"/>
</g>
<!-- 16 -->
<g id="node17" class="node">
<title>16</title>
<polygon fill="none" stroke="black" points="91.25,-396 37.25,-396 37.25,-360 91.25,-360 91.25,-396"/>
<text text-anchor="middle" x="64.25" y="-373.32" font-family="Times,serif" font-size="14.00">rope</text>
</g>
<!-- 15&#45;&gt;16 -->
<g id="edge30" class="edge">
<title>15&#45;&gt;16</title>
<path fill="none" stroke="black" d="M105.65,-431.7C99.33,-423.64 91.67,-413.89 84.66,-404.98"/>
<polygon fill="black" stroke="black" points="87.55,-403 78.62,-397.29 82.05,-407.32 87.55,-403"/>
</g>
<!-- 17 -->
<g id="node18" class="node">
<title>17</title>
<polygon fill="none" stroke="black" points="62.5,-324 0,-324 0,-288 62.5,-288 62.5,-324"/>
<text text-anchor="middle" x="31.25" y="-301.32" font-family="Times,serif" font-size="14.00">names</text>
</g>
<!-- 16&#45;&gt;17 -->
<g id="edge31" class="edge">
<title>16&#45;&gt;17</title>
<path fill="none" stroke="black" d="M56.09,-359.7C52.5,-352.07 48.18,-342.92 44.17,-334.4"/>
<polygon fill="black" stroke="black" points="47.39,-333.03 39.96,-325.47 41.06,-336.01 47.39,-333.03"/>
</g>
<!-- 18 -->
<g id="node19" class="node">
<title>18</title>
<polygon fill="none" stroke="black" points="444.88,-468 369.62,-468 369.62,-432 444.88,-432 444.88,-468"/>
<text text-anchor="middle" x="407.25" y="-445.32" font-family="Times,serif" font-size="14.00">cart&#45;app</text>
</g>
<!-- 18&#45;&gt;2 -->
<g id="edge32" class="edge">
<title>18&#45;&gt;2</title>
<path fill="none" stroke="black" d="M431.23,-431.68C469.7,-401.74 537.55,-338.66 503.25,-288 479.1,-252.33 449.6,-275.13 413.25,-252 385.64,-234.43 358.86,-208.26 340.82,-188.84"/>
<polygon fill="black" stroke="black" points="343.51,-186.6 334.19,-181.56 338.34,-191.31 343.51,-186.6"/>
</g>
<!-- 18&#45;&gt;5 -->
<g id="edge33" class="edge">
<title>18&#45;&gt;5</title>
<path fill="none" stroke="black" stroke-dasharray="1,5" d="M384.01,-431.7C372.38,-423.03 358.1,-412.4 345.43,-402.96"/>
<polygon fill="black" stroke="black" points="347.87,-400.42 337.76,-397.25 343.69,-406.03 347.87,-400.42"/>
</g>
<!-- 19 -->
<g id="node20" class="node">
<title>19</title>
<polygon fill="none" stroke="black" points="489.5,-540 379,-540 379,-504 489.5,-504 489.5,-540"/>
<text text-anchor="middle" x="434.25" y="-517.33" font-family="Times,serif" font-size="14.00">cart&#45;frontend</text>
</g>
<!-- 19&#45;&gt;18 -->
<g id="edge34" class="edge">
<title>19&#45;&gt;18</title>
<path fill="none" stroke="black" d="M427.58,-503.7C424.67,-496.15 421.18,-487.12 417.93,-478.68"/>
<polygon fill="black" stroke="black" points="421.26,-477.59 414.39,-469.52 414.73,-480.11 421.26,-477.59"/>
</g>
<!-- 20 -->
<g id="node21" class="node">
<title>20</title>
<polygon fill="none" stroke="black" points="360.62,-540 265.88,-540 265.88,-504 360.62,-504 360.62,-540"/>
<text text-anchor="middle" x="313.25" y="-517.33" font-family="Times,serif" font-size="14.00">cart&#45;server</text>
</g>
<!-- 20&#45;&gt;5 -->
<g id="edge36" class="edge">
<title>20&#45;&gt;5</title>
<path fill="none" stroke="black" d="M313.25,-503.59C313.25,-479.61 313.25,-436.14 313.25,-407.42"/>
<polygon fill="black" stroke="black" points="316.75,-407.62 313.25,-397.62 309.75,-407.62 316.75,-407.62"/>
</g>
<!-- 20&#45;&gt;18 -->
<g id="edge35" class="edge">
<title>20&#45;&gt;18</title>
<path fill="none" stroke="black" d="M336.49,-503.7C348.12,-495.03 362.4,-484.4 375.07,-474.96"/>
<polygon fill="black" stroke="black" points="376.81,-478.03 382.74,-469.25 372.63,-472.42 376.81,-478.03"/>
</g>
<!-- 21 -->
<g id="node22" class="node">
<title>21</title>
<polygon fill="none" stroke="black" points="561.25,-540 507.25,-540 507.25,-504 561.25,-504 561.25,-540"/>
<text text-anchor="middle" x="534.25" y="-517.33" font-family="Times,serif" font-size="14.00">cli</text>
</g>
<!-- 22 -->
<g id="node23" class="node">
<title>22</title>
<polygon fill="none" stroke="black" points="561.75,-468 506.75,-468 506.75,-432 561.75,-432 561.75,-468"/>
<text text-anchor="middle" x="534.25" y="-445.32" font-family="Times,serif" font-size="14.00">nasty</text>
</g>
<!-- 21&#45;&gt;22 -->
<g id="edge37" class="edge">
<title>21&#45;&gt;22</title>
<path fill="none" stroke="black" d="M534.25,-503.7C534.25,-496.41 534.25,-487.73 534.25,-479.54"/>
<polygon fill="black" stroke="black" points="537.75,-479.62 534.25,-469.62 530.75,-479.62 537.75,-479.62"/>
</g>
<!-- 23 -->
<g id="node24" class="node">
<title>23</title>
<polygon fill="none" stroke="black" points="115.38,-540 43.12,-540 43.12,-504 115.38,-504 115.38,-540"/>
<text text-anchor="middle" x="79.25" y="-517.33" font-family="Times,serif" font-size="14.00">daemon</text>
</g>
<!-- 23&#45;&gt;15 -->
<g id="edge39" class="edge">
<title>23&#45;&gt;15</title>
<path fill="none" stroke="black" d="M89.14,-503.7C93.59,-495.9 98.96,-486.51 103.92,-477.83"/>
<polygon fill="black" stroke="black" points="106.8,-479.84 108.73,-469.42 100.72,-476.36 106.8,-479.84"/>
</g>
<!-- 23&#45;&gt;16 -->
<g id="edge38" class="edge">
<title>23&#45;&gt;16</title>
<path fill="none" stroke="black" d="M77.41,-503.59C74.88,-479.61 70.29,-436.14 67.25,-407.42"/>
<polygon fill="black" stroke="black" points="70.75,-407.19 66.22,-397.62 63.79,-407.93 70.75,-407.19"/>
</g>
<!-- 24 -->
<g id="node25" class="node">
<title>24</title>
<polygon fill="none" stroke="black" points="269.75,-324 202.75,-324 202.75,-288 269.75,-288 269.75,-324"/>
<text text-anchor="middle" x="236.25" y="-301.32" font-family="Times,serif" font-size="14.00">fetcher</text>
</g>
<!-- 24&#45;&gt;1 -->
<g id="edge41" class="edge">
<title>24&#45;&gt;1</title>
<path fill="none" stroke="black" d="M209.28,-287.52C195.64,-278.68 178.91,-267.84 164.2,-258.3"/>
<polygon fill="black" stroke="black" points="166.45,-255.59 156.15,-253.08 162.64,-261.46 166.45,-255.59"/>
</g>
<!-- 24&#45;&gt;2 -->
<g id="edge40" class="edge">
<title>24&#45;&gt;2</title>
<path fill="none" stroke="black" d="M246.3,-287.59C260.4,-263.18 286.15,-218.58 302.72,-189.89"/>
<polygon fill="black" stroke="black" points="305.64,-191.83 307.61,-181.42 299.58,-188.33 305.64,-191.83"/>
</g>
<!-- 24&#45;&gt;14 -->
<g id="edge42" class="edge">
<title>24&#45;&gt;14</title>
<path fill="none" stroke="black" d="M231.55,-287.7C229.53,-280.24 227.11,-271.32 224.84,-262.97"/>
<polygon fill="black" stroke="black" points="228.29,-262.3 222.29,-253.57 221.53,-264.13 228.29,-262.3"/>
</g>
<!-- 25 -->
<g id="node26" class="node">
<title>25</title>
<polygon fill="none" stroke="black" points="493.75,-324 414.75,-324 414.75,-288 493.75,-288 493.75,-324"/>
<text text-anchor="middle" x="454.25" y="-301.32" font-family="Times,serif" font-size="14.00">migrator</text>
</g>
<!-- 25&#45;&gt;11 -->
<g id="edge43" class="edge">
<title>25&#45;&gt;11</title>
<path fill="none" stroke="black" d="M453.01,-287.7C452.49,-280.41 451.87,-271.73 451.29,-263.54"/>
<polygon fill="black" stroke="black" points="454.78,-263.34 450.58,-253.61 447.8,-263.84 454.78,-263.34"/>
</g>
</g>
</svg>
